STARTFONT 2.3
FONT -FontForge-Lobster-Book-R-Normal--32-320-72-72-P-187-ISO10646-1
SIZE 32 72 72  2
FONTBOUNDINGBOX 65 48 -15 -16
COMMENT "Generated by fontforge, http://fontforge.sourceforge.net"
COMMENT "Copyright 2010 The Lobster Project Authors (https://github.com/impallari/The-Lobster-Font), with Reserved Font Name "Lobster"."
STARTPROPERTIES 41
FOUNDRY "FontForge"
FAMILY_NAME "Lobster"
WEIGHT_NAME "Book"
SLANT "R"
SETWIDTH_NAME "Normal"
ADD_STYLE_NAME ""
PIXEL_SIZE 32
POINT_SIZE 320
RESOLUTION_X 72
RESOLUTION_Y 72
SPACING "P"
AVERAGE_WIDTH 187
CHARSET_REGISTRY "ISO10646"
CHARSET_ENCODING "1"
FONTNAME_REGISTRY ""
CHARSET_COLLECTIONS "ISO8859-2 ISO8859-5 ISO8859-9 ISO8859-4 ISO10646-1"
BITS_PER_PIXEL 2
FONT_NAME "Lobster-Regular"
FACE_NAME "Lobster Regular"
COPYRIGHT "Copyright 2010 The Lobster Project Authors (https://github.com/impallari/The-Lobster-Font), with Reserved Font Name "Lobster"."
FONT_VERSION "2.100"
FONT_ASCENT 26
FONT_DESCENT 6
UNDERLINE_POSITION -3
UNDERLINE_THICKNESS 2
X_HEIGHT 16
CAP_HEIGHT 23
DEFAULT_CHAR 1
RAW_ASCENT 800
RAW_DESCENT 200
NORM_SPACE 7
RELATIVE_WEIGHT 40
RELATIVE_SETWIDTH 50
SUPERSCRIPT_X 0
SUPERSCRIPT_Y 11
SUPERSCRIPT_SIZE 19
SUBSCRIPT_X 0
SUBSCRIPT_Y 2
SUBSCRIPT_SIZE 19
AVG_LOWERCASE_WIDTH 150
AVG_UPPERCASE_WIDTH 197
ENDPROPERTIES
CHARS 1148
STARTCHAR NULL.dup1
ENCODING 0
SWIDTH 600 0
DWIDTH 19 0
BBX 1 1 0 0
BITMAP
00
ENDCHAR
STARTCHAR nonmarkingreturn
ENCODING 13
SWIDTH 600 0
DWIDTH 19 0
BBX 1 1 0 0
BITMAP
00
ENDCHAR
STARTCHAR space
ENCODING 32
SWIDTH 217 0
DWIDTH 7 0
BBX 1 1 0 0
BITMAP
00
ENDCHAR
STARTCHAR exclam
ENCODING 33
SWIDTH 257 0
DWIDTH 8 0
BBX 10 24 1 0
BITMAP
001690
00BFC0
00BF80
00FF80
00FF40
01FF00
01FE00
01FD00
02FC00
02FC00
03F800
03F400
07F000
07E000
0BD000
0BC000
064000
000000
000000
2E4000
BFC000
FFC000
BFC000
2E4000
ENDCHAR
STARTCHAR quotedbl
ENCODING 34
SWIDTH 353 0
DWIDTH 11 0
BBX 11 7 2 17
BITMAP
07F1FC
0BE2F8
0FC3F0
1F87E0
2F0BC0
3E0F80
7C1F00
ENDCHAR
STARTCHAR numbersign
ENCODING 35
SWIDTH 659 0
DWIDTH 21 0
BBX 17 20 2 2
BITMAP
000F407C00
000F40B800
001F00B800
001F00F400
002E01F400
002E01F000
1FFFFFFFC0
2FFFFFFF80
00B803D000
00B807C000
00F407C000
00F40B8000
BFFFFFFD00
FFFFFFFD00
02E01F0000
03D02E0000
07C02E0000
07C03D0000
0B807C0000
0B407C0000
ENDCHAR
STARTCHAR dollar
ENCODING 36
SWIDTH 548 0
DWIDTH 18 0
BBX 17 32 0 -5
BITMAP
000000E000
000001D000
000001D000
00006FE400
0007FFFE00
001FE3AF40
003FC74FC0
007F8B0FC0
00BF4B1FC0
00BF8E3F80
007FDD2E00
003FFD0000
002FFC0000
000BFD0000
0003FF4000
0001FFD000
0000BFF000
0000FFF800
0BE0EFFC00
2FF9D7FD00
7F92C3FD00
7F0283FD00
BE0383FC00
7F0747F800
3F8B1FF000
1FFFFFC000
06FFFE0000
002E500000
001C000000
002C000000
0038000000
0038000000
ENDCHAR
STARTCHAR percent
ENCODING 37
SWIDTH 796 0
DWIDTH 25 0
BBX 24 24 1 0
BITMAP
006F90002E00
01FFF0003D00
07E1F400B800
0FC0F801F000
1F80F802E000
2F41F807C000
3F01F80F4000
7E01F81F0000
7E02F43D0000
7E02F0B80000
7E03D0F40000
3E0B82E00BF4
2F1F07C07FFD
0BF80B81FD3F
00001F02F42F
00003D07F02F
00007C0BE03F
0000F40FD03F
0002E00FC03E
0003D00FC07D
000B800FC0B8
001F000BC1F4
002E0007D7D0
007C0001FE00
ENDCHAR
STARTCHAR ampersand
ENCODING 38
SWIDTH 682 0
DWIDTH 22 0
BBX 21 25 0 -1
BITMAP
00006FE40000
0002FFFD0000
000BF43F0000
002FD02F4000
003FC02F8000
007F803F4000
007F80BF0000
007F80140000
007FC0000000
002FE0000000
000FFD000180
006FE4001BC0
02FF806FFFC0
07FE01FFFF80
1FFC03FFFE00
2FF807FAD400
3FF403438000
7FF001074000
BFF0000B0000
7FF4002E0000
7FF800BC0000
3FFFABF40000
1FFFFFD00000
06FFFE000000
005550000000
ENDCHAR
STARTCHAR quotesingle
ENCODING 39
SWIDTH 196 0
DWIDTH 6 0
BBX 6 8 2 16
BITMAP
07F0
0BE0
0FC0
1F80
1F40
2E00
3D00
5400
ENDCHAR
STARTCHAR parenleft
ENCODING 40
SWIDTH 437 0
DWIDTH 14 0
BBX 13 33 4 -8
BITMAP
00000040
000006C0
00002F40
0000B800
0002F000
000BD000
002F4000
007F0000
00FD0000
02FC0000
03F40000
0BF00000
0FE00000
1FD00000
2FD00000
2FC00000
3F800000
3F800000
3F800000
7F800000
7F400000
3F400000
3F800000
3F800000
2F800000
1F800000
0FC00000
0BD00000
03E00000
02F00000
00F40000
00780000
00100000
ENDCHAR
STARTCHAR parenright
ENCODING 41
SWIDTH 413 0
DWIDTH 13 0
BBX 12 32 -2 -8
BITMAP
000A00
000B80
0003D0
0002F0
0001F4
0000F8
0000FC
0000BD
0000BE
0000BE
0000BF
0000BF
0000BF
0000BF
0000BF
0000FE
0000FE
0001FD
0002FC
0003F8
0007F4
000BF0
000FD0
001FC0
003F40
00BE00
01F800
03E000
0B8000
7E0000
F40000
400000
ENDCHAR
STARTCHAR asterisk
ENCODING 42
SWIDTH 515 0
DWIDTH 16 0
BBX 12 12 2 12
BITMAP
002E00
003E00
183E14
3F3DBE
2FFFFE
06FF90
06FFA0
7FFEFD
3F7DBD
043E18
007E00
007D00
ENDCHAR
STARTCHAR plus
ENCODING 43
SWIDTH 442 0
DWIDTH 14 0
BBX 13 12 0 4
BITMAP
000BC000
000BC000
000F8000
000F4000
001F4000
3FFFFF80
7FFFFF40
003D0000
007D0000
00BC0000
00B80000
00540000
ENDCHAR
STARTCHAR comma
ENCODING 44
SWIDTH 216 0
DWIDTH 7 0
BBX 6 9 0 -4
BITMAP
1B80
3FD0
7FD0
3FD0
1FC0
0740
0A00
2C00
2000
ENDCHAR
STARTCHAR hyphen
ENCODING 45
SWIDTH 290 0
DWIDTH 9 0
BBX 8 2 0 7
BITMAP
3FFD
7FFD
ENDCHAR
STARTCHAR period
ENCODING 46
SWIDTH 263 0
DWIDTH 8 0
BBX 5 5 1 0
BITMAP
2E00
BF80
FFC0
BF80
2E00
ENDCHAR
STARTCHAR slash
ENCODING 47
SWIDTH 311 0
DWIDTH 10 0
BBX 10 32 0 -8
BITMAP
0003D0
0007C0
0007C0
000B80
000B40
000F40
001F00
001F00
002E00
003D00
003D00
007C00
00B800
00B800
00F400
00F000
01F000
02E000
02E000
03D000
07C000
07C000
0B8000
0F4000
0F4000
1F0000
1E0000
2E0000
3D0000
3D0000
7C0000
B80000
ENDCHAR
STARTCHAR zero
ENCODING 48
SWIDTH 546 0
DWIDTH 17 0
BBX 18 24 0 0
BITMAP
00006FE400
0007FFFE00
001FF4BF40
007FD03FC0
00FF802FD0
02FF002FE0
07FE002FE0
0BFC002FE0
0FF8002FE0
1FF8002FE0
2FF4003FE0
3FF0003FD0
3FF0007FD0
7FE0007FC0
7FE000BF80
7FE000FF40
7FD001FF00
7FD002FE00
3FD003FC00
3FE007F800
2FF00FE000
0FF47FC000
07FFFE0000
00BFE40000
ENDCHAR
STARTCHAR one
ENCODING 49
SWIDTH 317 0
DWIDTH 10 0
BBX 10 23 0 0
BITMAP
000070
005BF0
0FFFE0
0FFFE0
007FD0
007FC0
00BFC0
00FF80
00FF40
01FF40
02FF00
02FE00
03FE00
07FD00
07FC00
0BFC00
0FF800
0FF400
1FF400
2FF000
2FE000
3FE000
7FD000
ENDCHAR
STARTCHAR two
ENCODING 50
SWIDTH 492 0
DWIDTH 16 0
BBX 16 25 -1 -1
BITMAP
0006FE80
002FFFF4
00BD0BFC
01F803FE
02F403FF
02F402FF
02F802FF
01FE03FF
00B907FE
00000BFC
00001FF4
00003FD0
0000FF40
0003FD00
000FE000
003F8000
00FD0000
02F40000
0BD00000
1F840008
3FFFEABD
7FFFFFFD
7FFFFFF8
795AFFE0
00001540
ENDCHAR
STARTCHAR three
ENCODING 51
SWIDTH 514 0
DWIDTH 16 0
BBX 16 24 0 0
BITMAP
0006FF90
002FFFF4
00BE07FD
01FC01FE
02FC01FF
02FC01FF
01FE02FE
006407FC
00000FF4
00007FD0
0002FF00
0000BFD0
00002FF4
00001FFC
0BE00BFD
3FF407FE
7F8007FE
BF0007FD
BF000BFC
BE000FF8
BF002FE0
3F80BF80
1FFFFE00
01BFA400
ENDCHAR
STARTCHAR four
ENCODING 52
SWIDTH 476 0
DWIDTH 15 0
BBX 16 24 0 0
BITMAP
0007E400
0003FC00
0003FD00
0007FD00
0007FC00
000BF400
000FF0F0
002FD1F0
003F42E0
00BE03D0
01F807D0
03E00BC0
0B800FC8
2EBFAFFD
7FFFFFFC
FFFFFFF8
6516FFE0
0000BF00
0000FE00
0001FD00
0002FD00
0003FC00
000BF800
000FF800
ENDCHAR
STARTCHAR five
ENCODING 53
SWIDTH 517 0
DWIDTH 17 0
BBX 16 23 0 0
BITMAP
0014001A
003FFFFF
007FFFFF
00BFFFFD
00BD6BF4
00F80000
01F40000
01F40000
02F6FE40
03FFFFE0
03FFFFF4
07802FFC
00000FFD
00000BFD
06A007FD
1FF807FD
3FD007FC
7F400BFC
7F000FF4
7F402FE0
3FD1BFC0
1FFFFE00
02FFA000
ENDCHAR
STARTCHAR six
ENCODING 54
SWIDTH 500 0
DWIDTH 16 0
BBX 17 24 0 0
BITMAP
00006FE400
0007FFFD00
001FF47F00
007FC02F40
01FF402F40
02FE007F00
07FD007900
0FF8000000
1FF4000000
2FF4000000
3FF1BF8000
3FEBFFF400
7FE90BF800
7FF003FD00
7FE002FD00
7FD002FD00
7FD002FD00
7FD003FC00
7FD003F800
3FD00BF400
2FE00FE000
1FF42F8000
07FFFE0000
01BFE00000
ENDCHAR
STARTCHAR seven
ENCODING 55
SWIDTH 464 0
DWIDTH 15 0
BBX 15 24 2 0
BITMAP
1BE40000
7FFE4068
FFFFFFF0
FFFFFFE0
E01AAFC0
40002F40
00007E00
0001FC00
0003F400
000FE000
002FC000
00BF4000
01FE0000
03FD0000
0BF80000
1FF40000
2FF00000
3FE00000
7FD00000
BFD00000
BFD00000
7FD00000
3FE00000
1BD00000
ENDCHAR
STARTCHAR eight
ENCODING 56
SWIDTH 499 0
DWIDTH 16 0
BBX 16 24 0 0
BITMAP
0002BF90
002FFFF8
00BF91FD
01FF00BF
02FE007F
02FE00BF
02FF00FE
02FF81FC
01FFD7F4
00BFFF80
002FFE00
001FFF40
01BFFFD0
0BF4FFF4
2FD03FFC
7F801FFD
BF400BFD
FF4007FD
FF4007FD
FF4007FC
7F800FF4
2FD06FD0
0BFFFF40
01BFE400
ENDCHAR
STARTCHAR nine
ENCODING 57
SWIDTH 489 0
DWIDTH 16 0
BBX 16 24 0 0
BITMAP
0006FE40
007FFFE0
01FD0BF4
07F407FC
0FF003FD
1FD003FD
3FD003FE
3FC003FE
3FC003FE
3FC007FE
3FD00BFE
1FE02FFE
0BFFF7FD
01FE4BFC
00000BFC
00000FF8
00001FF4
1A002FE0
3F407FD0
7E00BF80
BD02FE00
7E5BF800
2FFFE000
06FE4000
ENDCHAR
STARTCHAR colon
ENCODING 58
SWIDTH 267 0
DWIDTH 9 0
BBX 7 13 1 2
BITMAP
02E0
0BF8
0FFC
0FF8
06E0
0000
0000
0000
2F40
7FC0
BFD0
7FC0
2F40
ENDCHAR
STARTCHAR semicolon
ENCODING 59
SWIDTH 276 0
DWIDTH 9 0
BBX 7 16 1 -3
BITMAP
02E0
0BF8
0FFC
0BF8
02E0
0000
0000
0500
3F80
7FC0
7FC0
3FC0
0F40
0B00
1C00
3400
ENDCHAR
STARTCHAR less
ENCODING 60
SWIDTH 358 0
DWIDTH 11 0
BBX 12 11 0 3
BITMAP
00001D
0001FC
001FF4
01FF80
1FF800
BF8000
7F9000
0BF900
01BF90
001FE0
0002D0
ENDCHAR
STARTCHAR equal
ENCODING 61
SWIDTH 515 0
DWIDTH 16 0
BBX 14 11 1 3
BITMAP
0FFFFFF0
0FFFFFE0
1FFFFFE0
1FFFFFD0
00000000
00000000
00000000
7FFFFF40
7FFFFF40
BFFFFF00
FFFFFF00
ENDCHAR
STARTCHAR greater
ENCODING 62
SWIDTH 362 0
DWIDTH 12 0
BBX 11 11 0 3
BITMAP
0A4000
0FE000
07FD00
00BFD0
000BF8
0007FC
006FE4
06FE40
2FE400
BE4000
A40000
ENDCHAR
STARTCHAR question
ENCODING 63
SWIDTH 441 0
DWIDTH 14 0
BBX 13 24 1 0
BITMAP
00AFE400
07FFFE00
1F81FF40
3F00BF80
7F00BF80
7F00BF80
7F80FF40
1F81FE00
0003F800
000FE000
002F8000
00BD0000
01F40000
03E00000
07C00000
0B800000
06400000
00000000
00000000
1F400000
7FD00000
7FE00000
7FD00000
1F400000
ENDCHAR
STARTCHAR at
ENCODING 64
SWIDTH 688 0
DWIDTH 22 0
BBX 22 22 -1 -3
BITMAP
000006FF9000
0001BFFFFD00
0007F9007F40
002FD0000FC0
00BE000007D0
01F80BDA43E0
03F03FFF43E0
0BD0BE2F03E0
0FC1F83F03E0
2F43F43E07D0
2F07E07D0BC0
3F0BD0BC0F80
7E0BD0FC2F40
7E0BD2FCBD00
7E07FE7FF400
7E02F82F9000
3F0000010000
2F80000B0000
1FE401BF0000
0BFFFFFE0000
02FFFFF40000
006BFE400000
ENDCHAR
STARTCHAR A
ENCODING 65
SWIDTH 668 0
DWIDTH 21 0
BBX 22 28 0 -4
BITMAP
000000002FE0
00000001FFF0
0000000BFFE0
0000002F7FE0
000000BD7FD0
000001F47FC0
000007E0BFC0
00000BC0FF80
00002F40FF40
00003F01FF40
01BFFE41FF00
1FFFFFFAFE00
7F83F45BFE00
BF07F003FD00
BF0FE007FC00
192FC00BFC00
003F800BF800
007F400FF800
00FF001FF400
01FE001FF000
02FD002FF000
03FC003FE000
03FC003FD000
07F8007FD000
07F800000000
03F800000000
01F800000000
001400000000
ENDCHAR
STARTCHAR B
ENCODING 66
SWIDTH 641 0
DWIDTH 21 0
BBX 20 25 0 -1
BITMAP
0001AFF900
001BFFFF80
00BF401BF0
07F41503F4
0FD2FF02F8
2F82FE01F8
7F03FE02F8
7E07FD03F4
BD07FC0BE0
7D0BFC7F80
3D0FFFFF80
090FFFFFF0
001FF41FF8
002FF00BFC
002FF007FD
003FE003FD
003FD003FD
007FD007FC
00BFC007FC
00BF800BF8
00FF901FF0
01FF6EBFE0
01FF2FFF80
02FF1FFE00
0000015000
ENDCHAR
STARTCHAR C
ENCODING 67
SWIDTH 497 0
DWIDTH 16 0
BBX 17 25 0 -1
BITMAP
00006FE800
0007FFFF00
001FF90F80
007FF00BC0
00FFD00BC0
02FF800FC0
03FF002F80
0BFE000500
0FFD000000
1FFC000000
2FF8000000
2FF8000000
3FF4000000
3FF0000000
7FF0000000
7FF0000000
7FF0000000
7FF0000000
7FF0000140
3FF4000740
3FFC001E00
1FFFAAF800
0BFFFFE000
02FFFE4000
0015500000
ENDCHAR
STARTCHAR D
ENCODING 68
SWIDTH 663 0
DWIDTH 21 0
BBX 21 25 0 -1
BITMAP
0001AFF90000
001FFFFFD000
01FE401FF400
07F40503FC00
1FC2FF01FE00
3F43FE00FF00
7E03FD00FF40
BD07FD00BF80
BD0BFC00BF80
BD0BF800FF80
7D0FF800FF80
091FF400FF80
001FF001FF40
002FF001FF40
003FE002FF00
003FD003FE00
007FD007FD00
00BFC00BFC00
00BF800FF800
00FF802FF000
01FF407FD000
01FF96FF8000
02FFFFFE0000
03FE7FF80000
000005400000
ENDCHAR
STARTCHAR E
ENCODING 69
SWIDTH 459 0
DWIDTH 15 0
BBX 16 25 0 -1
BITMAP
00006FE0
0002FFFC
000FF47D
002FC02E
007F802E
00BF407D
00BF40BC
00BF4010
00BF8000
003FD000
001FF800
007FE400
02FF8000
0BFE0000
1FFC0000
3FF40000
7FF00000
BFF00000
BFF00005
BFF0001C
BFF800B4
7FFEABD0
2FFFFF40
0BFFF800
00554000
ENDCHAR
STARTCHAR F
ENCODING 70
SWIDTH 459 0
DWIDTH 15 0
BBX 20 24 0 0
BITMAP
0006BFFFFD
00BFFFFFF8
03D2FFAFE0
0F43FE0000
2F03FE0000
3E07FD0000
7D0BFC0000
BD0BFC0000
BD0FF80000
BD0FF80000
7D1FFFFC00
192FFFFC00
002FF55400
003FE00000
007FE00000
007FD00000
00BFC00000
00BFC00000
00FF800000
01FF400000
01FF400000
02FF000000
03FE000000
03FE000000
ENDCHAR
STARTCHAR G
ENCODING 71
SWIDTH 578 0
DWIDTH 19 0
BBX 18 31 0 -7
BITMAP
00006FF900
0007FFFF80
002FF90BE0
00BFD003F0
02FF8003F0
07FE0007F0
0FFD000FE0
1FF8000680
2FF4000000
3FF0000000
7FE0000000
7FE0001FD0
7FE0002FC0
7FE0003FC0
7FE0007F80
3FE000FF40
2FF402FF40
1FFD1BFF00
0BFFFEFF00
02FFF6FE00
006A92FD00
001503FD00
00BF87FC00
03FFCBF800
07FADBF400
0BD00FF000
0BC01FE000
0BC02FC000
07E0BF4000
01FFFD0000
006FA00000
ENDCHAR
STARTCHAR H
ENCODING 72
SWIDTH 665 0
DWIDTH 21 0
BBX 22 24 0 0
BITMAP
0001AF802FF0
001BFF802FF0
00BFFF403FE0
02F5FF403FD0
0FD2FF007FD0
2F42FE00BFC0
7F03FE00BF80
7E07FD00FF80
BD07FC00FF40
7D0BFC01FF40
3D0FFFFFFF00
190FFFFFFE00
001FF957FE00
002FF007FD00
002FF007FC00
003FE00BFC00
007FD00FF800
007FD00FF800
00BFC01FF400
00BF801FF000
00FF802FF000
01FF403FE000
01FF003FD000
02FF007FD000
ENDCHAR
STARTCHAR I
ENCODING 73
SWIDTH 375 0
DWIDTH 12 0
BBX 13 24 0 0
BITMAP
0001AF80
001FFF40
01BEFF40
07E2FF00
1F82FE00
3F03FE00
7E07FD00
BD07FC00
BD0BFC00
BD0FF800
3D0FF400
051FF400
002FF000
002FF000
003FE000
007FD000
007FD000
00BFC000
00BF8000
00FF8000
01FF4000
01FF0000
02FF0000
03FE0000
ENDCHAR
STARTCHAR J
ENCODING 74
SWIDTH 536 0
DWIDTH 17 0
BBX 19 31 0 -7
BITMAP
0000001BF4
000002FFF4
00001FEFF0
00007E2FE0
0001F83FE0
0007E07FD0
000BD07FC0
000FC0BFC0
000FC0FF80
000BC0FF80
0007C1FF40
000042FF00
000002FF00
000003FE00
000007FD00
000007FD00
00000BFC00
00000FFC00
00000FF800
00001FF400
00002FF400
01502FF000
0BFD3FE000
2FFE7FE000
7FAA7FD000
7E00BFC000
7D00FF8000
7D01FF0000
3F47FD0000
1FFFF40000
06FE400000
ENDCHAR
STARTCHAR K
ENCODING 75
SWIDTH 601 0
DWIDTH 19 0
BBX 21 25 0 -1
BITMAP
0001AF801F80
001FFF407F00
00BEFF40FD00
07E2FF02F400
1FC2FE07E000
2F43FE0F8000
7E07FD2F0000
BD07FD7D0000
BD0BFCF40000
BD0FFAD00000
7D0FFF800000
191FFFFE4000
002FF5BFC000
002FF03FD000
003FE03FD000
007FD03FD000
007FD03FC000
00BFC07FC000
00BF80BF8000
00FF80FF4000
01FF41FF0000
01FF01FF0000
02FF02FF0000
03FE01FF4000
000000550000
ENDCHAR
STARTCHAR L
ENCODING 76
SWIDTH 379 0
DWIDTH 12 0
BBX 21 32 0 -8
BITMAP
0001AF800000
001FFF400000
01BEFF400000
07E2FF000000
1F82FE000000
3F03FE000000
7E07FD000000
BD07FC000000
BD0BFC000000
BD0FF8000000
3D0FF4000000
051FF4000000
002FF0000000
002FF0000000
003FE0000000
007FD0000000
007FD0000000
00BFC0000000
00FF80000000
00FF80000000
01FF40000000
01FF00000000
02FF00000000
03FF80000000
02AFF8000000
0006FF400000
00007FE40000
00000BFE4040
000002FFFFC0
0000007FFF80
0000000BFF40
00000001BD00
ENDCHAR
STARTCHAR M
ENCODING 77
SWIDTH 787 0
DWIDTH 25 0
BBX 24 24 2 0
BITMAP
0002BF8003FE
002FFF8007FE
01F9FF800FFD
07D1FF801FFD
1F82FF802FFC
3F03FF803FFC
7E07FF80BFF8
BD0BFF40FFF8
BD1FFF41FFF8
BD2FFF42FFF4
2D3EFF47EFF4
007DFF4BEFF0
00BCFF4FAFF0
00F8FF5F2FF0
01F1FF6E3FE0
02E1FF7D3FE0
03D1FFBC7FD0
07C1FFF47FD0
0F81FFF07FC0
1F41FFE0BFC0
2F01FFD0BFC0
3E01FF80FF80
7D02FF40FF80
BC02FF00FF40
ENDCHAR
STARTCHAR N
ENCODING 78
SWIDTH 668 0
DWIDTH 21 0
BBX 23 24 0 0
BITMAP
0006FE4001FC
007FFF8001F8
02FAFFC002F4
0BD2FFC003F4
2F82FFD003F0
7F03FFE007E0
BE07FFE007E0
BD07FFF00BD0
BD0BFFF40FC0
BD0FDFF40FC0
7E0FCFF81F80
1A1FCBFC1F40
002F87FC2F40
002F43FD3F00
003F43FE3E00
007F02FE7E00
007E01FFBD00
00BD01FFFD00
00FD00FFFC00
00FC00BFF800
01F8007FF800
02F8007FF400
02F4003FF000
03F0002FF000
ENDCHAR
STARTCHAR O
ENCODING 79
SWIDTH 665 0
DWIDTH 21 0
BBX 21 24 0 0
BITMAP
00006BFE8000
0007FFFFF400
007F9006FD00
02FD0A90FF00
0BE07F80BF40
1FC1FE007F80
3F43FD007FC0
7E0BF8007FC0
7E1FF4007FC0
7D2FF0007FC0
3D3FE000BF80
05BFD000BF80
00BFC000FF40
00FF8001FF40
01FF8002FF00
01FF4003FE00
01FF4007FD00
02FF400BF800
02FF401FF000
01FF403FD000
00FF80BF8000
00BFEBFE0000
003FFFF40000
0006FE400000
ENDCHAR
STARTCHAR P
ENCODING 80
SWIDTH 573 0
DWIDTH 18 0
BBX 19 24 0 0
BITMAP
0001AFE800
001FFFFF80
01BE401FE0
07E00507F4
1F82FF03F8
3F43FE02FC
7E03FD02FC
BD07FD02FC
BD0BFC03F8
BD0BF807F4
7D0FF80BE0
051FF41FC0
001FF07F40
002FF6F800
003FFF9000
003FD00000
007FD00000
00BFC00000
00BF800000
00FF800000
01FF400000
01FF000000
02FF000000
03FE000000
ENDCHAR
STARTCHAR Q
ENCODING 81
SWIDTH 665 0
DWIDTH 21 0
BBX 21 28 0 -4
BITMAP
00006BFE8000
0007FFFFF400
007F9006FD00
02FD0A90FF00
0BE07F80BF40
1FC1FF007F80
3F43FD007FC0
7E0BF8007FC0
7E1FF4007FC0
7D2FF0007FC0
3D3FE000BF80
05BFD000BF80
00BFC000FF40
00FF8001FF40
01FF8002FF00
01FF4003FE00
01FF4007FC00
02FF400BF800
02FF401FF000
01FFBE7FD000
00FFD7FF4000
00BFFFFD0000
003FFFFD0000
0006FEFF0000
0000007FE400
0000003FFD00
0000001FF800
000000015000
ENDCHAR
STARTCHAR R
ENCODING 82
SWIDTH 601 0
DWIDTH 19 0
BBX 19 25 0 -1
BITMAP
0001AFE900
001FFFFF80
01BE401BE0
07F41603F4
1FC2FE02F8
3F43FE02F8
7E07FD03F4
BD07FC07F0
BD0BFC1FD0
BD0FF87F40
3D0FFFFE00
051FFFFFC0
001FF07FD0
002FF03FD0
003FE03FD0
003FD03FD0
007FD07FC0
00BFC07F80
00BF80BF80
00FF80FF40
01FF41FF00
01FF01FF00
02FF02FF00
03FE01FF80
0000005500
ENDCHAR
STARTCHAR S
ENCODING 83
SWIDTH 570 0
DWIDTH 18 0
BBX 17 25 1 -1
BITMAP
0001BFE400
000BFFFD00
003FE07F40
00BF801F80
00FF801F80
00FF802F80
00FF807F40
00FFD02900
007FF00000
003FFC0000
001FFE0000
0007FF8000
0002FFE000
0000BFF400
06E43FF800
2FFC1FFC00
7FE40BFD00
BF4007FD00
FF0007FD00
FE000BFC00
BF000FF800
7F802FE000
2FFAFF8000
07FFF90000
0055400000
ENDCHAR
STARTCHAR T
ENCODING 84
SWIDTH 481 0
DWIDTH 15 0
BBX 23 24 0 0
BITMAP
0006BFE40004
00BFFFFF906C
07FFFFFFFFF8
0FE42FFFFFF4
2F802FF6BF90
7F003FE00000
BE007FE00000
BD007FD00000
BD00BFC00000
BD00FFC00000
7D00FF800000
1901FF400000
0002FF400000
0002FF000000
0003FE000000
0003FE000000
0007FD000000
000BFC000000
000BFC000000
000FF8000000
001FF4000000
001FF4000000
002FF0000000
003FE0000000
ENDCHAR
STARTCHAR U
ENCODING 85
SWIDTH 716 0
DWIDTH 23 0
BBX 25 24 0 0
BITMAP
0001AFD001FF40
002FFFD001FF00
02F9BFC002FF00
0BD0BF8003FE00
2F40FF8003FD00
7E01FF4007FD00
FD02FF000BFC00
FC02FE000BF800
FC03FD000FF800
FC07FD001FF400
7D0BFC001FF000
050BF8002FF000
000FF4003FE000
001FF0003FE000
002FF0007FD000
002FE000BFC000
003FD000BF8000
003FD001FF4000
003FD002FF0000
003FD007FD0000
002FF41FF80000
001FFFFFE00000
0007FFFF800000
0000AFE8000000
ENDCHAR
STARTCHAR V
ENCODING 86
SWIDTH 615 0
DWIDTH 20 0
BBX 22 24 0 0
BITMAP
0001AF8001E0
001FFF8002D0
01BDFF8003C0
07E0FF800780
1F80FF800B40
3F00FF800F00
7E00FF802E00
BD00FF803D00
BD00FF807800
BD00FFC0B400
3D00FFC0F000
0500FFC1E000
0000BFC2D000
0000BFC3C000
0000BFC78000
0000BFCB4000
0000BFCF0000
0000BFDD0000
0000BFEC0000
0000BFF80000
0000BFF40000
0000BFF00000
0000BFE00000
0000BFD00000
ENDCHAR
STARTCHAR W
ENCODING 87
SWIDTH 962 0
DWIDTH 31 0
BBX 33 24 0 0
BITMAP
0001AF8001FE0007C0
001FFF8002FE000B40
01BDFF8003FE000F00
07E0FF8007FE001E00
1F80FF800BFF002D00
3F00FF800FFF003C00
7E00FF802FFF007800
BD00FF803FFF00B400
BD00FF807FFF00F000
BD00FFC0B6FF01E000
3D00FFC0F2FF02C000
0500FFC1E2FF038000
0000BFC2D2FF074000
0000BFC3C2FF0B0000
0000BFC782FF0E0000
0000BFCB42FF1D0000
0000BFCF02FF3C0000
0000BFDD02FF780000
0000BFEC02FFB00000
0000BFF802FFE00000
0000BFF402FFD00000
0000BFF002FFC00000
0000BFE002FF800000
0000BFD001FF400000
ENDCHAR
STARTCHAR X
ENCODING 88
SWIDTH 620 0
DWIDTH 20 0
BBX 20 24 0 0
BITMAP
0001AF801E
001FFFC03D
01BDFFD0B8
07E0BFD0F0
1F80BFE2D0
3F007FE7C0
7E003FFB40
BD003FFE00
BD002FFD00
BD002FF800
3D001FFC00
05000FFC00
00000FFD00
00000BFD00
00001FFE00
00003FFF00
00007BFF00
0000F2FF40
0002D2FF80
000781FF80
000B41FFC0
001E00FFC0
003C00BFD0
007800BFE0
ENDCHAR
STARTCHAR Y
ENCODING 89
SWIDTH 620 0
DWIDTH 20 0
BBX 22 24 0 0
BITMAP
0001AF8000F0
001FFFC001E0
01BDFFD002D0
07E0BFE00780
1F807FE00B40
3F007FF00F00
7E003FF41D00
BD002FF83C00
BD001FF87800
BD001FFCB000
3D000FFDE000
05000BFFD000
000007FF8000
000003FF4000
000003FF0000
000007FE0000
000007FE0000
00000BFD0000
00000FFD0000
00000FFC0000
00001FF80000
00002FF80000
00002FF40000
00003FF00000
ENDCHAR
STARTCHAR Z
ENCODING 90
SWIDTH 542 0
DWIDTH 17 0
BBX 18 24 0 0
BITMAP
007FFFFFD0
02FFFFFFC0
03F002FF40
07F407FF00
03F00BFD00
00401FFC00
00002FF400
00007FF000
0000BFD000
0001FFC000
0002FF4000
0007FF0000
000BFD0000
001FFC0000
002FF40000
007FF00000
00FFD00000
01FFC00000
03FF401400
07FF007E00
0FFD007F00
1FFC007E00
3FFFFFFC00
7FFFFFE000
ENDCHAR
STARTCHAR bracketleft
ENCODING 91
SWIDTH 400 0
DWIDTH 13 0
BBX 14 32 0 -8
BITMAP
000BFFD0
000BFFC0
000FD000
001FC000
001FC000
002F8000
003F4000
003F4000
007F0000
007E0000
00BE0000
00FD0000
00FC0000
01FC0000
02F80000
02F80000
03F40000
07F00000
07F00000
0BE00000
0BD00000
0FD00000
1FC00000
1F800000
2F800000
3F400000
3F400000
7F000000
7E000000
BE000000
FFF80000
FFF80000
ENDCHAR
STARTCHAR backslash
ENCODING 92
SWIDTH 362 0
DWIDTH 12 0
BBX 10 32 1 -8
BITMAP
B80000
7C0000
3D0000
3D0000
2E0000
1E0000
1F0000
0F4000
0F4000
0B8000
07C000
07C000
03D000
02E000
02E000
01F000
00F000
00F400
00B800
00B800
007C00
003D00
003D00
002E00
001F00
001F00
000F40
000B40
000B80
0007C0
0007C0
0003D0
ENDCHAR
STARTCHAR bracketright
ENCODING 93
SWIDTH 400 0
DWIDTH 13 0
BBX 14 32 -2 -8
BITMAP
0007FFE0
0007FFD0
00000FC0
00001FC0
00002F80
00002F40
00003F40
00007F00
00007F00
0000BE00
0000BD00
0000FD00
0001FC00
0001F800
0002F800
0003F400
0003F400
0007F000
000BE000
000BE000
000FD000
000FC000
001FC000
002F8000
002F4000
003F4000
007F0000
007F0000
00BE0000
00FD0000
BFFD0000
BFFC0000
ENDCHAR
STARTCHAR asciicircum
ENCODING 94
SWIDTH 421 0
DWIDTH 13 0
BBX 9 6 2 18
BITMAP
001D00
007E00
01FF00
0BEF40
2E4740
A40180
ENDCHAR
STARTCHAR underscore
ENCODING 95
SWIDTH 444 0
DWIDTH 14 0
BBX 12 2 1 0
BITMAP
7FFFFE
BFFFFE
ENDCHAR
STARTCHAR grave
ENCODING 96
SWIDTH 201 0
DWIDTH 6 0
BBX 4 6 1 18
BITMAP
FD
BD
7E
2E
1E
0F
ENDCHAR
STARTCHAR a
ENCODING 97
SWIDTH 526 0
DWIDTH 17 0
BBX 19 16 -1 0
BITMAP
000BF9FF40
007FFFFF00
01FF47FE00
03FD03FE00
0BFC07FD00
1FF407FD00
2FF00BFC00
3FE00BF800
3FE00FF800
7FD01FF400
7FD01FF018
7FD03FF028
7FE0BFF070
3FFFEFFFD0
1FFF4FFF80
06F906F900
ENDCHAR
STARTCHAR b
ENCODING 98
SWIDTH 444 0
DWIDTH 14 0
BBX 14 22 -1 0
BITMAP
006FC000
00BF8000
00FF8000
01FF4000
01FF0000
02FF0000
03FEBE40
03FFFFD0
07FD0FE0
0BFC07F0
0BF807F0
0FF807F0
1FF407F0
1FF007E0
2FF00BE0
3FE00FD0
3FE01FC0
3FD03F80
7FE0BF00
3FFFFC00
1FFFF000
06FE4000
ENDCHAR
STARTCHAR c
ENCODING 99
SWIDTH 384 0
DWIDTH 12 0
BBX 14 16 -1 0
BITMAP
000AFD00
007FFF40
01FF4F80
03FD0B80
0BFC0F40
1FF40000
2FF00000
3FE00000
3FE00000
7FD00000
7FD00060
7FD001D0
7FE00B80
3FFFFE00
1FFFF400
06FE4000
ENDCHAR
STARTCHAR d
ENCODING 100
SWIDTH 525 0
DWIDTH 17 0
BBX 19 22 -1 0
BITMAP
0000002BE0
0000007FD0
0000007FC0
000000BFC0
000000FF80
000000FF40
000BF9FF40
007FFFFF00
01FF47FF00
03FD03FE00
0BFC07FD00
1FF407FD00
2FF00BFC00
3FE00FF800
3FE00FF800
7FD01FF400
7FD01FF018
7FD03FF028
7FE0BFF074
3FFFEFFFE0
1FFF4FFF80
06F906F900
ENDCHAR
STARTCHAR e
ENCODING 101
SWIDTH 384 0
DWIDTH 12 0
BBX 14 16 -1 0
BITMAP
000AF900
007FFF40
01FF4F80
03FD0B80
0BFC0F80
1FF41F40
2FF07E00
3FE2F800
3FFFE000
7FFA4000
7FD00010
7FD000A0
7FE00780
3FFFFE00
1FFFF800
06FE8000
ENDCHAR
STARTCHAR f
ENCODING 102
SWIDTH 267 0
DWIDTH 9 0
BBX 20 32 -7 -8
BITMAP
0000002F90
000001FFF8
000007FFFC
00000BFD1D
00000FF819
00001FF400
00002FF000
00002FF000
00003FFF00
00003FE000
00007FD000
0000BFC000
0000BF8000
0000FF8000
0001FF4000
0001FF4000
0002FF0000
0003FE0000
0003FE0000
0007FD0000
0007FC0000
000BFC0000
000FF80000
001FF40000
01BFF40000
1E6FF00000
382FF00000
743FE00000
B4BFD00000
BFFF800000
3FFF000000
0BE4000000
ENDCHAR
STARTCHAR g
ENCODING 103
SWIDTH 507 0
DWIDTH 16 0
BBX 19 24 -1 -8
BITMAP
000BF9FF40
007FFFFF00
01FF47FE00
03FD03FE00
0BFC07FD00
1FF407FD00
2FF00BFC00
3FE00FF800
3FE00FF800
7FD01FF400
7FD02FF024
7FD03FF070
7FE0BFE0E0
3FFFFFD2C0
1FFFBFEF40
06F9BFF800
0006FFC000
002FFF8000
00F9FF4000
02D1FF0000
03C2FE0000
03C7FD0000
01FFF80000
006F900000
ENDCHAR
STARTCHAR h
ENCODING 104
SWIDTH 505 0
DWIDTH 16 0
BBX 19 22 -1 0
BITMAP
006BC00000
00BF800000
00FF800000
01FF400000
01FF000000
02FF000000
03FE6F9000
03FEFFF400
07FFFFF800
0BFE0FF800
0BFC0BF800
0FF80FF800
1FF40FF400
1FF41FF000
2FF02FF000
2FE02FE000
3FE03FD024
7FD03FD070
7FC07FD1E0
BFC03FFFC0
FF802FFF40
FF400BF800
ENDCHAR
STARTCHAR i
ENCODING 105
SWIDTH 267 0
DWIDTH 9 0
BBX 11 22 -1 0
BITMAP
006E00
00FF80
00FFC0
00FF80
006E00
000000
03FE00
03FD00
07FD00
0BFC00
0BF800
0FF800
1FF400
1FF400
2FF000
3FE000
3FE028
7FD034
7FE1E0
3FFFD0
2FFF40
0BE400
ENDCHAR
STARTCHAR j
ENCODING 106
SWIDTH 240 0
DWIDTH 8 0
BBX 16 30 -7 -8
BITMAP
000007E0
00001FF4
00001FF8
00001FF4
000007E0
00000000
00003FE0
00003FE0
00007FD0
0000BFC0
0000BFC0
0000FF80
0001FF40
0001FF40
0002FF00
0002FF00
0003FE05
0007FD0A
0007FD0D
000BFC28
000FF8A0
000FFF40
006FF800
07FFF000
1FAFF000
3D3FE000
743FD000
74BF8000
3FFF0000
0BF80000
ENDCHAR
STARTCHAR k
ENCODING 107
SWIDTH 518 0
DWIDTH 17 0
BBX 19 23 -1 0
BITMAP
0000400000
006FC00000
00BF800000
00FF800000
01FF400000
01FF000000
02FF000000
03FE00BD00
03FD02E000
07FD1F8000
0BFC7D0000
0BFEFA4000
0FFFFFD000
1FFFFFF000
1FF92FF400
2FF01FF400
2FE02FF000
3FE02FF018
7FD03FE034
7FC03FE0B0
BFC03FFFD0
FF801FFF40
FF4006F900
ENDCHAR
STARTCHAR l
ENCODING 108
SWIDTH 267 0
DWIDTH 9 0
BBX 11 23 -1 0
BITMAP
000040
00BFC0
00FF80
00FF80
01FF40
01FF00
02FF00
03FE00
03FD00
07FD00
0BFC00
0BF800
0FF800
1FF400
1FF400
2FF000
3FE000
3FE028
7FD034
7FE1E0
3FFFC0
2FFF40
0BE400
ENDCHAR
STARTCHAR m
ENCODING 109
SWIDTH 752 0
DWIDTH 24 0
BBX 27 16 -1 0
BITMAP
03FE6F906F9000
03FEFFF5FFF000
07FFFFFBFFF400
0BFE0FFE0FF800
0BFC0FFC0FF800
0FF80FF80FF400
1FF41FF41FF400
1FF41FF01FF000
2FF02FF02FE000
3FE03FE03FD000
3FE03FD03FD024
7FD07FD07FC070
7FC0BFC07FD1D0
BFC0BF803FFFC0
FF80FF802FFF00
FF41FF400BF800
ENDCHAR
STARTCHAR n
ENCODING 110
SWIDTH 505 0
DWIDTH 16 0
BBX 19 16 -1 0
BITMAP
03FE6F9000
03FEFFF400
07FFFFF800
0BFE0FF800
0BFC0BF800
0FF80FF800
1FF40FF400
1FF41FF000
2FF02FF000
3FE02FE000
3FE03FD024
7FD03FD070
7FC07FD1E0
BFC03FFFC0
FF802FFF40
FF400BF800
ENDCHAR
STARTCHAR o
ENCODING 111
SWIDTH 439 0
DWIDTH 14 0
BBX 19 16 -1 0
BITMAP
0006FD0000
007FFF8000
01FF4BC000
03FD07D008
0BFC0FD1B4
1FF40FFF90
2FF00BE400
3FE007C000
3FE00BC000
7FD00F8000
7FD01F4000
7FD03F0000
7FE0BD0000
3FFFF80000
1FFFE00000
06FE400000
ENDCHAR
STARTCHAR p
ENCODING 112
SWIDTH 468 0
DWIDTH 15 0
BBX 17 25 -3 -8
BITMAP
002FF00000
003FE6F900
003FFFFF40
007FE0BF80
00BFC07FC0
00BF807FC0
00FF807FC0
01FF407FC0
01FF00BFC0
02FF00BF80
03FE00FF80
03FE01FF40
07FD03FE00
07FD0BFD00
0BFFBFF800
0FFFFFE000
0FFAFE4000
1FF4000000
2FF0000000
2FE0000000
3FE0000000
7FD0000000
7FC0000000
BF80000000
5000000000
ENDCHAR
STARTCHAR q
ENCODING 113
SWIDTH 486 0
DWIDTH 16 0
BBX 17 24 -1 -8
BITMAP
000BF9FF40
007FFFFF00
01FF47FE00
03FD03FE00
0BFC07FD00
1FF407FC00
2FF00BFC00
3FE00FF800
3FE00FF400
7FD01FF400
7FD02FF000
7FD03FF000
7FE0BFE000
3FFFFFD000
1FFFBFD000
06F9BFC000
0000FF8000
0000FF8000
0001FF4000
0001FF0000
0002FF0000
0003FE0000
0003F90000
0006400000
ENDCHAR
STARTCHAR r
ENCODING 114
SWIDTH 376 0
DWIDTH 12 0
BBX 14 16 -1 0
BITMAP
03FE2F80
03FEBFD0
07FFFFD0
0BFE1FD0
0BFC0B80
0FF80000
1FF40000
1FF40000
2FF00000
3FE00000
3FE00000
7FD00000
7FC00000
BFC00000
FF800000
FF400000
ENDCHAR
STARTCHAR s
ENCODING 115
SWIDTH 382 0
DWIDTH 12 0
BBX 14 17 -1 0
BITMAP
001AB400
002FF400
003FF400
007FF800
00AFF800
01DFF800
02CFF800
034FF800
0B0FFC00
0D0BFC00
3E0BFC00
BE0BFC70
E40BFEC0
F00FFE00
B42FF400
3FFFD000
0BF90000
ENDCHAR
STARTCHAR t
ENCODING 116
SWIDTH 267 0
DWIDTH 9 0
BBX 11 21 -1 0
BITMAP
006A80
00FF80
01FF40
01FF00
02FF00
0FFFE0
07FE00
07FD00
0BFC00
0BF800
0FF800
1FF400
1FF400
2FF000
3FE000
3FE028
7FD034
7FE1E0
3FFFD0
2FFF40
0BE400
ENDCHAR
STARTCHAR u
ENCODING 117
SWIDTH 505 0
DWIDTH 16 0
BBX 19 16 -1 0
BITMAP
03FE03FE00
03FD07FD00
07FD07FC00
0BFC0BFC00
0BF80FF800
0FF80FF800
1FF41FF400
1FF42FF000
2FF02FF000
3FE03FE000
3FE07FD024
7FD0BFD070
7FE2FFE1D0
3FFFBFFF80
2FFE2FFE00
0BE40BE400
ENDCHAR
STARTCHAR v
ENCODING 118
SWIDTH 414 0
DWIDTH 13 0
BBX 14 16 -1 0
BITMAP
03FE0B80
03FD1FE0
07FD0FE0
0BFC00E0
0BF801E0
0FF801D0
1FF402D0
1FF403C0
2FF00780
3FE00F40
3FE01F00
7FD03D00
7FE1F800
3FFFF000
2FFF8000
07F90000
ENDCHAR
STARTCHAR w
ENCODING 119
SWIDTH 661 0
DWIDTH 21 0
BBX 22 16 -1 0
BITMAP
03FE03FE0B80
03FD07FD1FD0
07FD07FC0FE0
0BFC0BFC01E0
0BF80FF801E0
0FF80FF802D0
1FF41FF402D0
1FF42FF003C0
2FF02FF00B80
3FE03FE00F40
3FE07FD02F00
7FD0BFD07D00
7FE1FFD1F800
3FFFBFFFF000
2FFE2FFF8000
0BE40BF90000
ENDCHAR
STARTCHAR x
ENCODING 120
SWIDTH 522 0
DWIDTH 17 0
BBX 18 17 0 0
BITMAP
0000007D00
002FD0FE00
00FFF4BF00
02FFF80F00
074BFC1E00
0E07FC7C00
1C03FDF400
3803FFD000
7403FF4000
B002FE0000
A007FE0000
400FFF0060
003DFF00A0
00F4FF82C0
02D0BFFF40
0B403FFD00
2E001BE000
ENDCHAR
STARTCHAR y
ENCODING 121
SWIDTH 486 0
DWIDTH 16 0
BBX 18 24 -1 -8
BITMAP
03FE03FE00
03FD07FD00
07FD07FC00
0BFC0BFC00
0BF80FF800
0FF80FF400
1FF41FF400
1FF42FF000
2FF02FF000
3FE03FE000
3FE07FD0A0
7FD0BFD0D0
7FE2FFC2C0
3FFFFF8740
2FFEFFAD00
0BE5FFE400
000BFF4000
00BFFF0000
02E3FE0000
0783FD0000
0B4BFC0000
0BAFF80000
07FFE00000
01BE400000
ENDCHAR
STARTCHAR z
ENCODING 122
SWIDTH 428 0
DWIDTH 14 0
BBX 14 16 0 0
BITMAP
01FFFFD0
07FFFFC0
0F81FF40
1FC2FE00
0A47FD00
000FF800
001FF000
003FD000
00BFC000
01FF4000
02FE0000
07FD0A00
0FF82F40
2FF41F40
3FFFFE00
BFFFF400
ENDCHAR
STARTCHAR braceleft
ENCODING 123
SWIDTH 352 0
DWIDTH 11 0
BBX 12 32 1 -8
BITMAP
0001BE
000BFE
001FD0
003F80
007F40
007F00
00BF00
00BE00
00BE00
00FE00
00FD00
00FD00
00FD00
01FC00
02F400
7FD000
7F8000
07E000
07F000
07E000
0BE000
0FD000
1FC000
1FC000
2F8000
3F4000
7F4000
7F4000
BF4000
7F8000
2FE000
06F000
ENDCHAR
STARTCHAR bar
ENCODING 124
SWIDTH 532 0
DWIDTH 17 0
BBX 3 32 7 -8
BITMAP
FC
FC
FC
FC
FC
FC
FC
FC
FC
FC
FC
FC
FC
FC
FC
FC
FC
FC
FC
FC
FC
FC
FC
FC
FC
FC
FC
FC
FC
FC
FC
FC
ENDCHAR
STARTCHAR braceright
ENCODING 125
SWIDTH 352 0
DWIDTH 11 0
BBX 12 32 -2 -8
BITMAP
001F90
001FF4
0007FC
0002FD
0002FD
0002FC
0002F8
0003F8
0003F4
0007F0
000BE0
000FD0
000FC0
000FC0
000FC0
0007FD
0007FC
002F80
007F00
00BF00
00BE00
00BE00
00BE00
00FE00
00FD00
01FD00
01FC00
02FC00
03F800
0BF400
FFD000
FE4000
ENDCHAR
STARTCHAR asciitilde
ENCODING 126
SWIDTH 431 0
DWIDTH 14 0
BBX 12 4 2 18
BITMAP
015400
2FFFAA
BFFFFD
41AFE0
ENDCHAR
STARTCHAR uni00A0
ENCODING 160
SWIDTH 217 0
DWIDTH 7 0
BBX 1 1 0 0
BITMAP
00
ENDCHAR
STARTCHAR exclamdown
ENCODING 161
SWIDTH 219 0
DWIDTH 7 0
BBX 10 24 -2 -8
BITMAP
002F40
007FD0
00BFD0
007FD0
002F40
000000
000000
006800
00BD00
00FC00
01FC00
02F800
02F800
03F400
07F400
0BF000
0FF000
1FE000
1FE000
2FD000
3FD000
7FD000
BFC000
A94000
ENDCHAR
STARTCHAR cent
ENCODING 162
SWIDTH 384 0
DWIDTH 12 0
BBX 14 24 0 -1
BITMAP
00007400
00007000
0000B000
0001F900
001FFF80
00BFDBD0
02F6CBD0
0BE38BD0
1FC38B80
3F874000
7F4B0000
BF4B0000
BF0E0000
BF1D0000
BF5C0000
BF6C0000
7FF81800
2FFFF800
0BFFF400
01FF9000
00A00000
00E00000
01D00000
01C00000
ENDCHAR
STARTCHAR sterling
ENCODING 163
SWIDTH 455 0
DWIDTH 15 0
BBX 17 24 0 0
BITMAP
00001BF800
0000BFFF00
0003FD2F40
000BF82F40
000FF43F00
001FF02900
002FE00000
003FD00000
003FD00000
007FC00000
2FFFFFD000
2FFFFFC000
00FF400000
00FF000000
01FF000000
02FE000000
02FE000000
03FD000000
07F8000100
0BE0001E00
0FFFFFFE00
2FFFFFFE00
7FFFFFFC00
5401AFE000
ENDCHAR
STARTCHAR currency
ENCODING 164
SWIDTH 500 0
DWIDTH 16 0
BBX 12 12 2 5
BITMAP
200008
B9BE6E
2FFFF8
1F41F4
2D0078
3C002C
3C002C
2D0078
1F41F4
2FFFF8
B9BE6E
200008
ENDCHAR
STARTCHAR yen
ENCODING 165
SWIDTH 558 0
DWIDTH 18 0
BBX 17 24 2 0
BITMAP
1FF8000F40
1FFC001E00
0FFD002D00
0BFE003C00
07FE00B400
07FF00F000
03FF41E000
02FF42C000
01FF878000
01FFCB4000
00FFDE0000
00BFED0000
007FFC0000
007FF80000
0ABFFAA000
1FFFFFF000
007FE00000
00BFD00000
3FFFFFD000
7FFFFFC000
01FFC00000
02FF800000
02FF400000
03FF000000
ENDCHAR
STARTCHAR brokenbar
ENCODING 166
SWIDTH 532 0
DWIDTH 17 0
BBX 3 32 7 -8
BITMAP
FC
FC
FC
FC
FC
FC
FC
FC
FC
FC
FC
FC
FC
FC
00
00
00
FC
FC
FC
FC
FC
FC
FC
FC
FC
FC
FC
FC
FC
FC
FC
ENDCHAR
STARTCHAR section
ENCODING 167
SWIDTH 542 0
DWIDTH 17 0
BBX 17 25 0 -1
BITMAP
00001BF900
0001FD0B40
0007F40780
000BF00B80
000FF00F40
000FF00400
000FF80000
007FFE0000
01F6FF8000
03F0BFF000
07F82FFC00
07FE07FE00
03FF81FF00
01FFE0BF00
007FF87F00
001FFD3F00
0007FF7E00
1B81FFFC00
3FD0FFE000
BE00BF4000
BD00BF4000
BD00BF0000
7E01FD0000
3FEBF80000
06FE900000
ENDCHAR
STARTCHAR dieresis
ENCODING 168
SWIDTH 392 0
DWIDTH 13 0
BBX 10 4 2 18
BITMAP
780B80
FE1FD0
FE1FD0
780B80
ENDCHAR
STARTCHAR copyright
ENCODING 169
SWIDTH 587 0
DWIDTH 19 0
BBX 16 16 1 2
BITMAP
001BF900
01FFFF80
07E406F0
0F46E478
2D2FFE1D
38790B4E
74F00247
74E00007
74E00007
74F00007
387D0B4E
2D2FFE1D
0F46E478
07E406F0
01FFFF80
001BF900
ENDCHAR
STARTCHAR ordfeminine
ENCODING 170
SWIDTH 345 0
DWIDTH 11 0
BBX 9 9 1 14
BITMAP
02FBC0
0F4BC0
2E0F80
3D1F40
7C1F40
BC2F00
BC7F00
7FEF80
2E1A40
ENDCHAR
STARTCHAR guillemotleft
ENCODING 171
SWIDTH 589 0
DWIDTH 19 0
BBX 17 11 1 3
BITMAP
0000100140
0002E01B40
006F41BD00
06F41BD000
6F41BD0000
F407D00000
F907E00000
1F90BE0000
02F90BE000
002E01B800
0005001400
ENDCHAR
STARTCHAR logicalnot
ENCODING 172
SWIDTH 444 0
DWIDTH 14 0
BBX 13 8 0 1
BITMAP
3FFFFF80
7FFFFF40
00007F40
0000BF00
0000FE00
0000FE00
0001FD00
00015400
ENDCHAR
STARTCHAR uni00AD
ENCODING 173
SWIDTH 290 0
DWIDTH 9 0
BBX 8 2 0 7
BITMAP
3FFD
7FFD
ENDCHAR
STARTCHAR registered
ENCODING 174
SWIDTH 553 0
DWIDTH 18 0
BBX 16 16 1 3
BITMAP
006FE400
02FFFF40
0BD00BD0
2E7FE4B4
38756D38
B0700D1D
A0701D0D
E07FF40E
E075B00E
A070340D
B0702C1D
38700D38
2E0000B4
0BD00BD0
02FFFF40
006FE400
ENDCHAR
STARTCHAR macron
ENCODING 175
SWIDTH 446 0
DWIDTH 14 0
BBX 11 2 2 19
BITMAP
7FFFF8
BFFFF8
ENDCHAR
STARTCHAR degree
ENCODING 176
SWIDTH 314 0
DWIDTH 10 0
BBX 8 10 1 12
BITMAP
02F8
0F5E
2D0F
7C0F
B80F
B81E
B81D
B828
78B4
2F90
ENDCHAR
STARTCHAR plusminus
ENCODING 177
SWIDTH 479 0
DWIDTH 15 0
BBX 13 16 1 4
BITMAP
00029000
0007D000
0007C000
000BC000
000F8000
2FFFFFC0
3FFFFFC0
156F5540
002E0000
003E0000
007D0000
007D0000
00540000
00000000
BFFFFD00
FFFFFC00
ENDCHAR
STARTCHAR uni00B2
ENCODING 178
SWIDTH 328 0
DWIDTH 11 0
BBX 9 13 1 11
BITMAP
01FE00
0B5F80
0E0BC0
0F0FC0
050F80
002F40
007D00
01F400
07C000
1E0000
3C0000
7FFF80
7FFE00
ENDCHAR
STARTCHAR uni00B3
ENCODING 179
SWIDTH 336 0
DWIDTH 11 0
BBX 10 14 1 10
BITMAP
01BE00
078BC0
0B47D0
0B87D0
064BC0
002E00
00B900
001F40
1E0FC0
7E0FC0
7C0FC0
780F80
3D2F00
0BF800
ENDCHAR
STARTCHAR acute
ENCODING 180
SWIDTH 316 0
DWIDTH 10 0
BBX 6 6 4 18
BITMAP
07E0
0FC0
1F40
3D00
7800
F000
ENDCHAR
STARTCHAR uni00B5
ENCODING 181
SWIDTH 505 0
DWIDTH 16 0
BBX 21 21 -3 -5
BITMAP
003FE03FE000
003FD07FD000
007FD07FC000
00BFC0BFC000
00BFC0FF8000
00FF80FF8000
01FF41FF4000
01FF42FF0000
02FF02FF0000
03FE03FE0000
03FE07FD0240
07FD0BFD0700
07FE1FFD1E00
0BFFFBFFFC00
0FFFE2FFF000
0FFF40BE4000
1FF400000000
2FF000000000
2FF000000000
3FE000000000
7A4000000000
ENDCHAR
STARTCHAR paragraph
ENCODING 182
SWIDTH 542 0
DWIDTH 17 0
BBX 15 26 2 -2
BITMAP
002BF900
01FFFF80
0BFFFBE0
1FFFF6F0
3FFFF6F0
7FFFF2F4
BFFFF3F0
BFFFE3F0
BFFFD7E0
BFFFD7E0
7FFFCBD0
3FFF8FC0
1FFF9FC0
07FFFF80
007FAF40
003F2F40
007E3F00
00BE7E00
00BD7E00
00FCBD00
01FCFC00
01F8FC00
02F5F800
02F6F400
03F2F400
07E3F000
ENDCHAR
STARTCHAR periodcentered
ENCODING 183
SWIDTH 434 0
DWIDTH 14 0
BBX 6 6 4 5
BITMAP
2F80
BFE0
FFF0
FFF0
BFE0
2F80
ENDCHAR
STARTCHAR cedilla
ENCODING 184
SWIDTH 227 0
DWIDTH 7 0
BBX 8 8 0 -7
BITMAP
0280
0700
0A54
0FFD
00BE
50BD
7FF8
1FD0
ENDCHAR
STARTCHAR uni00B9
ENCODING 185
SWIDTH 229 0
DWIDTH 7 0
BBX 6 15 1 9
BITMAP
0010
05B0
7FE0
7FD0
07D0
0BC0
0F80
0F80
1F40
2F40
2F00
3E00
3E00
7D00
5400
ENDCHAR
STARTCHAR ordmasculine
ENCODING 186
SWIDTH 329 0
DWIDTH 11 0
BBX 9 9 1 14
BITMAP
02F800
1F4E40
3E1E00
7D0D00
BC1D00
BC1C00
BC3400
7FE000
2F8000
ENDCHAR
STARTCHAR guillemotright
ENCODING 187
SWIDTH 586 0
DWIDTH 19 0
BBX 18 11 0 3
BITMAP
0500140000
0B801E0000
02F40BD000
007E41FD00
000BE02F80
0001B402E0
0006F41BD0
007F41FE00
1BE46F9000
7E00F90000
5001400000
ENDCHAR
STARTCHAR onequarter
ENCODING 188
SWIDTH 749 0
DWIDTH 24 0
BBX 23 24 1 0
BITMAP
00100001E000
05B00003D000
7FE0000B8000
7FD0000F4000
07D0002E0000
0BC0007C0000
0F8000B80000
0F8001F00000
1F4003D00000
2F4007800000
2F000F400000
3E002E01E0A4
3E003D01F5F4
7D00B801F6F0
5401F001F3F0
0002E002D3E0
0007C00787D0
000F400B4BD0
001F001FFFF4
003D00155F90
00B800001F80
00F400001F40
02E000002F00
07C000003F00
ENDCHAR
STARTCHAR onehalf
ENCODING 189
SWIDTH 745 0
DWIDTH 24 0
BBX 23 24 1 0
BITMAP
00100001E000
05B00003D000
7FE0000B8000
7FD0000F4000
07D0002E0000
0BC0007C0000
0F8000B80000
0F8001F00000
1F4003D00000
2F4007800000
2F000F400000
3E002E006F90
3E003D01D2F0
7D00B802C1F4
5401F002D2F4
0002E00192F0
0007C00007D0
000F40000F80
001F00003D00
003D0000B400
00B80002D000
00F4000B4000
02E0000FFFF0
07C0000FFFD0
ENDCHAR
STARTCHAR threequarters
ENCODING 190
SWIDTH 836 0
DWIDTH 27 0
BBX 26 24 1 0
BITMAP
01BE00000B8000
078BC0001F0000
0B47D0002E0000
0B87D0007C0000
064BC000F40000
002E0001E00000
00B90003D00000
001F400B800000
1E0FC00F400000
7E0FC02E000000
7C0FC07C000000
780F80B80B8690
3D2F01F007CBC0
0BF803D00BCFC0
000007C00B8F80
00000F400F5F40
00002E001E2F40
00003D00382F00
0000B800BFFFC0
0001F000557E40
0002E000007D00
0007C00000BC00
000F400000FC00
001F000000F800
ENDCHAR
STARTCHAR questiondown
ENCODING 191
SWIDTH 439 0
DWIDTH 14 0
BBX 13 24 -1 -8
BITMAP
00006E00
0000FF80
0000FFC0
0000FF80
00006E00
00000000
00000000
00002800
00003C00
00007800
0000F400
0002E000
000BC000
007F4000
01FD0000
0BF40000
1FE07F00
3FD07F80
7FC02F80
7FC01F80
7FD02F40
3FE07E00
1FFFF800
02FF9000
ENDCHAR
STARTCHAR Agrave
ENCODING 192
SWIDTH 668 0
DWIDTH 21 0
BBX 22 35 0 -4
BITMAP
00000001FC00
00000000FC00
00000000BD00
000000007D00
000000003E00
000000002E00
000000000000
000000002FE0
00000001FFF0
0000000BFFE0
0000002F7FE0
000000BD7FD0
000001F47FC0
000007E0BFC0
00000BC0FF80
00002F40FF40
00003F01FF40
01BFFE41FF00
1FFFFFFAFE00
7F83F45BFE00
BF07F003FD00
BF0FE007FC00
192FC00BFC00
003F800BF800
007F400FF800
00FF001FF400
01FE001FF000
02FD002FF000
03FC003FE000
03FC003FD000
07F8007FD000
07F800000000
03F800000000
01F800000000
001400000000
ENDCHAR
STARTCHAR Aacute
ENCODING 193
SWIDTH 668 0
DWIDTH 21 0
BBX 25 36 0 -4
BITMAP
00000000001A40
00000000007F00
0000000000BD00
0000000001F800
0000000002F000
0000000003D000
00000000064000
00000000000000
000000002FE000
00000001FFF000
0000000BFFE000
0000002F7FE000
000000BD7FD000
000001F47FC000
000007E0BFC000
00000BC0FF8000
00002F40FF4000
00003F01FF4000
01BFFE41FF0000
1FFFFFFAFE0000
7F83F45BFE0000
BF07F003FD0000
BF0FE007FC0000
192FC00BFC0000
003F800BF80000
007F400FF80000
00FF001FF40000
01FE001FF00000
02FD002FF00000
03FC003FE00000
03FC003FD00000
07F8007FD00000
07F80000000000
03F80000000000
01F80000000000
00140000000000
ENDCHAR
STARTCHAR Acircumflex
ENCODING 194
SWIDTH 668 0
DWIDTH 21 0
BBX 25 36 0 -4
BITMAP
00000000001400
00000000007C00
0000000001FD00
000000000BFD00
000000002F5E00
00000000B40700
00000001400140
00000000000000
000000002FE000
00000001FFF000
0000000BFFE000
0000002F7FE000
000000BD7FD000
000001F47FC000
000007E0BFC000
00000BC0FF8000
00002F40FF4000
00003F01FF4000
01BFFE41FF0000
1FFFFFFAFE0000
7F83F45BFE0000
BF07F003FD0000
BF0FE007FC0000
192FC00BFC0000
003F800BF80000
007F400FF80000
00FF001FF40000
01FE001FF00000
02FD002FF00000
03FC003FE00000
03FC003FD00000
07F8007FD00000
07F80000000000
03F80000000000
01F80000000000
00140000000000
ENDCHAR
STARTCHAR Atilde
ENCODING 195
SWIDTH 668 0
DWIDTH 21 0
BBX 26 34 0 -4
BITMAP
00000000550000
00000002FFE410
0000000FFFFF80
000000101BF900
00000000000000
00000000000000
000000002FE000
00000001FFF000
0000000BFFE000
0000002F7FE000
000000BD7FD000
000001F47FC000
000007E0BFC000
00000BC0FF8000
00002F40FF4000
00003F01FF4000
01BFFE41FF0000
1FFFFFFAFE0000
7F83F45BFE0000
BF07F003FD0000
BF0FE007FC0000
192FC00BFC0000
003F800BF80000
007F400FF80000
00FF001FF40000
01FE001FF00000
02FD002FF00000
03FC003FE00000
03FC003FD00000
07F8007FD00000
07F80000000000
03F80000000000
01F80000000000
00140000000000
ENDCHAR
STARTCHAR Adieresis
ENCODING 196
SWIDTH 668 0
DWIDTH 21 0
BBX 24 34 0 -4
BITMAP
00000002E02D
00000007F4BF
00000007F4BF
00000002E02D
000000000000
000000000000
000000002FE0
00000001FFF0
0000000BFFE0
0000002F7FE0
000000BD7FD0
000001F47FC0
000007E0BFC0
00000BC0FF80
00002F40FF40
00003F01FF40
01BFFE41FF00
1FFFFFFAFE00
7F83F45BFE00
BF07F003FD00
BF0FE007FC00
192FC00BFC00
003F800BF800
007F400FF800
00FF001FF400
01FE001FF000
02FD002FF000
03FC003FE000
03FC003FD000
07F8007FD000
07F800000000
03F800000000
01F800000000
001400000000
ENDCHAR
STARTCHAR Aring
ENCODING 197
SWIDTH 668 0
DWIDTH 21 0
BBX 22 34 0 -4
BITMAP
000000000B90
000000002860
000000003470
0000000034A0
000000001F80
000000000000
000000002FE0
00000001FFF0
0000000BFFE0
0000002F7FE0
000000BD7FD0
000001F47FC0
000007E0BFC0
00000BC0FF80
00002F40FF40
00003F01FF40
01BFFE41FF00
1FFFFFFAFE00
7F83F45BFE00
BF07F003FD00
BF0FE007FC00
192FC00BFC00
003F800BF800
007F400FF800
00FF001FF400
01FE001FF000
02FD002FF000
03FC003FE000
03FC003FD000
07F8007FD000
07F800000000
03F800000000
01F800000000
001400000000
ENDCHAR
STARTCHAR AE
ENCODING 198
SWIDTH 764 0
DWIDTH 24 0
BBX 29 28 0 -4
BITMAP
000000002FE50180
00000001FFFFFF80
0000000BFFFFFF40
0000002F7FE1A900
000000BC7FD00000
000001F47FC00000
000007D0BFC00000
00000F80FF800000
00002F40FF400000
00007E01FF400000
02BFFE52FF554000
2FFFFFFFFFFF8000
7F43F41BFFFF4000
BF07F007FD000000
7F0FE007FC000000
042FC00BFC000000
003F800FF8000000
007F400FF8000000
00FF001FF4000000
01FE002FF0000000
02FD002FF0000000
03FC003FFFFFC000
03FC003FFFFF8000
07F8007FFFFF4000
07F8000000000000
03F8000000000000
02F8000000000000
0054000000000000
ENDCHAR
STARTCHAR Ccedilla
ENCODING 199
SWIDTH 497 0
DWIDTH 16 0
BBX 17 31 0 -7
BITMAP
00006FE800
0007FFFF00
001FF90F80
007FE00BC0
00FFC00BC0
02FF800FC0
03FF002F80
0BFE000500
0FFD000000
1FFC000000
2FF8000000
2FF4000000
3FF4000000
3FF0000000
7FF0000000
7FF0000000
7FF0000000
7FF0000000
7FF4000280
3FF8000B00
3FFE01BD00
2FFFFFF800
0FFFFFD000
02FFF90000
0017800000
0007540000
000BFD0000
00047E0000
00003D0000
00787C0000
006FE00000
ENDCHAR
STARTCHAR Egrave
ENCODING 200
SWIDTH 459 0
DWIDTH 15 0
BBX 16 33 0 -1
BITMAP
0000BE00
00007E00
00003E00
00003F00
00002F00
00001F40
00000000
00000000
00006FE0
0002FFFC
000FF47D
002FC02E
007F802E
00BF407D
00BF40BC
00BF4010
00BF8000
003FD000
001FF800
007FE400
02FF8000
0BFE0000
1FFC0000
3FF40000
7FF00000
BFF00000
BFF00005
BFF0001C
BFF800B4
7FFEABD0
2FFFFF40
0BFFF800
00554000
ENDCHAR
STARTCHAR Eacute
ENCODING 201
SWIDTH 459 0
DWIDTH 15 0
BBX 17 33 0 -1
BITMAP
0000001A40
0000003F40
000000BE00
000000FC00
000001F400
000003E000
0000024000
0000000000
00006FE000
0002FFFC00
000FF47D00
002FC02E00
007F802E00
00BF407D00
00BF40BC00
00BF401000
00BF800000
003FD00000
001FF80000
007FE40000
02FF800000
0BFE000000
1FFC000000
3FF4000000
7FF0000000
BFF0000000
BFF0000500
BFF0001C00
BFF800B400
7FFEABD000
2FFFFF4000
0BFFF80000
0055400000
ENDCHAR
STARTCHAR Ecircumflex
ENCODING 202
SWIDTH 459 0
DWIDTH 15 0
BBX 16 33 0 -1
BITMAP
00000010
000000B4
000003F8
00001FFC
00007E6D
0001E40E
00014005
00000000
00006FE0
0002FFFC
000FF47D
002FC02E
007F802E
00BF407D
00BF40BC
00BF4010
00BF8000
003FD000
001FF800
007FE400
02FF8000
0BFE0000
1FFC0000
3FF40000
7FF00000
BFF00000
BFF00005
BFF0001C
BFF800B4
7FFEABD0
2FFFFF40
0BFFF800
00554000
ENDCHAR
STARTCHAR Edieresis
ENCODING 203
SWIDTH 459 0
DWIDTH 15 0
BBX 18 31 0 -1
BITMAP
0000B80B80
0001FD2FD0
0001FD2FD0
0000B80B80
0000000000
0000000000
00006FE000
0002FFFC00
000FF47D00
002FC02E00
007F802E00
00BF407D00
00BF40BC00
00BF401000
00BF800000
003FD00000
001FF80000
007FE40000
02FF800000
0BFE000000
1FFC000000
3FF4000000
7FF0000000
BFF0000000
BFF0000500
BFF0001C00
BFF800B400
7FFEABD000
2FFFFF4000
0BFFF80000
0055400000
ENDCHAR
STARTCHAR Igrave
ENCODING 204
SWIDTH 375 0
DWIDTH 12 0
BBX 13 31 0 0
BITMAP
0003F400
0002F400
0001F800
0000F800
0000BC00
00007C00
00000000
0001AF80
001FFF40
01BEFF40
07E2FF00
1F82FE00
3F03FE00
7E07FD00
BD07FC00
BD0BFC00
BD0FF800
3D0FF400
051FF400
002FF000
002FF000
003FE000
007FD000
007FD000
00BFC000
00BF8000
00FF8000
01FF4000
01FF0000
02FF0000
03FE0000
ENDCHAR
STARTCHAR Iacute
ENCODING 205
SWIDTH 375 0
DWIDTH 12 0
BBX 16 32 0 0
BITMAP
00000069
000001FC
000002F4
000007E0
00000BC0
00000F40
00001900
00000000
0001AF80
001FFF40
01BEFF40
07E2FF00
1F82FE00
3F03FE00
7E07FD00
BD07FC00
BD0BFC00
BD0FF800
3D0FF400
051FF400
002FF000
002FF000
003FE000
007FD000
007FD000
00BFC000
00BF8000
00FF8000
01FF4000
01FF0000
02FF0000
03FE0000
ENDCHAR
STARTCHAR Icircumflex
ENCODING 206
SWIDTH 375 0
DWIDTH 12 0
BBX 15 32 0 0
BITMAP
00000040
000002D0
00000FE0
00007FF0
0001F9B4
00079034
00050014
00000000
0001AF80
001FFF40
01BEFF40
07E2FF00
1F82FE00
3F03FE00
7E07FD00
BD07FC00
BD0BFC00
BD0FF800
3D0FF400
051FF400
002FF000
002FF000
003FE000
007FD000
007FD000
00BFC000
00BF8000
00FF8000
01FF4000
01FF0000
02FF0000
03FE0000
ENDCHAR
STARTCHAR Idieresis
ENCODING 207
SWIDTH 375 0
DWIDTH 12 0
BBX 16 30 0 0
BITMAP
0007D0B8
000FE0FE
000FE0FE
0007D0B8
00000000
00000000
0001AF80
001FFF40
01BEFF40
07E2FF00
1F82FE00
3F03FE00
7E07FD00
BD07FC00
BD0BFC00
BD0FF800
3D0FF400
051FF400
002FF000
002FF000
003FE000
007FD000
007FD000
00BFC000
00BF8000
00FF8000
01FF4000
01FF0000
02FF0000
03FE0000
ENDCHAR
STARTCHAR Eth
ENCODING 208
SWIDTH 663 0
DWIDTH 21 0
BBX 21 25 0 -1
BITMAP
0001AFF90000
001FFFFFD000
00BE401BF800
07F40502FD00
1FC2FF01FF00
3F43FE00FF40
7E03FD00FF40
BD07FD00BF80
BD0BFC00BF80
BD0BF800FF80
7D0FF800FF80
197FFF80FF40
00BFFF81FF40
002FF001FF00
003FE002FF00
003FD003FE00
007FD007FD00
00BFC00BFC00
00BF800FF800
00FF802FF000
01FF40BFD000
01FFD6FF8000
02FFFFFE0000
03FE7FF80000
000005400000
ENDCHAR
STARTCHAR Ntilde
ENCODING 209
SWIDTH 686 0
DWIDTH 22 0
BBX 23 29 0 0
BITMAP
0000006FE514
000007FFFFE0
0000051AFE40
000000000000
000000000000
0006FE4001FC
007FFF8001F8
02FAFFC002F4
0BD2FFC003F4
2F82FFD003F0
7F03FFE007E0
BE07FFE007E0
BD07FFF00BD0
BD0BFFF40FC0
BD0FDFF40FC0
7E0FCFF81F80
1A1FCBFC1F40
002F87FC2F40
002F43FD3F00
003F43FE3E00
007F02FE7E00
007E01FFBD00
00BD01FFFD00
00FD00FFFC00
00FC00BFF800
01F8007FF800
02F8007FF400
02F4003FF000
03F0002FF000
ENDCHAR
STARTCHAR Ograve
ENCODING 210
SWIDTH 665 0
DWIDTH 21 0
BBX 21 32 0 0
BITMAP
00001FC00000
00000FD00000
00000BD00000
000007E00000
000003E00000
000002F00000
000000000000
000000000000
00006BFE8000
0007FFFFF400
007F9006FD00
02FD0A90FF00
0BE07F80BF40
1FC1FE007F80
3F43FD007FC0
7E0BF8007FC0
7E1FF4007FC0
7D2FF0007FC0
3D3FE000BF80
05BFD000BF80
00BFC000FF40
00FF8001FF40
01FF8002FF00
01FF4003FE00
01FF4007FD00
02FF400BF800
02FF401FF000
01FF403FD000
00FF80BF8000
00BFEBFE0000
003FFFF40000
0006FE400000
ENDCHAR
STARTCHAR Oacute
ENCODING 211
SWIDTH 665 0
DWIDTH 21 0
BBX 21 32 0 0
BITMAP
00000001A400
00000003F400
00000007E000
0000000FC000
0000001F4000
0000002E0000
000000280000
000000000000
00006BFE8000
0007FFFFF400
007F9006FD00
02FD0A90FF00
0BE07F80BF40
1FC1FE007F80
3F43FD007FC0
7E0BF8007FC0
7E1FF4007FC0
7D2FF0007FC0
3D3FE000BF80
05BFD000BF80
00BFC000FF40
00FF8001FF40
01FF8002FF00
01FF4003FE00
01FF4007FD00
02FF400BF800
02FF401FF000
01FF403FD000
00FF80BF8000
00BFEBFE0000
003FFFF40000
0006FE400000
ENDCHAR
STARTCHAR Ocircumflex
ENCODING 212
SWIDTH 665 0
DWIDTH 21 0
BBX 21 32 0 0
BITMAP
000000010000
0000000B4000
0000002F8000
000000BFC000
000003E5D000
00001E40A000
000014001000
000000000000
00006BFE8000
0007FFFFF400
007F9006FD00
02FD0A90FF00
0BE07F80BF40
1FC1FE007F80
3F43FD007FC0
7E0BF8007FC0
7E1FF4007FC0
7D2FF0007FC0
3D3FE000BF80
05BFD000BF80
00BFC000FF40
00FF8001FF40
01FF8002FF00
01FF4003FE00
01FF4007FD00
02FF400BF800
02FF401FF000
01FF403FD000
00FF80BF8000
00BFEBFE0000
003FFFF40000
0006FE400000
ENDCHAR
STARTCHAR Otilde
ENCODING 213
SWIDTH 665 0
DWIDTH 21 0
BBX 22 30 0 0
BITMAP
000000550000
000007FFFA90
00001FFFFF40
0000105BF800
000000000000
000000000000
00006BFE8000
0007FFFFF400
007F9006FD00
02FD0A90FF00
0BE07F80BF40
1FC1FE007F80
3F43FD007FC0
7E0BF8007FC0
7E1FF4007FC0
7D2FF0007FC0
3D3FE000BF80
05BFD000BF80
00BFC000FF40
00FF8001FF40
01FF8002FF00
01FF4003FE00
01FF4007FD00
02FF400BF800
02FF401FF000
01FF403FD000
00FF80BF8000
00BFEBFE0000
003FFFF40000
0006FE400000
ENDCHAR
STARTCHAR Odieresis
ENCODING 214
SWIDTH 665 0
DWIDTH 21 0
BBX 21 30 0 0
BITMAP
00000B41F400
00002FC3F800
00002FC3F800
00001F41F400
000000000000
000000000000
00006BFE8000
0007FFFFF400
007F9006FD00
02FD0A90FF00
0BE07F80BF40
1FC1FE007F80
3F43FD007FC0
7E0BF8007FC0
7E1FF4007FC0
7D2FF0007FC0
3D3FE000BF80
05BFD000BF80
00BFC000FF40
00FF8001FF40
01FF8002FF00
01FF4003FE00
01FF4007FD00
02FF400BF800
02FF401FF000
01FF403FD000
00FF80BF8000
00BFEBFE0000
003FFFF40000
0006FE400000
ENDCHAR
STARTCHAR multiply
ENCODING 215
SWIDTH 414 0
DWIDTH 13 0
BBX 11 10 1 6
BITMAP
180090
7E02F4
3F8BE0
0FFF80
03FE00
02FE00
0BFF80
2F9FE0
7E03F4
2800D0
ENDCHAR
STARTCHAR Oslash
ENCODING 216
SWIDTH 658 0
DWIDTH 21 0
BBX 21 26 0 -2
BITMAP
0000000E0000
0000001D0000
00006BFE4000
001BFFFFE000
00BFAFBAF800
07F4BF79FD00
1FD2FD74FE00
3F4BF8B0FF00
7E1FF4B0FF00
7D2FE0E0FF40
7D3FD1E0FF40
2D7FC1D1FF00
00BF82C1FF00
00FF82C2FE00
01FF4383FD00
01FF0747FC00
02FF074BF800
02FF0B0FF400
02FF0E2FE000
02FF0E7FC000
01FF5EFF4000
00FFAFFD0000
007FFFE40000
000BFE400000
000074000000
000074000000
ENDCHAR
STARTCHAR Ugrave
ENCODING 217
SWIDTH 716 0
DWIDTH 23 0
BBX 24 32 0 0
BITMAP
0000003F4000
0000002F8000
0000001F8000
0000000FC000
0000000BC000
00000007D000
000000000000
000000000000
0001AFD001FF
002FFFC002FF
01F9BFC003FE
0BD0FF8003FD
2F40FF4007FD
7E01FF000BFC
BD02FE000BF8
FC03FD000FF8
FC07FD001FF4
F807FC001FF0
7C0BF8002FF0
040FF4003FE0
001FF0003FD0
001FF0007FD0
002FE000BFC0
002FD000FF80
003FD001FF40
003FD002FF00
007FD003FE00
003FD007FC00
003FF42FF800
002FFFFFE000
000FFFFF8000
0001BFE80000
ENDCHAR
STARTCHAR Uacute
ENCODING 218
SWIDTH 716 0
DWIDTH 23 0
BBX 24 32 0 0
BITMAP
000000001A40
000000007F00
00000000BD00
00000001F800
00000002F000
00000007D000
000000064000
000000000000
0001AFD001FF
002FFFC002FF
01F9BFC003FE
0BD0FF8003FD
2F40FF4007FD
7E01FF000BFC
BD02FE000BF8
FC03FD000FF8
FC07FD001FF4
F807FC001FF0
7C0BF8002FF0
040FF4003FE0
001FF0003FD0
001FF0007FD0
002FE000BFC0
002FD000FF80
003FD001FF40
003FD002FF00
007FD003FE00
003FD007FC00
003FF42FF800
002FFFFFE000
000FFFFF8000
0001BFE80000
ENDCHAR
STARTCHAR Ucircumflex
ENCODING 219
SWIDTH 716 0
DWIDTH 23 0
BBX 24 32 0 0
BITMAP
000000000400
000000002D00
00000000FE00
00000007FF00
0000001F9B40
000000790380
000000500140
000000000000
0001AFD001FF
002FFFC002FF
01F9BFC003FE
0BD0FF8003FD
2F40FF4007FD
7E01FF000BFC
BD02FE000BF8
FC03FD000FF8
FC07FD001FF4
F807FC001FF0
7C0BF8002FF0
040FF4003FE0
001FF0003FD0
001FF0007FD0
002FE000BFC0
002FD000FF80
003FD001FF40
003FD002FF00
007FD003FE00
003FD007FC00
003FF42FF800
002FFFFFE000
000FFFFF8000
0001BFE80000
ENDCHAR
STARTCHAR Udieresis
ENCODING 220
SWIDTH 716 0
DWIDTH 23 0
BBX 24 30 0 0
BITMAP
0000007D0780
000000BF0FE0
000000BF0FE0
0000007D0780
000000000000
000000000000
0001AFD001FF
002FFFC002FF
01F9BFC003FE
0BD0FF8003FD
2F40FF4007FD
7E01FF000BFC
BD02FE000BF8
FC03FD000FF8
FC07FD001FF4
F807FC001FF0
7C0BF8002FF0
040FF4003FE0
001FF0003FD0
001FF0007FD0
002FE000BFC0
002FD000FF80
003FD001FF40
003FD002FF00
007FD003FE00
003FD007FC00
003FF42FF800
002FFFFFE000
000FFFFF8000
0001BFE80000
ENDCHAR
STARTCHAR Yacute
ENCODING 221
SWIDTH 620 0
DWIDTH 20 0
BBX 22 32 0 0
BITMAP
000000000690
000000000BD0
000000001F80
000000002F00
000000007D00
00000000B800
00000000A000
000000000000
0001AF8000F0
001FFFC001E0
01BDFFD002D0
07E0BFE00780
1F807FE00B40
3F007FF00F00
7E003FF41D00
BD002FF83C00
BD001FF87800
BD001FFCB000
3D000FFDE000
05000BFFD000
000007FF8000
000003FF4000
000003FF0000
000007FE0000
000007FE0000
00000BFD0000
00000FFD0000
00000FFC0000
00001FF80000
00002FF80000
00002FF40000
00003FF00000
ENDCHAR
STARTCHAR Thorn
ENCODING 222
SWIDTH 583 0
DWIDTH 19 0
BBX 19 24 0 0
BITMAP
0000054000
0000FF8000
0001FF4000
0002FF0000
0003FFF900
002FFFFF80
01FBFE1FF0
0BC7FD07F4
1F4BFC02F8
3E0FFC02FC
BD0FF802FC
BD1FF402F8
BD2FF003F4
7D2FF00BF0
193FE01FD0
007FD07F40
007FD1F900
00BFFF9000
00BF800000
00FF400000
01FF400000
01FF000000
02FF000000
03FE000000
ENDCHAR
STARTCHAR germandbls
ENCODING 223
SWIDTH 480 0
DWIDTH 15 0
BBX 17 30 -3 -8
BITMAP
00001BF800
0000BFFF00
0002FD2F40
0007FC1F40
000BF81F40
001FF42F00
002FF03E00
003FE07C00
003FE0B400
007FD1E000
00BFC2E000
00BFC2F800
00FF80BE00
01FF407F40
01FF403F80
02FF003FC0
03FE003FC0
03FE003FC0
07FD007F80
07FC41FF00
0BFCBFFD00
0FF87F9000
0FF4000000
1FF4000000
2FF0000000
2FE0000000
3FE0000000
7FD0000000
7F80000000
5400000000
ENDCHAR
STARTCHAR agrave
ENCODING 224
SWIDTH 526 0
DWIDTH 17 0
BBX 19 24 -1 0
BITMAP
0000FD0000
0000BE0000
00007E0000
00003E0000
00002F0000
00001F0000
0000000000
0000000000
000BF9FF40
007FFFFF00
01FF47FE00
03FD03FE00
0BFC07FD00
1FF407FD00
2FF00BFC00
3FE00BF800
3FE00FF800
7FD01FF400
7FD01FF018
7FD03FF028
7FE0BFF070
3FFFEFFFD0
1FFF4FFF80
06F906F900
ENDCHAR
STARTCHAR aacute
ENCODING 225
SWIDTH 526 0
DWIDTH 17 0
BBX 19 24 -1 0
BITMAP
000001F800
000003F400
000007E000
00000FC000
00001F4000
00003E0000
0000140000
0000000000
000BF9FF40
007FFFFF00
01FF47FE00
03FD03FE00
0BFC07FD00
1FF407FD00
2FF00BFC00
3FE00BF800
3FE00FF800
7FD01FF400
7FD01FF018
7FD03FF028
7FE0BFF070
3FFFEFFFD0
1FFF4FFF80
06F906F900
ENDCHAR
STARTCHAR acircumflex
ENCODING 226
SWIDTH 526 0
DWIDTH 17 0
BBX 19 24 -1 0
BITMAP
000000A000
000002F000
00000FF400
00007FB800
0001F83C00
0007801C00
0000000000
0000000000
000BF9FF40
007FFFFF00
01FF47FE00
03FD03FE00
0BFC07FD00
1FF407FD00
2FF00BFC00
3FE00BF800
3FE00FF800
7FD01FF400
7FD01FF018
7FD03FF028
7FE0BFF070
3FFFEFFFD0
1FFF4FFF80
06F906F900
ENDCHAR
STARTCHAR atilde
ENCODING 227
SWIDTH 526 0
DWIDTH 17 0
BBX 19 22 -1 0
BITMAP
0000550000
0007FFFA90
001FFFFF80
00105BF900
0000000000
0000000000
000BF9FF40
007FFFFF00
01FF47FE00
03FD03FE00
0BFC07FD00
1FF407FD00
2FF00BFC00
3FE00BF800
3FE00FF800
7FD01FF400
7FD01FF018
7FD03FF028
7FE0BFF070
3FFFEFFFD0
1FFF4FFF80
06F906F900
ENDCHAR
STARTCHAR adieresis
ENCODING 228
SWIDTH 526 0
DWIDTH 17 0
BBX 19 22 -1 0
BITMAP
0001E02E00
0003F87F40
0003F87F40
0002E02E00
0000000000
0000000000
000BF9FF40
007FFFFF00
01FF47FE00
03FD03FE00
0BFC07FD00
1FF407FD00
2FF00BFC00
3FE00BF800
3FE00FF800
7FD01FF400
7FD01FF018
7FD03FF028
7FE0BFF070
3FFFEFFFD0
1FFF4FFF80
06F906F900
ENDCHAR
STARTCHAR aring
ENCODING 229
SWIDTH 526 0
DWIDTH 17 0
BBX 19 22 -1 0
BITMAP
00001F8000
000074D000
000070D000
00002F8000
0000000000
0000000000
000BF9FF40
007FFFFF00
01FF47FE00
03FD03FE00
0BFC07FD00
1FF407FD00
2FF00BFC00
3FE00BF800
3FE00FF800
7FD01FF400
7FD01FF018
7FD03FF028
7FE0BFF070
3FFFEFFFD0
1FFF4FFF80
06F906F900
ENDCHAR
STARTCHAR ae
ENCODING 230
SWIDTH 650 0
DWIDTH 21 0
BBX 23 16 -1 0
BITMAP
000BFE02FE40
007FFFEFFF80
01E41FFF87C0
00400FFF07D0
00000FFD07C0
00000FFC0F80
00001FF82F40
01AFFFF5BD00
0BFFFFFFF400
2FF83FFE4000
3FE03FF00014
7FD07FF00074
7FE1FFF406D0
3FFFEFFFFF40
2FFF4BFFFD00
06F901BF9000
ENDCHAR
STARTCHAR ccedilla
ENCODING 231
SWIDTH 384 0
DWIDTH 12 0
BBX 14 23 -1 -7
BITMAP
000AFD00
007FFF40
01FF4F80
03FD0B80
0BFC0F40
1FF40000
2FF00000
3FE00000
3FE00000
7FD00000
7FD00070
7FD001D0
7FF41B80
3FFFFE00
1FFFF400
06FF4000
000A0000
000D5000
001FF800
0011F800
0000F800
00E5F000
00BF9000
ENDCHAR
STARTCHAR egrave
ENCODING 232
SWIDTH 384 0
DWIDTH 12 0
BBX 14 24 -1 0
BITMAP
000BD000
0007E000
0003E000
0003F000
0002F000
0001F400
00000000
00000000
000AF900
007FFF40
01FF4F80
03FD0B80
0BFC0F80
1FF41F40
2FF07E00
3FE2F800
3FFFE000
7FFA4000
7FD00010
7FD000A0
7FE00780
3FFFFE00
1FFFF800
06FE8000
ENDCHAR
STARTCHAR eacute
ENCODING 233
SWIDTH 384 0
DWIDTH 12 0
BBX 14 24 -1 0
BITMAP
000007F0
00000BD0
00000FC0
00002F40
00003E00
0000BC00
00005400
00000000
000AF900
007FFF40
01FF4F80
03FD0B80
0BFC0F80
1FF41F40
2FF07E00
3FE2F800
3FFFE000
7FFA4000
7FD00010
7FD000A0
7FE00780
3FFFFE00
1FFFF800
06FE8000
ENDCHAR
STARTCHAR ecircumflex
ENCODING 234
SWIDTH 384 0
DWIDTH 12 0
BBX 14 24 -1 0
BITMAP
00000700
00001F40
0000BF80
0002FFC0
000BD2D0
002D0090
00100010
00000000
000AF900
007FFF40
01FF4F80
03FD0B80
0BFC0F80
1FF41F40
2FF07E00
3FE2F800
3FFFE000
7FFA4000
7FD00010
7FD000A0
7FE00780
3FFFFE00
1FFFF800
06FE8000
ENDCHAR
STARTCHAR edieresis
ENCODING 235
SWIDTH 384 0
DWIDTH 12 0
BBX 15 22 -1 0
BITMAP
001E02E0
003F87F4
003F87F4
001E02E0
00000000
00000000
000AF900
007FFF40
01FF4F80
03FD0B80
0BFC0F80
1FF41F40
2FF07E00
3FE2F800
3FFFE000
7FFA4000
7FD00010
7FD000A0
7FE00780
3FFFFE00
1FFFF800
06FE8000
ENDCHAR
STARTCHAR igrave
ENCODING 236
SWIDTH 267 0
DWIDTH 9 0
BBX 11 24 -1 0
BITMAP
03F400
02F400
01F800
00F800
00BC00
007C00
000000
000000
03FE00
03FD00
07FD00
0BFC00
0BF800
0FF800
1FF400
1FF400
2FF000
3FE000
3FE028
7FD034
7FE1E0
3FFFD0
2FFF40
0BE400
ENDCHAR
STARTCHAR iacute
ENCODING 237
SWIDTH 267 0
DWIDTH 9 0
BBX 11 24 -1 0
BITMAP
0002F8
0007F0
000BD0
001F80
002F00
007D00
000000
000000
03FE00
03FD00
07FD00
0BFC00
0BF800
0FF800
1FF400
1FF400
2FF000
3FE000
3FE028
7FD034
7FE1E0
3FFFD0
2FFF40
0BE400
ENDCHAR
STARTCHAR icircumflex
ENCODING 238
SWIDTH 267 0
DWIDTH 9 0
BBX 11 24 -1 0
BITMAP
000280
000BC0
003FD0
01FEE0
07D0B0
1E0034
000000
000000
03FE00
03FD00
07FD00
0BFC00
0BF800
0FF800
1FF400
1FF400
2FF000
3FE000
3FE028
7FD034
7FE1E0
3FFFD0
2FFF40
0BE400
ENDCHAR
STARTCHAR idieresis
ENCODING 239
SWIDTH 267 0
DWIDTH 9 0
BBX 11 22 -1 0
BITMAP
0B81F4
1FD3F8
1FD3F8
0B81F4
000000
000000
03FE00
03FD00
07FD00
0BFC00
0BF800
0FF800
1FF400
1FF400
2FF000
3FE000
3FE028
7FD034
7FE1E0
3FFFD0
2FFF40
0BE400
ENDCHAR
STARTCHAR eth
ENCODING 240
SWIDTH 526 0
DWIDTH 17 0
BBX 19 24 -1 0
BITMAP
0000014000
00000FE010
00000BFAF0
000007FFE0
0001BFFD00
0001E6FE00
000001FF00
000001FF00
000BF9FF00
007FFFFF00
01FF47FF00
03FD03FE00
0BFC03FD00
1FF407FD00
2FF00BFC00
3FE00BF800
3FE00FF800
7FD01FF400
7FD01FF018
7FD03FF028
7FE0BFF074
3FFFEFFFE0
1FFF4FFF80
06F906F900
ENDCHAR
STARTCHAR ntilde
ENCODING 241
SWIDTH 505 0
DWIDTH 16 0
BBX 19 22 -1 0
BITMAP
0001540000
001FFFEA40
007FFFFD00
00416FE400
0000000000
0000000000
03FE6F9000
03FEFFF400
07FFFFF800
0BFE0FF800
0BFC0BF800
0FF80FF800
1FF40FF400
1FF41FF000
2FF02FF000
3FE02FE000
3FE03FD024
7FD03FD070
7FC07FD1E0
BFC03FFFC0
FF802FFF40
FF400BF800
ENDCHAR
STARTCHAR ograve
ENCODING 242
SWIDTH 433 0
DWIDTH 14 0
BBX 19 24 -1 0
BITMAP
0003F40000
0002F40000
0001F40000
0001F80000
0000F80000
0000BC0000
0000000000
0000000000
000AF90000
007FFF4000
01FF4BC000
07FD07C014
0FF80FD1B4
1FF41FFF80
2FF00BE400
3FE00BC000
7FD00F8000
7FD01F8000
BFC02F4000
BFD03E0000
7FD0FD0000
7FFFF80000
2FFFD00000
06FE400000
ENDCHAR
STARTCHAR oacute
ENCODING 243
SWIDTH 439 0
DWIDTH 14 0
BBX 19 24 -1 0
BITMAP
000003F400
00000BE000
00000FC000
00002F4000
00003E0000
00007C0000
0000540000
0000000000
0006FD0000
007FFF8000
01FF4BC000
03FD07D008
0BFC0FD1B4
1FF40FFF90
2FF00BE400
3FE007C000
3FE00BC000
7FD00F8000
7FD01F4000
7FD03F0000
7FE0BD0000
3FFFF80000
1FFFE00000
06FE400000
ENDCHAR
STARTCHAR ocircumflex
ENCODING 244
SWIDTH 433 0
DWIDTH 14 0
BBX 19 24 -1 0
BITMAP
00000A0000
00002F0000
0000BF4000
0003FF8000
000F83C000
007901D000
0050004000
0000000000
000AF90000
007FFF4000
01FF4BC000
07FD07C014
0FF80FD1B4
1FF41FFF80
2FF00BE400
3FE00BC000
7FD00F8000
7FD01F8000
BFC02F4000
BFD03E0000
7FD0FD0000
7FFFF80000
2FFFD00000
06FE400000
ENDCHAR
STARTCHAR otilde
ENCODING 245
SWIDTH 433 0
DWIDTH 14 0
BBX 19 22 -1 0
BITMAP
0005500000
00BFFEA800
03FFFFE000
0506FE4000
0000000000
0000000000
000AF90000
007FFF4000
01FF4BC000
07FD07C014
0FF80FD1B4
1FF41FFF80
2FF00BE400
3FE00BC000
7FD00F8000
7FD01F8000
BFC02F4000
BFD03E0000
7FD0FD0000
7FFFF80000
2FFFD00000
06FE400000
ENDCHAR
STARTCHAR odieresis
ENCODING 246
SWIDTH 433 0
DWIDTH 14 0
BBX 19 22 -1 0
BITMAP
002D07D000
00BF0BF000
00BF0BF000
002E07D000
0000000000
0000000000
000AF90000
007FFF4000
01FF4BC000
07FD07C014
0FF80FD1B4
1FF41FFF80
2FF00BE400
3FE00BC000
7FD00F8000
7FD01F8000
BFC02F4000
BFD03E0000
7FD0FD0000
7FFFF80000
2FFFD00000
06FE400000
ENDCHAR
STARTCHAR divide
ENCODING 247
SWIDTH 415 0
DWIDTH 13 0
BBX 12 16 1 3
BITMAP
001F80
003FD0
007FE0
003FD0
001F80
000000
000000
7FFFFF
BFFFFE
000000
000000
01B800
03FE00
07FE00
03FE00
01F800
ENDCHAR
STARTCHAR oslash
ENCODING 248
SWIDTH 428 0
DWIDTH 14 0
BBX 17 18 -2 -2
BITMAP
0001BE4380
001FFFDA00
007FD2FC00
00FF81F400
02FF01F400
07FD07F400
0BFC1FF400
0FF87AF400
1FF8F2F000
1FFBC3E000
1FFF4BD000
1FFD1FC000
1FF87F4000
0FFFFE0000
0BFFF40000
1EBF800000
7800000000
5000000000
ENDCHAR
STARTCHAR ugrave
ENCODING 249
SWIDTH 505 0
DWIDTH 16 0
BBX 19 24 -1 0
BITMAP
0003F40000
0002F80000
0001F80000
0000F80000
0000BC0000
00007C0000
0000000000
0000000000
03FE03FE00
03FD07FD00
07FD07FC00
0BFC0BFC00
0BF80FF800
0FF80FF800
1FF41FF400
1FF42FF000
2FF02FF000
3FE03FE000
3FE07FD024
7FD0BFD070
7FE2FFE1D0
3FFFBFFF80
2FFE2FFE00
0BE40BE400
ENDCHAR
STARTCHAR uacute
ENCODING 250
SWIDTH 505 0
DWIDTH 16 0
BBX 19 24 -1 0
BITMAP
000002F800
000007F000
00000BD000
00000F8000
00002F0000
00003D0000
0000000000
0000000000
03FE03FE00
03FD07FD00
07FD07FC00
0BFC0BFC00
0BF80FF800
0FF80FF800
1FF41FF400
1FF42FF000
2FF02FF000
3FE03FE000
3FE07FD024
7FD0BFD070
7FE2FFE1D0
3FFFBFFF80
2FFE2FFE00
0BE40BE400
ENDCHAR
STARTCHAR ucircumflex
ENCODING 251
SWIDTH 505 0
DWIDTH 16 0
BBX 19 24 -1 0
BITMAP
0000028000
00000BC000
00003FD000
0001FEE000
0007D0B000
001E003400
0000000000
0000000000
03FE03FE00
03FD07FD00
07FD07FC00
0BFC0BFC00
0BF80FF800
0FF80FF800
1FF41FF400
1FF42FF000
2FF02FF000
3FE03FE000
3FE07FD024
7FD0BFD070
7FE2FFE1D0
3FFFBFFF80
2FFE2FFE00
0BE40BE400
ENDCHAR
STARTCHAR udieresis
ENCODING 252
SWIDTH 505 0
DWIDTH 16 0
BBX 19 22 -1 0
BITMAP
000B41F400
002FC2FC00
002FC2FC00
000B81F400
0000000000
0000000000
03FE03FE00
03FD07FD00
07FD07FC00
0BFC0BFC00
0BF80FF800
0FF80FF800
1FF41FF400
1FF42FF000
2FF02FF000
3FE03FE000
3FE07FD024
7FD0BFD070
7FE2FFE1D0
3FFFBFFF80
2FFE2FFE00
0BE40BE400
ENDCHAR
STARTCHAR yacute
ENCODING 253
SWIDTH 505 0
DWIDTH 16 0
BBX 18 32 -1 -8
BITMAP
000002F800
000007F000
00000BD000
00001F8000
00002F0000
00003D0000
0000000000
0000000000
03FE03FE00
03FD07FD00
07FD07FC00
0BFC0BFC00
0BF80FF800
0FF80FF400
1FF41FF400
1FF42FF000
2FF02FF000
3FE03FE000
3FE07FD0A0
7FD0BFD0D0
7FE2FFC2C0
3FFFFF8740
2FFEFFAD00
0BE5FFE400
000BFF4000
00BFFF0000
02E3FE0000
0783FD0000
0B4BFC0000
0BAFF80000
07FFE00000
01BE400000
ENDCHAR
STARTCHAR thorn
ENCODING 254
SWIDTH 473 0
DWIDTH 15 0
BBX 17 32 -3 -8
BITMAP
0001590000
0007FD0000
000BFC0000
000BF80000
000FF80000
001FF40000
001FF00000
002FE00000
003FE6F900
003FFFFF40
007FE0BF80
00BFC07FC0
00BF807FC0
00FF807FC0
01FF407FC0
01FF007FC0
02FF00BF80
02FE00FF80
03FE01FF40
07FD02FE00
07FC07FD00
0BFC1FF400
0FFFFFD000
0FFAFE0000
1FF4000000
2FF0000000
2FE0000000
3FE0000000
7FD0000000
7FC0000000
BF80000000
5000000000
ENDCHAR
STARTCHAR ydieresis
ENCODING 255
SWIDTH 505 0
DWIDTH 16 0
BBX 18 30 -1 -8
BITMAP
001F42E000
003F87F400
003F87F400
001F42E000
0000000000
0000000000
03FE03FE00
03FD07FD00
07FD07FC00
0BFC0BFC00
0BF80FF800
0FF80FF400
1FF41FF400
1FF42FF000
2FF02FF000
3FE03FE000
3FE07FD0A0
7FD0BFD0D0
7FE2FFC2C0
3FFFFF8740
2FFEFFAD00
0BE5FFE400
000BFF4000
00BFFF0000
02E3FE0000
0783FD0000
0B4BFC0000
0BAFF80000
07FFE00000
01BE400000
ENDCHAR
STARTCHAR Amacron
ENCODING 256
SWIDTH 668 0
DWIDTH 21 0
BBX 25 33 0 -4
BITMAP
00000007FFFFC0
0000000BFFFF80
00000000000000
00000000000000
00000000000000
000000002FE000
00000001FFF000
0000000BFFE000
0000002F7FE000
000000BD7FD000
000001F47FC000
000007E0BFC000
00000BC0FF8000
00002F40FF4000
00003F01FF4000
01BFFE41FF0000
1FFFFFFAFE0000
7F83F45BFE0000
BF07F003FD0000
BF0FE007FC0000
192FC00BFC0000
003F800BF80000
007F400FF80000
00FF001FF40000
01FE001FF00000
02FD002FF00000
03FC003FE00000
03FC003FD00000
07F8007FD00000
07F80000000000
03F80000000000
01F80000000000
00140000000000
ENDCHAR
STARTCHAR amacron
ENCODING 257
SWIDTH 526 0
DWIDTH 17 0
BBX 19 21 -1 0
BITMAP
0007FFFF80
000BFFFF80
0000000000
0000000000
0000000000
000BF9FF40
007FFFFF00
01FF47FE00
03FD03FE00
0BFC07FD00
1FF407FD00
2FF00BFC00
3FE00BF800
3FE00FF800
7FD01FF400
7FD01FF018
7FD03FF028
7FE0BFF070
3FFFEFFFD0
1FFF4FFF80
06F906F900
ENDCHAR
STARTCHAR Abreve
ENCODING 258
SWIDTH 668 0
DWIDTH 21 0
BBX 27 34 0 -4
BITMAP
00000007E002F4
00000003F407E0
00000001FFBF80
000000006FE900
00000000000000
00000000000000
000000002FE000
00000001FFF000
0000000BFFE000
0000002F7FE000
000000BD7FD000
000001F47FC000
000007E0BFC000
00000BC0FF8000
00002F40FF4000
00003F01FF4000
01BFFE41FF0000
1FFFFFFAFE0000
7F83F45BFE0000
BF07F003FD0000
BF0FE007FC0000
192FC00BFC0000
003F800BF80000
007F400FF80000
00FF001FF40000
01FE001FF00000
02FD002FF00000
03FC003FE00000
03FC003FD00000
07F8007FD00000
07F80000000000
03F80000000000
01F80000000000
00140000000000
ENDCHAR
STARTCHAR abreve
ENCODING 259
SWIDTH 526 0
DWIDTH 17 0
BBX 19 23 -1 0
BITMAP
000F800BD0
000FD01F80
0007FEFE00
0001BFA400
0000000000
0000000000
0000000000
000BF9FF40
007FFFFF00
01FF47FE00
03FD03FE00
0BFC07FD00
1FF407FD00
2FF00BFC00
3FE00BF800
3FE00FF800
7FD01FF400
7FD01FF018
7FD03FF028
7FE0BFF070
3FFFEFFFD0
1FFF4FFF80
06F906F900
ENDCHAR
STARTCHAR Aogonek
ENCODING 260
SWIDTH 668 0
DWIDTH 21 0
BBX 22 30 0 -6
BITMAP
000000002FE0
00000001FFF0
0000000BFFE0
0000002F7FE0
000000BD7FD0
000001F47FC0
000007E0BFC0
00000BC0FF80
00002F40FF40
00003F01FF40
01BFFE41FF00
1FFFFFFAFE00
7F83F45BFE00
BF07F003FD00
BF0FE007FC00
192FC00BFC00
003F800BF800
007F400FF800
00FF001FF400
01FE001FF000
02FD002FF000
03FC003FE000
03FC003FD000
07F8007FD000
07F8002D0000
03F800B80000
01F801F40000
001401F85000
000001FFD000
0000007E0000
ENDCHAR
STARTCHAR aogonek
ENCODING 261
SWIDTH 526 0
DWIDTH 17 0
BBX 19 22 -1 -6
BITMAP
000BF9FF40
007FFFFF00
01FF47FE00
03FD03FE00
0BFC07FD00
1FF407FD00
2FF00BFC00
3FE00BF800
3FE00FF800
7FD01FF400
7FD01FF018
7FD03FF028
7FE0BFF070
3FFFEFFFD0
1FFF4FFF40
06F906F900
000001E000
000003C000
00000BC000
00000BD140
000007FE00
000002A400
ENDCHAR
STARTCHAR Cacute
ENCODING 262
SWIDTH 497 0
DWIDTH 16 0
BBX 17 33 0 -1
BITMAP
0000001A40
0000002F40
0000007E00
000000BC00
000001F400
000002E000
0000019000
0000000000
00006FE800
0007FFFF00
001FF90F80
007FF00BC0
00FFD00BC0
02FF800FC0
03FF002F80
0BFE000500
0FFD000000
1FFC000000
2FF8000000
2FF8000000
3FF4000000
3FF0000000
7FF0000000
7FF0000000
7FF0000000
7FF0000000
7FF0000140
3FF4000740
3FFC001E00
1FFFAAF800
0BFFFFE000
02FFFE4000
0015500000
ENDCHAR
STARTCHAR cacute
ENCODING 263
SWIDTH 384 0
DWIDTH 12 0
BBX 15 24 -1 0
BITMAP
000002F8
000003F4
000007E0
00000FC0
00001F40
00002E00
00001400
00000000
000AFD00
007FFF40
01FF4F80
03FD0B80
0BFC0F40
1FF40000
2FF00000
3FE00000
3FE00000
7FD00000
7FD00060
7FD001D0
7FE00B80
3FFFFE00
1FFFF400
06FE4000
ENDCHAR
STARTCHAR Ccircumflex
ENCODING 264
SWIDTH 497 0
DWIDTH 16 0
BBX 17 33 0 -1
BITMAP
0000001000
000000B400
000003F800
00001FFC00
00007E6D00
0001E40E00
0001400500
0000000000
00006FE800
0007FFFF00
001FF90F80
007FF00BC0
00FFD00BC0
02FF800FC0
03FF002F80
0BFE000500
0FFD000000
1FFC000000
2FF8000000
2FF8000000
3FF4000000
3FF0000000
7FF0000000
7FF0000000
7FF0000000
7FF0000000
7FF0000140
3FF4000740
3FFC001E00
1FFFAAF800
0BFFFFE000
02FFFE4000
0015500000
ENDCHAR
STARTCHAR ccircumflex
ENCODING 265
SWIDTH 384 0
DWIDTH 12 0
BBX 14 24 -1 0
BITMAP
00000700
00001F40
00007F80
0002FFC0
000BD2D0
002D00A0
00100010
00000000
000AFD00
007FFF40
01FF4F80
03FD0B80
0BFC0F40
1FF40000
2FF00000
3FE00000
3FE00000
7FD00000
7FD00060
7FD001D0
7FE00B80
3FFFFE00
1FFFF400
06FE4000
ENDCHAR
STARTCHAR Cdotaccent
ENCODING 266
SWIDTH 497 0
DWIDTH 16 0
BBX 17 32 0 -1
BITMAP
0000007E00
000000FF80
000001FF80
000000FF80
0000007E00
0000000000
0000000000
00006FE800
0007FFFF00
001FF90F80
007FF00BC0
00FFD00BC0
02FF800FC0
03FF002F80
0BFE000500
0FFD000000
1FFC000000
2FF8000000
2FF8000000
3FF4000000
3FF0000000
7FF0000000
7FF0000000
7FF0000000
7FF0000000
7FF0000140
3FF4000740
3FFC001E00
1FFFAAF800
0BFFFFE000
02FFFE4000
0015500000
ENDCHAR
STARTCHAR cdotaccent
ENCODING 267
SWIDTH 384 0
DWIDTH 12 0
BBX 14 24 -1 0
BITMAP
00002E00
0000BF80
0000FFC0
0000BF80
00002E00
00000000
00000000
00000000
000AFD00
007FFF40
01FF4F80
03FD0B80
0BFC0F40
1FF40000
2FF00000
3FE00000
3FE00000
7FD00000
7FD00060
7FD001D0
7FE00B80
3FFFFE00
1FFFF400
06FE4000
ENDCHAR
STARTCHAR Ccaron
ENCODING 268
SWIDTH 497 0
DWIDTH 16 0
BBX 19 33 0 -1
BITMAP
0000140014
00001C02E0
00000E2F40
00000BFD00
000007F400
000003D000
0000010000
0000000000
00006FE800
0007FFFF00
001FF90F80
007FF00BC0
00FFD00BC0
02FF800FC0
03FF002F80
0BFE000500
0FFD000000
1FFC000000
2FF8000000
2FF8000000
3FF4000000
3FF0000000
7FF0000000
7FF0000000
7FF0000000
7FF0000000
7FF0000140
3FF4000740
3FFC001E00
1FFFAAF800
0BFFFFE000
02FFFE4000
0015500000
ENDCHAR
STARTCHAR ccaron
ENCODING 269
SWIDTH 384 0
DWIDTH 12 0
BBX 17 24 -1 0
BITMAP
0002800B40
0001D0BC00
0000F7F000
0000BF8000
00007E0000
0000380000
0000100000
0000000000
000AFD0000
007FFF4000
01FF4F8000
03FD0B8000
0BFC0F4000
1FF4050000
2FF0000000
3FE0000000
3FE0000000
7FD0000000
7FD0002000
7FD000E000
7FE0078000
3FFEBE0000
1FFFF40000
06FE400000
ENDCHAR
STARTCHAR Dcaron
ENCODING 270
SWIDTH 663 0
DWIDTH 21 0
BBX 21 33 0 -1
BITMAP
000014001400
00000D01E000
00000B5F8000
000007FE0000
000003F40000
000003D00000
000001400000
000000000000
0001AFF90000
001FFFFFD000
01FE401FF400
07F40503FC00
1FC2FF01FE00
3F43FE00FF00
7E03FD00FF40
BD07FD00BF80
BD0BFC00BF80
BD0BF800FF80
7D0FF800FF80
091FF400FF80
001FF001FF40
002FF001FF40
003FE002FF00
003FD003FE00
007FD007FD00
00BFC00BFC00
00BF800FF800
00FF802FF000
01FF407FD000
01FF96FF8000
02FFFFFE0000
03FE7FF80000
000005400000
ENDCHAR
STARTCHAR dcaron
ENCODING 271
SWIDTH 525 0
DWIDTH 17 0
BBX 23 24 -1 0
BITMAP
0000000001F4
0000000003F8
0000001AE2F8
0000007FD0F4
0000007FC0F0
000000BFC2D0
000000FF8100
000000FF8000
000BF9FF4000
007FFFFF0000
01FF47FF0000
03FD03FE0000
0BFC07FD0000
1FF407FD0000
2FF00BFC0000
3FE00FF80000
3FE00FF80000
7FD01FF40000
7FD01FF01800
7FD03FF02800
7FE0BFF07400
3FFFEFFFE000
1FFF4FFF8000
06F906F90000
ENDCHAR
STARTCHAR Dcroat
ENCODING 272
SWIDTH 663 0
DWIDTH 21 0
BBX 21 25 0 -1
BITMAP
0001AFF90000
001FFFFFD000
00BE401BF800
07F40502FD00
1FC2FF01FF00
3F43FE00FF40
7E03FD00FF40
BD07FD00BF80
BD0BFC00BF80
BD0BF800FF80
7D0FF800FF80
197FFF80FF40
00BFFF81FF40
002FF001FF00
003FE002FF00
003FD003FE00
007FD007FD00
00BFC00BFC00
00BF800FF800
00FF802FF000
01FF40BFD000
01FFD6FF8000
02FFFFFE0000
03FE7FF80000
000005400000
ENDCHAR
STARTCHAR dcroat
ENCODING 273
SWIDTH 525 0
DWIDTH 17 0
BBX 20 22 -1 0
BITMAP
00000016A0
0000007FD0
0000007FD0
00001FFFFE
00002FFFFD
000000FF80
000BF9FF40
007FFFFF40
01FF47FF00
03FD03FE00
0BFC07FD00
1FF407FD00
2FF00BFC00
3FE00FF800
3FE00FF800
7FD01FF400
7FD01FF018
7FD03FF028
7FE0BFF074
3FFFEFFFE0
1FFF4FFF80
06F906F900
ENDCHAR
STARTCHAR Emacron
ENCODING 274
SWIDTH 459 0
DWIDTH 15 0
BBX 18 30 0 -1
BITMAP
0001FFFFE0
0002FFFFE0
0000000000
0000000000
0000000000
00006FE000
0002FFFC00
000FF47D00
002FC02E00
007F802E00
00BF407D00
00BF40BC00
00BF401000
00BF800000
003FD00000
001FF80000
007FE40000
02FF800000
0BFE000000
1FFC000000
3FF4000000
7FF0000000
BFF0000000
BFF0000500
BFF0001C00
BFF800B400
7FFEABD000
2FFFFF4000
0BFFF80000
0055400000
ENDCHAR
STARTCHAR emacron
ENCODING 275
SWIDTH 384 0
DWIDTH 12 0
BBX 15 21 -1 0
BITMAP
00FFFFF4
01FFFFF0
00000000
00000000
00000000
000AF900
007FFF40
01FF4F80
03FD0B80
0BFC0F80
1FF41F40
2FF07E00
3FE2F800
3FFFE000
7FFA4000
7FD00010
7FD000A0
7FE00780
3FFFFE00
1FFFF800
06FE8000
ENDCHAR
STARTCHAR Ebreve
ENCODING 276
SWIDTH 459 0
DWIDTH 15 0
BBX 19 31 0 -1
BITMAP
0003F001F8
0002F807F0
0000FFBF80
00002FF900
0000000000
0000000000
00006FE000
0002FFFC00
000FF47D00
002FC02E00
007F802E00
00BF407D00
00BF40BC00
00BF401000
00BF800000
003FD00000
001FF80000
007FE40000
02FF800000
0BFE000000
1FFC000000
3FF4000000
7FF0000000
BFF0000000
BFF0000500
BFF0001C00
BFF800B400
7FFEABD000
2FFFFF4000
0BFFF80000
0055400000
ENDCHAR
STARTCHAR ebreve
ENCODING 277
SWIDTH 384 0
DWIDTH 12 0
BBX 15 23 -1 0
BITMAP
02F400F8
01F806F4
00BFBFD0
002BF900
00000000
00000000
00000000
000AF900
007FFF40
01FF4F80
03FD0B80
0BFC0F80
1FF41F40
2FF07E00
3FE2F800
3FFFE000
7FFA4000
7FD00010
7FD000A0
7FE00780
3FFFFE00
1FFFF800
06FE8000
ENDCHAR
STARTCHAR Edotaccent
ENCODING 278
SWIDTH 459 0
DWIDTH 15 0
BBX 16 32 0 -1
BITMAP
000002F4
000007FC
00000BFD
000007FC
000002F4
00000000
00000000
00006FE0
0002FFFC
000FF47D
002FC02E
007F802E
00BF407D
00BF40BC
00BF4010
00BF8000
003FD000
001FF800
007FE400
02FF8000
0BFE0000
1FFC0000
3FF40000
7FF00000
BFF00000
BFF00005
BFF0001C
BFF800B4
7FFEABD0
2FFFFF40
0BFFF800
00554000
ENDCHAR
STARTCHAR edotaccent
ENCODING 279
SWIDTH 384 0
DWIDTH 12 0
BBX 14 24 -1 0
BITMAP
00006E00
0000FF80
0001FFC0
0000FF80
00006E00
00000000
00000000
00000000
000AF900
007FFF40
01FF4F80
03FD0B80
0BFC0F80
1FF41F40
2FF07E00
3FE2F800
3FFFE000
7FFA4000
7FD00010
7FD000A0
7FE00780
3FFFFE00
1FFFF800
06FE8000
ENDCHAR
STARTCHAR Eogonek
ENCODING 280
SWIDTH 459 0
DWIDTH 15 0
BBX 16 30 0 -6
BITMAP
0006FF90
002FFFF8
00BFD07D
01FF002F
02FE002F
03FD003F
03FD00BE
02FE0064
01FF4000
00BFD000
001FF800
00BFF400
07FF8000
1FFD0000
2FF80000
7FF40000
7FF00000
BFF00000
BFF40005
7FF8001C
3FFE0074
1FFFFFD0
07FFFF40
01BFFD00
00007400
0001F000
0002E000
0003F480
0002FF40
0000A900
ENDCHAR
STARTCHAR eogonek
ENCODING 281
SWIDTH 384 0
DWIDTH 12 0
BBX 14 22 -1 -6
BITMAP
000AF900
007FFF40
01FF4F80
03FD0B80
0BFC0F80
1FF41F40
2FF07E00
3FE2F800
3FFFE000
7FFA4000
7FD00010
7FD000A0
7FE002C0
3FF9AF00
1FFFF800
06FFD000
000B4000
002E0000
003D0000
007E1800
003FF400
001A8000
ENDCHAR
STARTCHAR Ecaron
ENCODING 282
SWIDTH 459 0
DWIDTH 15 0
BBX 19 33 0 -1
BITMAP
0000140014
00000D01E0
00000B5F80
000007FE00
000003F400
000003D000
0000014000
0000000000
00006FE000
0002FFFC00
000FF47D00
002FC02E00
007F802E00
00BF407D00
00BF40BC00
00BF401000
00BF800000
003FD00000
001FF80000
007FE40000
02FF800000
0BFE000000
1FFC000000
3FF4000000
7FF0000000
BFF0000000
BFF0000500
BFF0001C00
BFF800B400
7FFEABD000
2FFFFF4000
0BFFF80000
0055400000
ENDCHAR
STARTCHAR ecaron
ENCODING 283
SWIDTH 384 0
DWIDTH 12 0
BBX 16 24 -1 0
BITMAP
0002800B
0001D0B8
0000FBE0
0000BF80
00007E00
00003800
00001000
00000000
000AFD00
007FFF40
01FF4F80
03FD0B80
0BFC0F80
1FF41F00
2FF07D00
3FE6F400
3FFF8000
7FE40000
7FD00070
7FD001D0
7FE00B80
3FFFFE00
1FFFF400
06FE4000
ENDCHAR
STARTCHAR Gcircumflex
ENCODING 284
SWIDTH 578 0
DWIDTH 19 0
BBX 18 38 0 -7
BITMAP
0000000A00
0000007F00
000001FF40
00000BE780
00002D01C0
0000500040
0000000000
00006FF900
0007FFFF80
002FF90BE0
00BFD003F0
02FF8003F0
07FE0007F0
0FFD000BE0
1FF8000B80
2FF4000000
3FF0000000
7FE0000000
7FE0001A90
7FE0002FD0
7FE0003FC0
7FE0007F80
3FE000FF80
2FF402FF40
1FFD1BFF00
0BFFFEFF00
02FFF6FE00
006A92FD00
001503FD00
00BF87FC00
03FFCBF800
07FADBF400
0BD00FF000
0BC01FE000
0BC02FC000
07E0BF4000
01FFFD0000
006FA00000
ENDCHAR
STARTCHAR gcircumflex
ENCODING 285
SWIDTH 507 0
DWIDTH 16 0
BBX 19 32 -1 -8
BITMAP
000000A000
000002F000
00000FF400
00007FB800
0001F83C00
0007801C00
0000000000
0000000000
000BF9FF40
007FFFFF00
01FF47FE00
03FD03FE00
0BFC07FD00
1FF407FD00
2FF00BFC00
3FE00FF800
3FE00FF800
7FD01FF400
7FD02FF024
7FD03FF070
7FE0BFE0E0
3FFFFFD2C0
1FFFBFEF40
06F9BFF800
0006FFC000
002FFF8000
00F9FF4000
02D1FF0000
03C2FE0000
03C7FD0000
01FFF80000
006F900000
ENDCHAR
STARTCHAR Gbreve
ENCODING 286
SWIDTH 578 0
DWIDTH 19 0
BBX 21 37 0 -7
BITMAP
00003F001F40
00003F002F00
00002F91BD00
00000BFFF400
000001AA4000
000000000000
00006FF90000
0007FFFF8000
002FF90BE000
00BFD003F000
02FF8003F000
07FE0007F000
0FFD000FE000
1FF800068000
2FF400000000
3FF000000000
7FE000000000
7FE0001FD000
7FE0002FC000
7FE0003FC000
7FE0007F8000
3FE000FF4000
2FF402FF4000
1FFD1BFF0000
0BFFFEFF0000
02FFF6FE0000
006A92FD0000
001503FD0000
00BF87FC0000
03FFCBF80000
07FADBF40000
0BD00FF00000
0BC01FE00000
0BC02FC00000
07E0BF400000
01FFFD000000
006FA0000000
ENDCHAR
STARTCHAR gbreve
ENCODING 287
SWIDTH 507 0
DWIDTH 16 0
BBX 19 31 -1 -8
BITMAP
000F8007D0
000FC00FC0
000BE07F40
0002FFF900
00006A9000
0000000000
0000000000
000BF9FF40
007FFFFF00
01FF47FE00
03FD03FE00
0BFC07FD00
1FF407FD00
2FF00BFC00
3FE00FF800
3FE00FF800
7FD01FF400
7FD02FF024
7FD03FF070
7FE0BFE0E0
3FFFFFD2C0
1FFFBFEF40
06F9BFF800
0006FFC000
002FFF8000
00F9FF4000
02D1FF0000
03C2FE0000
03C7FD0000
01FFF80000
006F900000
ENDCHAR
STARTCHAR Gdotaccent
ENCODING 288
SWIDTH 578 0
DWIDTH 19 0
BBX 18 38 0 -7
BITMAP
000001B800
000003FE00
000007FE00
000003FE00
000001B800
0000000000
0000000000
00006FF900
0007FFFF80
002FF90BE0
00BFD003F0
02FF8003F0
07FE0007F0
0FFD000FE0
1FF8000680
2FF4000000
3FF0000000
7FE0000000
7FE0001FD0
7FE0002FC0
7FE0003FC0
7FE0007F80
3FE000FF40
2FF402FF40
1FFD1BFF00
0BFFFEFF00
02FFF6FE00
006A92FD00
001503FD00
00BF87FC00
03FFCBF800
07FADBF400
0BD00FF000
0BC01FE000
0BC02FC000
07E0BF4000
01FFFD0000
006FA00000
ENDCHAR
STARTCHAR gdotaccent
ENCODING 289
SWIDTH 507 0
DWIDTH 16 0
BBX 19 32 -1 -8
BITMAP
00000BD000
00001FF400
00002FF400
00001FF400
00000BD000
0000000000
0000000000
0000000000
000BF9FF40
007FFFFF00
01FF47FE00
03FD03FE00
0BFC07FD00
1FF407FD00
2FF00BFC00
3FE00FF800
3FE00FF800
7FD01FF400
7FD02FF024
7FD03FF070
7FE0BFE0E0
3FFFFFD2C0
1FFFBFEF40
06F9BFF800
0006FFC000
002FFF8000
00F9FF4000
02D1FF0000
03C2FE0000
03C7FD0000
01FFF80000
006F900000
ENDCHAR
STARTCHAR Gcommaaccent
ENCODING 290
SWIDTH 578 0
DWIDTH 19 0
BBX 17 32 0 -8
BITMAP
00006FE400
0006FFFE00
001FF82F40
007FE01F80
01FF801F80
03FF002F80
07FE007F40
0FFD000400
1FF8000000
2FF4000000
3FF4000000
7FF0000000
BFE0002FC0
BFE0003F80
BFE0007F80
BFE000BF40
BFE000FF40
BFE001FF00
BFE003FE00
7FF00BFE00
3FF81FFD00
1FFFFFFC00
0BFFE7FC00
01BF4BF800
0000000000
0000000000
0007D00000
000BF00000
0003E00000
0002D00000
0003800000
0006000000
ENDCHAR
STARTCHAR gcommaaccent
ENCODING 291
SWIDTH 507 0
DWIDTH 16 0
BBX 19 32 -1 -8
BITMAP
0000014000
0000074000
00000F0000
00001F4000
00001FC000
00000F4000
0000000000
0000000000
000BF9FF40
007FFFFF00
01FF47FE00
03FD03FE00
0BFC07FD00
1FF407FD00
2FF00BFC00
3FE00FF800
3FE00FF800
7FD01FF400
7FD02FF024
7FD03FF070
7FE0BFE0E0
3FFFFFD2C0
1FFFBFEF40
06F9BFF800
0006FFC000
002FFF8000
00F9FF4000
02D1FF0000
03C2FE0000
03C7FD0000
01FFF80000
006F900000
ENDCHAR
STARTCHAR Hcircumflex
ENCODING 292
SWIDTH 665 0
DWIDTH 21 0
BBX 22 32 0 0
BITMAP
000000001000
00000000B800
00000002FC00
0000000BFD00
0000003F5E00
000001F40B00
000001400100
000000000000
0001AF802FF0
001BFF802FF0
00BFFF403FE0
02F5FF403FD0
0FD2FF007FD0
2F42FE00BFC0
7F03FE00BF80
7E07FD00FF80
BD07FC00FF40
7D0BFC01FF40
3D0FFFFFFF00
190FFFFFFE00
001FF957FE00
002FF007FD00
002FF007FC00
003FE00BFC00
007FD00FF800
007FD00FF800
00BFC01FF400
00BF801FF000
00FF802FF000
01FF403FE000
01FF003FD000
02FF007FD000
ENDCHAR
STARTCHAR hcircumflex
ENCODING 293
SWIDTH 505 0
DWIDTH 16 0
BBX 19 29 -1 0
BITMAP
0000240000
0001F80000
0007FC0000
001FAD0000
007D0E0000
02D0070000
0000000000
006BC00000
00BF800000
00FF800000
01FF400000
01FF000000
02FF000000
03FE6F9000
03FEFFF400
07FFFFF800
0BFE0FF800
0BFC0BF800
0FF80FF800
0FF40FF400
1FF41FF000
2FF02FF000
2FE02FE000
3FE03FD024
7FD03FD070
7FC07FD1E0
BFC03FFFC0
FF802FFF40
FF400BF800
ENDCHAR
STARTCHAR Hbar
ENCODING 294
SWIDTH 665 0
DWIDTH 21 0
BBX 24 24 0 0
BITMAP
0001AF802FF0
001FFF802FF0
00BEFF403FE0
03E1FF403FD0
0FC2FF007FD0
2F42FE00BFC0
7E1FFFFFFFFE
BE1BFEAAFFA9
BD07FC01FF40
7D0BFC01FF40
2D0FFFFFFF00
050FFFFFFE00
001FF403FE00
002FF007FD00
002FE007FC00
003FE00BFC00
007FD00FF800
007FD00FF800
00BFC01FF400
00FF802FF000
00FF802FF000
01FF403FE000
01FF007FD000
02FF007FD000
ENDCHAR
STARTCHAR hbar
ENCODING 295
SWIDTH 505 0
DWIDTH 16 0
BBX 19 23 -1 0
BITMAP
0016800000
00BFC00000
00FF800000
1FFFFE0000
2FFFFD0000
02FF000000
02FF000000
03FE6F9000
03FEFFF400
07FFFFF800
0BFE0FF800
0BFC0BF800
0FF80FF800
1FF40FF400
1FF41FF000
2FF02FE000
3FE02FE000
3FE03FD024
7FD03FD070
7FC07FD1E0
BFC03FFFC0
FF802FFF40
FF400BF800
ENDCHAR
STARTCHAR Itilde
ENCODING 296
SWIDTH 375 0
DWIDTH 12 0
BBX 17 30 0 0
BITMAP
0000540000
000BFF9040
003FFFFE00
00506FE400
0000000000
0000000000
0001AF8000
001FFF4000
01BEFF4000
07E2FF0000
1F82FE0000
3F03FE0000
7E07FD0000
BD07FC0000
BD0BFC0000
BD0FF80000
3D0FF40000
051FF40000
002FF00000
002FF00000
003FE00000
007FD00000
007FD00000
00BFC00000
00BF800000
00FF800000
01FF400000
01FF000000
02FF000000
03FE000000
ENDCHAR
STARTCHAR itilde
ENCODING 297
SWIDTH 267 0
DWIDTH 9 0
BBX 11 22 -1 0
BITMAP
005400
07FFA4
0FFFE0
106F80
000000
000000
03FE00
03FD00
07FD00
0BFC00
0BF800
0FF800
1FF400
1FF400
2FF000
3FE000
3FE028
7FD034
7FE1E0
3FFFD0
2FFF40
0BE400
ENDCHAR
STARTCHAR Imacron
ENCODING 298
SWIDTH 375 0
DWIDTH 12 0
BBX 16 29 0 0
BITMAP
002FFFFD
003FFFFD
00000000
00000000
00000000
0001AF80
001FFF40
01BEFF40
07E2FF00
1F82FE00
3F03FE00
7E07FD00
BD07FC00
BD0BFC00
BD0FF800
3D0FF400
051FF400
002FF000
002FF000
003FE000
007FD000
007FD000
00BFC000
00BF8000
00FF8000
01FF4000
01FF0000
02FF0000
03FE0000
ENDCHAR
STARTCHAR imacron
ENCODING 299
SWIDTH 267 0
DWIDTH 9 0
BBX 11 21 -1 0
BITMAP
0FFFF4
1FFFF4
000000
000000
000000
03FE00
03FD00
07FD00
0BFC00
0BF800
0FF800
1FF400
1FF400
2FF000
3FE000
3FE028
7FD034
7FE1E0
3FFFD0
2FFF40
0BE400
ENDCHAR
STARTCHAR Ibreve
ENCODING 300
SWIDTH 375 0
DWIDTH 12 0
BBX 17 30 0 0
BITMAP
001F800BC0
001FC02F40
000BFBFD00
0001BF9000
0000000000
0000000000
0001AF8000
001FFF4000
01BEFF4000
07E2FF0000
1F82FE0000
3F03FE0000
7E07FD0000
BD07FC0000
BD0BFC0000
BD0FF80000
3D0FF40000
051FF40000
002FF00000
002FF00000
003FE00000
007FD00000
007FD00000
00BFC00000
00BF800000
00FF800000
01FF400000
01FF000000
02FF000000
03FE000000
ENDCHAR
STARTCHAR ibreve
ENCODING 301
SWIDTH 267 0
DWIDTH 9 0
BBX 12 23 -1 0
BITMAP
0F403D
0B80BC
07FBF4
01BE40
000000
000000
000000
03FE00
03FD00
07FD00
0BFC00
0BF800
0FF800
1FF400
1FF400
2FF000
3FE000
3FE028
7FD034
7FE1E0
3FFFD0
2FFF40
0BE400
ENDCHAR
STARTCHAR Iogonek
ENCODING 302
SWIDTH 375 0
DWIDTH 12 0
BBX 13 38 0 -7
BITMAP
001FC000
000FC000
000BD000
0007D000
0003E000
0002E000
00000000
0001AF80
001FFF40
01BEFF40
07E2FF00
1F82FE00
3F03FE00
7E07FD00
BD07FC00
BD0BFC00
BD0FF800
3D0FF400
051FF400
002FF000
002FF000
003FE000
007FD000
007FD000
00BFC000
00BF8000
00FF8000
01FF4000
01FF0000
02FF0000
03FE0000
01D00000
07800000
0B800000
0F800000
0FD1C000
0BFF4000
02B90000
ENDCHAR
STARTCHAR iogonek
ENCODING 303
SWIDTH 267 0
DWIDTH 9 0
BBX 12 29 -2 -7
BITMAP
001B80
003FE0
003FF0
003FE0
001B80
000000
00FF80
00FF40
01FF40
02FF00
02FE00
03FE00
07FD00
07FD00
0BFC00
0FF800
0FF80A
1FF40D
1FF878
0FFFF4
0BFFD0
03F900
0B0000
2E0000
3D0000
7D0000
7E0600
3FFD00
0BE000
ENDCHAR
STARTCHAR Idotaccent
ENCODING 304
SWIDTH 375 0
DWIDTH 12 0
BBX 14 31 0 0
BITMAP
00001B80
00003FE0
00003FF0
00003FE0
00001B80
00000000
00000000
0001AF80
001FFF40
01BEFF40
07E2FF00
1F82FE00
3F03FE00
7E07FD00
BD07FC00
BD0BFC00
BD0FF800
3D0FF400
051FF400
002FF000
002FF000
003FE000
007FD000
007FD000
00BFC000
00BF8000
00FF8000
01FF4000
01FF0000
02FF0000
03FE0000
ENDCHAR
STARTCHAR dotlessi
ENCODING 305
SWIDTH 267 0
DWIDTH 9 0
BBX 11 16 -1 0
BITMAP
03FE00
03FD00
07FD00
0BFC00
0BF800
0FF800
1FF400
1FF400
2FF000
3FE000
3FE028
7FD034
7FE1E0
3FFFD0
2FFF40
0BE400
ENDCHAR
STARTCHAR IJ
ENCODING 306
SWIDTH 663 0
DWIDTH 21 0
BBX 22 31 0 -7
BITMAP
0001AF800690
001FFF407FD0
01BEFF40BFC0
07E2FF00BF80
1F82FE00FF80
3F03FE01FF40
7E07FD01FF40
BD07FC02FF00
BD0BFC03FE00
BD0FF803FE00
3D0FF407FD00
051FF40BFC00
002FF00BFC00
002FF00FF800
003FE01FF400
007FD01FF400
007FD02FF000
00BFC03FF000
00BF803FE000
00FF807FD000
01FF40BFD000
01FF00BFC000
02FF90FF8000
03FFF1FF8000
00FEB1FF4000
01F802FF0000
01F403FE0000
01F407FC0000
00FD1FF40000
007FFFD00000
000AF9000000
ENDCHAR
STARTCHAR ij
ENCODING 307
SWIDTH 507 0
DWIDTH 16 0
BBX 19 30 -1 -8
BITMAP
006E002E40
00FF80BFC0
00FFC0FFC0
00FF80BFC0
006E002E40
0000000000
03FE01FF40
03FD02FF00
07FD02FE00
0BFC03FE00
0BF807FD00
0FF807FD00
1FF40BFC00
1FF40FF800
2FF00FF800
3FE01FF400
3FE01FF024
7FD02FF070
7FE03FE0E0
3FFE3FD2C0
2FFC7FEF40
0BE4BFF800
0002FFC000
002FFF8000
00F5FF4000
02D1FF0000
03C3FE0000
03EBFD0000
01FFF80000
006F900000
ENDCHAR
STARTCHAR Jcircumflex
ENCODING 308
SWIDTH 536 0
DWIDTH 17 0
BBX 21 39 0 -7
BITMAP
000000001400
000000007C00
00000001FD00
0000000BFE00
0000002F9F00
000000B80700
000001400140
000000000000
0000001BF400
000002FFF400
00001FEFF000
00007E2FE000
0001F83FE000
0007E07FD000
000BD07FC000
000FC0BFC000
000FC0FF8000
000BC0FF8000
0007C1FF4000
000042FF0000
000002FF0000
000003FE0000
000007FD0000
000007FD0000
00000BFC0000
00000FFC0000
00000FF80000
00001FF40000
00002FF40000
01502FF00000
0BFD3FE00000
2FFE7FE00000
7FAA7FD00000
7E00BFC00000
7D00FF800000
7D01FF000000
3F47FD000000
1FFFF4000000
06FE40000000
ENDCHAR
STARTCHAR jcircumflex
ENCODING 309
SWIDTH 240 0
DWIDTH 8 0
BBX 16 32 -7 -8
BITMAP
00000074
000001F8
000007FC
00001FBD
0000B91E
00029007
00000000
00000000
00003FE0
00003FE0
00007FD0
0000BFC0
0000BFC0
0000FF80
0001FF40
0001FF40
0002FF00
0002FF00
0003FE05
0007FD0A
0007FD0D
000BFC28
000FF8A0
000FFF40
006FF800
07FFF000
1FAFF000
3D3FE000
743FD000
74BF8000
3FFF0000
0BF80000
ENDCHAR
STARTCHAR Kcommaaccent
ENCODING 310
SWIDTH 601 0
DWIDTH 19 0
BBX 21 32 0 -8
BITMAP
0001AF801F80
001FFF407F00
00BEFF40FD00
07E2FF02F400
1FC2FE07E000
2F43FE0F8000
7E07FD2F0000
BD07FD7D0000
BD0BFCF40000
BD0FFAD00000
7D0FFF800000
191FFFFE4000
002FF5BFC000
002FF03FD000
003FE03FD000
007FD03FD000
007FD03FC000
00BFC07FC000
00BF80BF8000
00FF80FF4000
01FF41FF0000
01FF01FF0000
02FF02FF0000
03FE01FF4000
000000550000
000000000000
0000B8000000
0000FD000000
00007D000000
00003C000000
000074000000
000090000000
ENDCHAR
STARTCHAR kcommaaccent
ENCODING 311
SWIDTH 518 0
DWIDTH 17 0
BBX 19 31 -1 -8
BITMAP
0000400000
006FC00000
00BF800000
00FF800000
01FF400000
01FF000000
02FF000000
03FE00BD00
03FD02E000
07FD1F8000
0BFC7D0000
0BFEFA4000
0FFFFFD000
1FFFFFF000
1FF92FF400
2FF01FF400
2FE02FF000
3FE02FF018
7FD03FE034
7FC03FE0B0
BFC03FFFD0
FF801FFF40
FF4006F900
0000000000
0000000000
001F400000
002F800000
000F800000
000B400000
000E000000
0018000000
ENDCHAR
STARTCHAR kgreenlandic
ENCODING 312
SWIDTH 518 0
DWIDTH 17 0
BBX 19 16 -1 0
BITMAP
03FE00BD00
03FD02E000
07FD1F8000
0BFC7D0000
0BFEFA4000
0FFFFFD000
1FFFFFF000
1FF92FF400
2FF01FF400
3FE02FF000
3FE02FF018
7FD03FE034
7FC03FE0B0
BFC03FFFD0
FF801FFF40
FF4006F900
ENDCHAR
STARTCHAR Lacute
ENCODING 313
SWIDTH 379 0
DWIDTH 12 0
BBX 21 40 0 -8
BITMAP
000000690000
000000BD0000
000001F80000
000002F00000
000007D00000
00000B800000
000006000000
000000000000
0001AF800000
001FFF400000
01BEFF400000
07E2FF000000
1F82FE000000
3F03FE000000
7E07FD000000
BD07FC000000
BD0BFC000000
BD0FF8000000
3D0FF4000000
051FF4000000
002FF0000000
002FF0000000
003FE0000000
007FD0000000
007FD0000000
00BFC0000000
00FF80000000
00FF80000000
01FF40000000
01FF00000000
02FF00000000
03FF80000000
02AFF8000000
0006FF400000
00007FE40000
00000BFE4040
000002FFFFC0
0000007FFF80
0000000BFF40
00000001BD00
ENDCHAR
STARTCHAR lacute
ENCODING 314
SWIDTH 267 0
DWIDTH 9 0
BBX 12 30 -1 0
BITMAP
00002A
00007E
0000FC
0001F4
0003E0
0007C0
000640
000000
005A80
00BFC0
00FF80
01FF40
01FF40
02FF00
03FE00
03FE00
07FD00
0BFC00
0BFC00
0FF800
1FF400
1FF400
2FF000
3FE000
3FE028
7FD034
7FE1E0
3FFFC0
2FFF40
0BE400
ENDCHAR
STARTCHAR Lcommaaccent
ENCODING 315
SWIDTH 379 0
DWIDTH 12 0
BBX 21 32 0 -8
BITMAP
0001AF800000
001FFF400000
01BEFF400000
07E2FF000000
1F82FE000000
3F03FE000000
7E07FD000000
BD07FC000000
BD0BFC000000
BD0FF8000000
3D0FF4000000
051FF4000000
002FF0000000
002FF0000000
003FE0000000
007FD0000000
007FD0000000
00BFC0000000
00FF80000000
00FF80000000
01FF40000000
01FF00000000
02FF00000000
03FF80000000
02AFF8000000
0006FF400000
02907FE40000
07F00BFE4040
07F002FFFFC0
02E0007FFF80
0280000BFF40
02000001BD00
ENDCHAR
STARTCHAR lcommaaccent
ENCODING 316
SWIDTH 267 0
DWIDTH 9 0
BBX 11 31 -1 -8
BITMAP
000040
00BFC0
00FF80
00FF80
01FF40
01FF00
02FF00
03FE00
03FD00
07FD00
0BFC00
0BF800
0FF800
1FF400
1FF400
2FF000
3FE000
3FE028
7FD034
7FE1E0
3FFFC0
2FFF40
0BE400
000000
000000
1E0000
3F4000
1F4000
0F0000
1D0000
240000
ENDCHAR
STARTCHAR Lcaron
ENCODING 317
SWIDTH 379 0
DWIDTH 12 0
BBX 21 40 0 -8
BITMAP
000010005000
00002806D000
00001E6F4000
00000FFD0000
00000BF00000
000007800000
000001000000
000000000000
0001AF800000
001FFF400000
01BEFF400000
07E2FF000000
1F82FE000000
3F03FE000000
7E07FD000000
BD07FC000000
BD0BFC000000
BD0FF8000000
3D0FF4000000
051FF4000000
002FF0000000
002FF0000000
003FE0000000
007FD0000000
007FD0000000
00BFC0000000
00FF80000000
00FF80000000
01FF40000000
01FF00000000
02FF00000000
03FF80000000
02AFF8000000
0006FF400000
00007FE40000
00000BFE4040
000002FFFFC0
0000007FFF80
0000000BFF40
00000001BD00
ENDCHAR
STARTCHAR lcaron
ENCODING 318
SWIDTH 267 0
DWIDTH 9 0
BBX 14 24 -1 0
BITMAP
000007D0
00000FE0
005A8BE0
00BFC3E0
00FF83C0
01FF4740
01FF4900
02FF0000
03FE0000
03FE0000
07FD0000
0BFC0000
0BFC0000
0FF80000
1FF40000
1FF40000
2FF00000
3FE00000
3FE01800
7FD03400
7FE1E000
3FFFD000
2FFF4000
0BE40000
ENDCHAR
STARTCHAR Ldot
ENCODING 319
SWIDTH 605 0
DWIDTH 19 0
BBX 21 32 0 -8
BITMAP
0001AF800000
001FFF400000
00BFFF400000
03F6FF000000
0FC2FE000000
2F43FE000000
7E07FD000000
BD07FC000000
BD0BFC000000
BD0FF8000000
BD0FF4000000
2D1FF4000000
002FF0000000
002FF0000000
003FE01B8000
007FD03FE000
007FD03FF000
00BFC03FE000
00BF801B8000
00FF80000000
01FF40000000
01FF00000000
02FF00000000
03FF40000000
02AFF4000000
0006FF400000
00007FE00000
00000BFE4040
000002FFFFC0
0000007FFF80
0000000BFF40
00000001BD00
ENDCHAR
STARTCHAR ldot
ENCODING 320
SWIDTH 353 0
DWIDTH 11 0
BBX 12 23 -1 0
BITMAP
000140
00BFC0
00FF80
00FF80
01FF40
02FF00
02FF00
03FE00
03FD00
07FD00
0BFC7D
0BF8FF
0FF8FF
1FF47D
1FF400
2FF000
3FE000
3FE000
7FD000
7FE000
3FFE00
2FFC00
0BE400
ENDCHAR
STARTCHAR Lslash
ENCODING 321
SWIDTH 392 0
DWIDTH 13 0
BBX 21 32 0 -8
BITMAP
0001AF800000
001FFF400000
01BEFF400000
07E2FF000000
1F82FE000000
3F03FE000000
7E07FD040000
BD07FC780000
BD0BFEF40000
BD0FFF800000
3D0FF9000000
051FF4000000
002FF0000000
01FFF0000000
03BFE0000000
013FD0000000
007FD0000000
00BFC0000000
00BF80000000
00FF80000000
01FF40000000
01FF00000000
02FF00000000
03FF80000000
02AFF8000000
0006FF400000
00007FE40000
00000BFE4040
000002FFFFC0
0000007FFF80
0000000BFF40
00000001BD00
ENDCHAR
STARTCHAR lslash
ENCODING 322
SWIDTH 286 0
DWIDTH 9 0
BBX 12 23 -1 0
BITMAP
000140
00BFC0
00FF80
00FF80
01FF40
01FF00
02FF09
03FE7D
03FFE4
07FF40
0BFC00
0FF800
7FF800
FFF400
5FF400
2FF000
3FE000
3FE028
7FD034
7FE1E0
3FFFC0
2FFF40
0BE400
ENDCHAR
STARTCHAR Nacute
ENCODING 323
SWIDTH 702 0
DWIDTH 22 0
BBX 23 32 0 0
BITMAP
000000000690
000000000BD0
000000001F80
000000002F40
000000003E00
00000000BC00
000000006400
000000000000
0006FE4001FC
007FFF8001F8
02FAFFC002F4
0BD2FFC003F4
2F82FFD003F0
7F03FFE007E0
BE07FFE007E0
BD07FFF00BD0
BD0BFFF40FC0
BD0FDFF40FC0
7E0FCFF81F80
1A1FCBFC1F40
002F87FC2F40
002F43FD3F00
003F43FE3E00
007F02FE7E00
007E01FFBD00
00BD01FFFD00
00FD00FFFC00
00FC00BFF800
01F8007FF800
02F8007FF400
02F4003FF000
03F0002FF000
ENDCHAR
STARTCHAR nacute
ENCODING 324
SWIDTH 505 0
DWIDTH 16 0
BBX 19 24 -1 0
BITMAP
000000FD00
000001F800
000003F000
000007D000
00000B8000
00001F4000
0000000000
0000000000
03FE6F9000
03FEFFF400
07FFFFF800
0BFE0FF800
0BFC0BF800
0FF80FF800
1FF40FF400
1FF41FF000
2FF02FF000
3FE02FE000
3FE03FD024
7FD03FD070
7FC07FD1E0
BFC03FFFC0
FF802FFF40
FF400BF800
ENDCHAR
STARTCHAR Ncommaaccent
ENCODING 325
SWIDTH 668 0
DWIDTH 21 0
BBX 23 32 0 -8
BITMAP
0006FE4001FC
007FFF8001F8
02FAFFC002F4
0BD2FFC003F4
2F82FFD003F0
7F03FFE007E0
BE07FFE007E0
BD07FFF00BD0
BD0BFFF40FC0
BD0FDFF40FC0
7E0FCFF81F80
1A1FCBFC1F40
002F87FC2F40
002F43FD3F00
003F43FE3E00
007F02FE7E00
007E01FFBD00
00BD01FFFD00
00FD00FFFC00
00FC00BFF800
01F8007FF800
02F8007FF400
02F4003FF000
03F0002FF000
000000000000
000000000000
0000B8000000
0000FD000000
0000BD000000
000038000000
0000B0000000
000080000000
ENDCHAR
STARTCHAR ncommaaccent
ENCODING 326
SWIDTH 505 0
DWIDTH 16 0
BBX 19 24 -1 -8
BITMAP
03FE6F9000
03FEFFF400
07FFFFF800
0BFE0FF800
0BFC0BF800
0FF80FF800
1FF40FF400
1FF41FF000
2FF02FF000
3FE02FE000
3FE03FD024
7FD03FD070
7FC07FD1E0
BFC03FFFC0
FF802FFF40
FF400BF800
0000000000
0000000000
003D000000
007F000000
003E000000
001D000000
0038000000
0060000000
ENDCHAR
STARTCHAR Ncaron
ENCODING 327
SWIDTH 668 0
DWIDTH 21 0
BBX 23 32 0 0
BITMAP
000000040014
0000000B01B4
000000078BD0
00000003FF40
00000002FC00
00000001E000
000000004000
000000000000
0006FE4001FC
007FFF8001F8
02FAFFC002F4
0BD2FFC003F4
2F82FFD003F0
7F03FFE007E0
BE07FFE007E0
BD07FFF00BD0
BD0BFFF40FC0
BD0FDFF40FC0
7E0FCFF81F80
1A1FCBFC1F40
002F87FC2F40
002F43FD3F00
003F43FE3E00
007F02FE7E00
007E01FFBD00
00BD01FFFD00
00FD00FFFC00
00FC00BFF800
01F8007FF800
02F8007FF400
02F4003FF000
03F0002FF000
ENDCHAR
STARTCHAR ncaron
ENCODING 328
SWIDTH 505 0
DWIDTH 16 0
BBX 19 24 -1 0
BITMAP
0003001E00
000281F400
0002EFD000
0001FF4000
0000FC0000
0000A00000
0000000000
0000000000
03FE6F9000
03FEFFF400
07FFFFF800
0BFE0FF800
0BFC0BF800
0FF80FF800
1FF40FF400
1FF41FF000
2FF02FF000
3FE02FE000
3FE03FD024
7FD03FD070
7FC07FD1E0
BFC03FFFC0
FF802FFF40
FF400BF800
ENDCHAR
STARTCHAR napostrophe
ENCODING 329
SWIDTH 505 0
DWIDTH 16 0
BBX 19 24 -1 0
BITMAP
07D0000000
0BF0000000
0BF0000000
02E0000000
02D0000000
0740000000
0500000000
0000000000
03FE6F9000
03FEFFF400
07FFFFF800
0BFE0FF800
0BFC0BF800
0FF80FF800
1FF40FF400
1FF41FF000
2FF02FF000
3FE02FE000
3FE03FD024
7FD03FD070
7FC07FD1E0
BFC03FFFC0
FF802FFF40
FF400BF800
ENDCHAR
STARTCHAR Eng
ENCODING 330
SWIDTH 723 0
DWIDTH 23 0
BBX 24 30 1 -6
BITMAP
0006BF8000BE
002FFFD000BD
01FEFFD000FC
07F4FFE001FC
1FD0FFF001F8
2F41FFF002F4
3F02FFF403F4
7F03FFF803F0
7E03FFF807E0
7F07EBFC0BD0
2F0BE7FD0BD0
064BD3FD0FC0
000FC2FE1F80
001FC2FF1F80
001F81FF2F40
002F40FF6F00
003F00BFBF00
003F007FFE00
007E003FFD00
00BD003FFD00
00BD002FFC00
00FC001FF800
01F8000FF400
01F8000BF000
0001A00BE000
0007E00FD000
0007D02F8000
0007E07F0000
0002FAFD0000
00006FA00000
ENDCHAR
STARTCHAR eng
ENCODING 331
SWIDTH 505 0
DWIDTH 16 0
BBX 15 24 -1 -8
BITMAP
03FE6F90
07FEFFF0
07FFFFF4
0BFE0FF4
0BFC0FF4
0FF80FF4
1FF40FF4
1FF01FF0
2FF02FF0
3FE02FE0
3FE03FD0
7FD07FD0
BFC07FC0
BFC0BF80
FF80FF80
FF40FF40
000BFF00
007AFF00
01D2FE00
0303FD00
0607FC00
060FF800
03FFE000
00BE4000
ENDCHAR
STARTCHAR Omacron
ENCODING 332
SWIDTH 665 0
DWIDTH 21 0
BBX 21 29 0 0
BITMAP
00003FFFFD00
00007FFFFC00
000000000000
000000000000
000000000000
00006BFE8000
0007FFFFF400
007F9006FD00
02FD0A90FF00
0BE07F80BF40
1FC1FE007F80
3F43FD007FC0
7E0BF8007FC0
7E1FF4007FC0
7D2FF0007FC0
3D3FE000BF80
05BFD000BF80
00BFC000FF40
00FF8001FF40
01FF8002FF00
01FF4003FE00
01FF4007FD00
02FF400BF800
02FF401FF000
01FF403FD000
00FF80BF8000
00BFEBFE0000
003FFFF40000
0006FE400000
ENDCHAR
STARTCHAR omacron
ENCODING 333
SWIDTH 433 0
DWIDTH 14 0
BBX 19 21 -1 0
BITMAP
00BFFFF800
00BFFFF400
0000000000
0000000000
0000000000
000AF90000
007FFF4000
01FF4BC000
07FD07C014
0FF80FD1B4
1FF41FFF80
2FF00BE400
3FE00BC000
7FD00F8000
7FD01F8000
BFC02F4000
BFD03E0000
7FD0FD0000
7FFFF80000
2FFFD00000
06FE400000
ENDCHAR
STARTCHAR Obreve
ENCODING 334
SWIDTH 665 0
DWIDTH 21 0
BBX 22 30 0 0
BITMAP
00001F800BD0
00000FD01F80
000007FEFE00
000001BFA000
000000000000
000000000000
00006BFE8000
0007FFFFF400
007F9006FD00
02FD0A90FF00
0BE07F80BF40
1FC1FE007F80
3F43FD007FC0
7E0BF8007FC0
7E1FF4007FC0
7D2FF0007FC0
3D3FE000BF80
05BFD000BF80
00BFC000FF40
00FF8001FF40
01FF8002FF00
01FF4003FE00
01FF4007FD00
02FF400BF800
02FF401FF000
01FF403FD000
00FF80BF8000
00BFEBFE0000
003FFFF40000
0006FE400000
ENDCHAR
STARTCHAR obreve
ENCODING 335
SWIDTH 433 0
DWIDTH 14 0
BBX 19 23 -1 0
BITMAP
00BD003F00
007E00BD00
002FEFF400
0006FE4000
0000000000
0000000000
0000000000
000AF90000
007FFF4000
01FF4BC000
07FD07C014
0FF80FD1B4
1FF41FFF80
2FF00BE400
3FE00BC000
7FD00F8000
7FD01F8000
BFC02F4000
BFD03E0000
7FD0FD0000
7FFFF80000
2FFFD00000
06FE400000
ENDCHAR
STARTCHAR Ohungarumlaut
ENCODING 336
SWIDTH 665 0
DWIDTH 21 0
BBX 23 32 0 0
BITMAP
00000007E1FC
0000000FC2F4
0000001F47D0
0000003E0B80
000000781F00
000000F02D00
000000000000
000000000000
00006BFE8000
0007FFFFF400
007F9006FD00
02FD0A90FF00
0BE07F80BF40
1FC1FE007F80
3F43FD007FC0
7E0BF8007FC0
7E1FF4007FC0
7D2FF0007FC0
3D3FE000BF80
05BFD000BF80
00BFC000FF40
00FF8001FF40
01FF8002FF00
01FF4003FE00
01FF4007FD00
02FF400BF800
02FF401FF000
01FF403FD000
00FF80BF8000
00BFEBFE0000
003FFFF40000
0006FE400000
ENDCHAR
STARTCHAR ohungarumlaut
ENCODING 337
SWIDTH 433 0
DWIDTH 14 0
BBX 19 24 -1 0
BITMAP
0000BD2F80
0001F83E00
0002F0BC00
0007D0F400
000B42E000
001E038000
0000000000
0000000000
000AF90000
007FFF4000
01FF4BC000
07FD07C014
0FF80FD1B4
1FF41FFF80
2FF00BE400
3FE00BC000
7FD00F8000
7FD01F8000
BFC02F4000
BFD03E0000
7FD0FD0000
7FFFF80000
2FFFD00000
06FE400000
ENDCHAR
STARTCHAR OE
ENCODING 338
SWIDTH 846 0
DWIDTH 27 0
BBX 29 24 0 0
BITMAP
00006BFFAFFFFFC0
0007FFFFFFFFFF80
007F9556FFABFE00
02FD2F80FF000000
0BE0FF00BF400000
1F82FD007F800000
3F4BFC007FC00000
7E0FF8007FC00000
7E2FF0007FC00000
7D3FE0007FC00000
2D7FE0007FD54000
05BFD000BFFFC000
00FFC000FFFF8000
00FF8000FF400000
01FF8001FF000000
01FF4002FE000000
02FF4003FD000000
02FF400BFC000000
01FF400FF4000000
01FF402FE0000000
00FF407FC0000000
00BFC1FFFFFF4000
003FFFFFFFFF4000
0006FFFFFFFF0000
ENDCHAR
STARTCHAR oe
ENCODING 339
SWIDTH 663 0
DWIDTH 21 0
BBX 24 16 -1 0
BITMAP
000AF901BE40
007FFF4BFFE0
02FE0BAFE1F0
07FC07FFC0F0
0FF41FFF40E0
1FF02FFF01D0
2FE02FFE0780
3FD00BFD1E00
3FD00BFEF400
3FC00FFE4001
7FC01FF8000A
7FC02FF80028
3FE07FFC00B0
2FFFFBFF5BC0
1FFFE1FFFE00
06FE406FE400
ENDCHAR
STARTCHAR Racute
ENCODING 340
SWIDTH 601 0
DWIDTH 19 0
BBX 19 33 0 -1
BITMAP
0000000690
0000000BD0
0000001F80
0000002F00
0000007D00
000000B800
0000006400
0000000000
0001AFE900
001FFFFF80
01BE401BE0
07F41603F4
1FC2FE02F8
3F43FE02F8
7E07FD03F4
BD07FC07F0
BD0BFC1FD0
BD0FF87F40
3D0FFFFE00
051FFFFFC0
001FF07FD0
002FF03FD0
003FE03FD0
003FD03FD0
007FD07FC0
00BFC07F80
00BF80BF80
00FF80FF40
01FF41FF00
01FF01FF00
02FF02FF00
03FE01FF80
0000005500
ENDCHAR
STARTCHAR racute
ENCODING 341
SWIDTH 376 0
DWIDTH 12 0
BBX 14 24 -1 0
BITMAP
00000BD0
00001F80
00002F40
00007E00
0000BC00
0001F400
00000000
00000000
03FE2F80
03FEBFD0
07FFFFD0
0BFE1FD0
0BFC0B80
0FF80000
1FF40000
1FF40000
2FF00000
3FE00000
3FE00000
7FD00000
7FC00000
BFC00000
FF800000
FF400000
ENDCHAR
STARTCHAR Rcommaaccent
ENCODING 342
SWIDTH 601 0
DWIDTH 19 0
BBX 19 32 0 -8
BITMAP
0001AFE900
001FFFFF80
01BE401BE0
07F41603F4
1FC2FE02F8
3F43FE02F8
7E07FD03F4
BD07FC07F0
BD0BFC1FD0
BD0FF87F40
3D0FFFFE00
051FFFFFC0
001FF07FD0
002FF03FD0
003FE03FD0
003FD03FD0
007FD07FC0
00BFC07F80
00BF80BF80
00FF80FF40
01FF41FF00
01FF01FF00
02FF02FF00
03FE01FF80
0000005500
0000000000
0001F40000
0002F80000
0001F80000
0000B40000
0000E00000
0001400000
ENDCHAR
STARTCHAR rcommaaccent
ENCODING 343
SWIDTH 376 0
DWIDTH 12 0
BBX 14 24 -1 -8
BITMAP
03FE2F80
03FEBFD0
07FFFFD0
0BFE1FD0
0BFC0B80
0FF80000
1FF40000
1FF40000
2FF00000
3FE00000
3FE00000
7FD00000
7FC00000
BFC00000
FF800000
FF400000
00000000
00000000
07D00000
0BF00000
03E00000
01D00000
03800000
06000000
ENDCHAR
STARTCHAR Rcaron
ENCODING 344
SWIDTH 601 0
DWIDTH 19 0
BBX 20 33 0 -1
BITMAP
0000010005
000002806D
000001D6F4
000000FFC0
000000BE00
0000007800
0000001000
0000000000
0001AFE900
001FFFFF80
01BE401BE0
07F41603F4
1FC2FE02F8
3F43FE02F8
7E07FD03F4
BD07FC07F0
BD0BFC1FD0
BD0FF87F40
3D0FFFFE00
051FFFFFC0
001FF07FD0
002FF03FD0
003FE03FD0
003FD03FD0
007FD07FC0
00BFC07F80
00BF80BF80
00FF80FF40
01FF41FF00
01FF01FF00
02FF02FF00
03FE01FF80
0000005500
ENDCHAR
STARTCHAR rcaron
ENCODING 345
SWIDTH 376 0
DWIDTH 12 0
BBX 14 24 -1 0
BITMAP
003401A0
002C1B80
001EBE00
000FF400
000BD000
00074000
00000000
00000000
03FE2F80
03FEBFD0
07FFFFD0
0BFE1FD0
0BFC0B80
0FF80000
1FF40000
1FF40000
2FF00000
3FE00000
3FE00000
7FD00000
7FC00000
BFC00000
FF800000
FF400000
ENDCHAR
STARTCHAR Sacute
ENCODING 346
SWIDTH 570 0
DWIDTH 18 0
BBX 17 33 1 -1
BITMAP
0000001A40
0000003F00
000000BD00
000000F800
000002F400
000003E000
0000064000
0000000000
0001BFE400
000BFFFD00
003FE07F40
00BF801F80
00FF801F80
00FF802F80
00FF807F40
00FFD02900
007FF00000
003FFC0000
001FFE0000
0007FF8000
0002FFE000
0000BFF400
06E43FF800
2FFC1FFC00
7FE40BFD00
BF4007FD00
FF0007FD00
FE000BFC00
BF000FF800
7F802FE000
2FFAFF8000
07FFF90000
0055400000
ENDCHAR
STARTCHAR sacute
ENCODING 347
SWIDTH 382 0
DWIDTH 12 0
BBX 14 24 -1 0
BITMAP
00000BE0
00000FD0
00001F80
00003F00
00007D00
0000F800
00005000
0005A400
002FF400
003FF400
007FF800
00BFF800
00EFF800
02CFF800
038FF800
074FFC00
0E0BFC00
2D0BFC00
BF0BFC10
FE0BFCA0
E40FFF40
B42FF800
3FFFD000
0BFA0000
ENDCHAR
STARTCHAR Scircumflex
ENCODING 348
SWIDTH 570 0
DWIDTH 18 0
BBX 17 33 1 -1
BITMAP
0000001400
0000007800
000001FC00
00000BFD00
00002F5E00
0000B40700
0001400100
0000000000
0001BFE400
000BFFFD00
003FE07F40
00BF801F80
00FF801F80
00FF802F80
00FF807F40
00FFD02900
007FF00000
003FFC0000
001FFE0000
0007FF8000
0002FFE000
0000BFF400
06E43FF800
2FFC1FFC00
7FE40BFD00
BF4007FD00
FF0007FD00
FE000BFC00
BF000FF800
7F802FE000
2FFAFF8000
07FFF90000
0055400000
ENDCHAR
STARTCHAR scircumflex
ENCODING 349
SWIDTH 382 0
DWIDTH 12 0
BBX 14 24 -1 0
BITMAP
00002800
0000BC00
0002FD00
000BEE00
003E0B00
01E40340
00000000
0005A400
002FF400
003FF400
007FF800
00BFF800
00EFF800
02CFF800
038FF800
074FFC00
0E0BFC00
2D0BFC00
BF0BFC10
FE0BFCA0
E40FFF40
B42FF800
3FFFD000
0BFA0000
ENDCHAR
STARTCHAR Scedilla
ENCODING 350
SWIDTH 570 0
DWIDTH 18 0
BBX 17 31 1 -7
BITMAP
0001BFE000
000BFFFD00
002FE07F00
00BF801F80
00FF801F80
00FF802F80
00FF807F40
00FFD02900
00BFF00000
003FF80000
001FFE0000
0007FF8000
0002FFE000
0000BFF400
02A03FF800
1FFC1FFC00
7FE80BFD00
BF800BFD00
BF0007FD00
FE0007FC00
BF000BF800
7F402FF000
2FE6BFD000
0BFFFE0000
005E500000
001D500000
002FF80000
0011FC0000
0041F80000
00FFF40000
006F900000
ENDCHAR
STARTCHAR scedilla
ENCODING 351
SWIDTH 382 0
DWIDTH 12 0
BBX 14 24 -1 -7
BITMAP
001AB400
002FF400
003FF400
007FF800
00AFF800
00DFF800
02CFF800
034FF800
0B0BFC00
0D0BFC00
3E0BFC00
BF0BFC70
FD0FFDC0
F42FFE00
BFFFF800
3FFFD000
0BFA0000
02800000
07940000
0BFE0000
047F0000
207F0000
3FFD0000
0BE40000
ENDCHAR
STARTCHAR Scaron
ENCODING 352
SWIDTH 570 0
DWIDTH 18 0
BBX 19 33 1 -1
BITMAP
0000040014
00000A01B4
0000078BD0
000003FF40
000002FC00
000001E000
0000004000
0000000000
0001BFE400
000BFFFD00
003FE07F40
00BF801F80
00FF801F80
00FF802F80
00FF807F40
00FFD02900
007FF00000
003FFC0000
001FFE0000
0007FF8000
0002FFE000
0000BFF400
06E43FF800
2FFC1FFC00
7FE40BFD00
BF4007FD00
FF0007FD00
FE000BFC00
BF000FF800
7F802FE000
2FFAFF8000
07FFF90000
0055400000
ENDCHAR
STARTCHAR scaron
ENCODING 353
SWIDTH 369 0
DWIDTH 12 0
BBX 15 24 -1 0
BITMAP
001800B4
000E0BD0
000BBF00
0007F800
0003E000
00028000
00000000
0006A400
002FF400
003FF400
007FF800
00BFF800
00DFF800
02CFF800
034FF800
0B0BFC00
0D0BFC00
2E0BFC00
BF0BFC60
F90BFED0
F01FFF40
BABFF800
3FFFD000
0BF90000
ENDCHAR
STARTCHAR uni0162
ENCODING 354
SWIDTH 481 0
DWIDTH 15 0
BBX 23 31 0 -7
BITMAP
0006BFE40004
00BFFFFF906C
07FFFFFFFFF8
0FE42FFFFFF4
2F802FF6BF90
7F003FE00000
BE007FE00000
BD007FD00000
BD00BFC00000
BD00FFC00000
7D00FF800000
1901FF400000
0002FF400000
0002FF000000
0003FE000000
0003FE000000
0007FD000000
000BFC000000
000BFC000000
000FF8000000
001FF4000000
001FF4000000
002FF0000000
003FE0000000
000700000000
000A50000000
001FFC000000
0000BD000000
0050BD000000
00BFF8000000
001F90000000
ENDCHAR
STARTCHAR uni0163
ENCODING 355
SWIDTH 267 0
DWIDTH 9 0
BBX 11 28 -1 -7
BITMAP
006A80
00FF80
01FF40
01FF00
02FF00
0FFFE0
07FE00
07FD00
0BFC00
0BF800
0FF800
1FF400
1FF400
2FF000
3FE000
3FE028
7FD034
7FE1E0
3FFFD0
2FFF40
0BE400
0A0000
0E9000
2FFC00
00FC00
80FC00
FFF400
2F9000
ENDCHAR
STARTCHAR Tcaron
ENCODING 356
SWIDTH 481 0
DWIDTH 15 0
BBX 23 32 0 0
BITMAP
000005000400
00000700B400
0000038BD000
000003FF4000
000002FD0000
000001E00000
000000400000
000000000000
0006BFE40004
00BFFFFF906C
07FFFFFFFFF8
0FE42FFFFFF4
2F802FF6BF90
7F003FE00000
BE007FE00000
BD007FD00000
BD00BFC00000
BD00FFC00000
7D00FF800000
1901FF400000
0002FF400000
0002FF000000
0003FE000000
0003FE000000
0007FD000000
000BFC000000
000BFC000000
000FF8000000
001FF4000000
001FF4000000
002FF0000000
003FE0000000
ENDCHAR
STARTCHAR tcaron
ENCODING 357
SWIDTH 267 0
DWIDTH 9 0
BBX 14 24 -1 0
BITMAP
000006E0
00000BF0
000007F0
005682E0
00FF82D0
01FF4740
01FF0100
02FF0000
0FFFE000
07FE0000
07FD0000
0BFC0000
0BF80000
0FF80000
1FF40000
1FF40000
2FF00000
3FE00000
3FE02800
7FD03400
7FE1E000
3FFFD000
2FFF4000
0BE40000
ENDCHAR
STARTCHAR Tbar
ENCODING 358
SWIDTH 481 0
DWIDTH 15 0
BBX 23 24 0 0
BITMAP
0006BFE40004
00BFFFFF906C
07FFFFFFFFF8
0FE42FFFFFF4
2F802FF1AF90
7F003FE00000
BE007FD00000
BD007FD00000
BD00BFC00000
BD00BF800000
7D00FF800000
1901FF400000
0001FF400000
0002FF000000
03FFFFFFC000
07FFFFFF8000
0007FD000000
0007FC000000
000BFC000000
000FF8000000
001FF4000000
001FF4000000
002FF0000000
003FE0000000
ENDCHAR
STARTCHAR tbar
ENCODING 359
SWIDTH 267 0
DWIDTH 9 0
BBX 11 21 -1 0
BITMAP
006A80
00FF80
01FF40
01FF00
02FF00
0FFFE0
07FE00
07FD00
7FFFD0
7FFFC0
0FF800
1FF400
1FF400
2FF000
3FE000
3FE018
7FD034
7FE1F0
3FFFD0
2FFF40
0BE400
ENDCHAR
STARTCHAR Utilde
ENCODING 360
SWIDTH 716 0
DWIDTH 23 0
BBX 24 30 0 0
BITMAP
000000055000
0000007FFFA9
000001FFFFF4
00000105BF80
000000000000
000000000000
0001AFD001FF
002FFFC002FF
01F9BFC003FE
0BD0FF8003FD
2F40FF4007FD
7E01FF000BFC
BD02FE000BF8
FC03FD000FF8
FC07FD001FF4
F807FC001FF0
7C0BF8002FF0
040FF4003FE0
001FF0003FD0
001FF0007FD0
002FE000BFC0
002FD000FF80
003FD001FF40
003FD002FF00
007FD003FE00
003FD007FC00
003FF42FF800
002FFFFFE000
000FFFFF8000
0001BFE80000
ENDCHAR
STARTCHAR utilde
ENCODING 361
SWIDTH 505 0
DWIDTH 16 0
BBX 19 22 -1 0
BITMAP
0001540000
001FFFEA40
007FFFFD00
00416FE400
0000000000
0000000000
03FE03FE00
03FD07FD00
07FD07FC00
0BFC0BFC00
0BF80FF800
0FF80FF800
1FF41FF400
1FF42FF000
2FF02FF000
3FE03FE000
3FE07FD024
7FD0BFD070
7FE2FFE1D0
3FFFBFFF80
2FFE2FFE00
0BE40BE400
ENDCHAR
STARTCHAR Umacron
ENCODING 362
SWIDTH 716 0
DWIDTH 23 0
BBX 24 29 0 0
BITMAP
000000FFFFF4
000000FFFFF0
000000000000
000000000000
000000000000
0001AFD001FF
002FFFC002FF
01F9BFC003FE
0BD0FF8003FD
2F40FF4007FD
7E01FF000BFC
BD02FE000BF8
FC03FD000FF8
FC07FD001FF4
F807FC001FF0
7C0BF8002FF0
040FF4003FE0
001FF0003FD0
001FF0007FD0
002FE000BFC0
002FD000FF80
003FD001FF40
003FD002FF00
007FD003FE00
003FD007FC00
003FF42FF800
002FFFFFE000
000FFFFF8000
0001BFE80000
ENDCHAR
STARTCHAR umacron
ENCODING 363
SWIDTH 505 0
DWIDTH 16 0
BBX 19 21 -1 0
BITMAP
003FFFFD00
007FFFFC00
0000000000
0000000000
0000000000
03FE03FE00
03FD07FD00
07FD07FC00
0BFC0BFC00
0BF80FF800
0FF80FF800
1FF41FF400
1FF42FF000
2FF02FF000
3FE03FE000
3FE07FD024
7FD0BFD070
7FE2FFE1D0
3FFFBFFF80
2FFE2FFE00
0BE40BE400
ENDCHAR
STARTCHAR Ubreve
ENCODING 364
SWIDTH 716 0
DWIDTH 23 0
BBX 24 30 0 0
BITMAP
000000FC007D
000000BD01F8
0000007FEFE0
0000001BFE40
000000000000
000000000000
0001AFD001FF
002FFFC002FF
01F9BFC003FE
0BD0FF8003FD
2F40FF4007FD
7E01FF000BFC
BD02FE000BF8
FC03FD000FF8
FC07FD001FF4
F807FC001FF0
7C0BF8002FF0
040FF4003FE0
001FF0003FD0
001FF0007FD0
002FE000BFC0
002FD000FF80
003FD001FF40
003FD002FF00
007FD003FE00
003FD007FC00
003FF42FF800
002FFFFFE000
000FFFFF8000
0001BFE80000
ENDCHAR
STARTCHAR ubreve
ENCODING 365
SWIDTH 505 0
DWIDTH 16 0
BBX 19 23 -1 0
BITMAP
007E002F40
003F40BE00
001FFBF800
0006FE8000
0000000000
0000000000
0000000000
03FE03FE00
03FD07FD00
07FD07FC00
0BFC0BFC00
0BF80FF800
0FF80FF800
1FF41FF400
1FF42FF000
2FF02FF000
3FE03FE000
3FE07FD024
7FD0BFD070
7FE2FFE1D0
3FFFBFFF80
2FFE2FFE00
0BE40BE400
ENDCHAR
STARTCHAR Uring
ENCODING 366
SWIDTH 716 0
DWIDTH 23 0
BBX 24 31 0 0
BITMAP
00000001F800
000000074D00
000000060900
000000071D00
00000002F400
000000000000
000000000000
0001AFD001FF
002FFFC002FF
01F9BFC003FE
0BD0FF8003FD
2F40FF4007FD
7E01FF000BFC
BD02FE000BF8
FC03FD000FF8
FC07FD001FF4
F807FC001FF0
7C0BF8002FF0
040FF4003FE0
001FF0003FD0
001FF0007FD0
002FE000BFC0
002FD000FF80
003FD001FF40
003FD002FF00
007FD003FE00
003FD007FC00
003FF42FF800
002FFFFFE000
000FFFFF8000
0001BFE80000
ENDCHAR
STARTCHAR uring
ENCODING 367
SWIDTH 505 0
DWIDTH 16 0
BBX 19 22 -1 0
BITMAP
0000BE0000
0001C34000
0002834000
0000BD0000
0000000000
0000000000
03FE03FE00
03FD07FD00
07FD07FC00
0BFC0BFC00
0BF80FF800
0FF80FF800
1FF41FF400
1FF42FF000
2FF02FF000
3FE03FE000
3FE07FD024
7FD0BFD070
7FE2FFE1D0
3FFFBFFF80
2FFE2FFE00
0BE40BE400
ENDCHAR
STARTCHAR Uhungarumlaut
ENCODING 368
SWIDTH 716 0
DWIDTH 23 0
BBX 25 32 0 0
BITMAP
00000000FD2F80
00000001F87E00
00000003E0BC00
00000007C1F400
0000000B42E000
0000001E038000
00000000000000
00000000000000
0001AFD001FF00
002FFFC002FF00
01F9BFC003FE00
0BD0FF8003FD00
2F40FF4007FD00
7E01FF000BFC00
BD02FE000BF800
FC03FD000FF800
FC07FD001FF400
F807FC001FF000
7C0BF8002FF000
040FF4003FE000
001FF0003FD000
001FF0007FD000
002FE000BFC000
002FD000FF8000
003FD001FF4000
003FD002FF0000
007FD003FE0000
003FD007FC0000
003FF42FF80000
002FFFFFE00000
000FFFFF800000
0001BFE8000000
ENDCHAR
STARTCHAR uhungarumlaut
ENCODING 369
SWIDTH 505 0
DWIDTH 16 0
BBX 19 24 -1 0
BITMAP
0000BE1F80
0000F83F00
0002F07D00
0003D0F800
000B81E000
000E03C000
0000000000
0000000000
03FE03FE00
03FD07FD00
07FD07FC00
0BFC0BFC00
0BF80FF800
0FF80FF800
1FF41FF400
1FF42FF000
2FF02FF000
3FE03FE000
3FE07FD024
7FD0BFD070
7FE2FFE1D0
3FFFBFFF80
2FFE2FFE00
0BE40BE400
ENDCHAR
STARTCHAR Uogonek
ENCODING 370
SWIDTH 716 0
DWIDTH 23 0
BBX 24 39 0 -7
BITMAP
0000003F4000
0000002F8000
0000001F8000
0000000FC000
0000000BC000
00000007D000
000000000000
000000000000
0001AFD001FF
002FFFC002FF
01F9BFC003FE
0BD0FF8003FD
2F40FF4007FD
7E01FF000BFC
BD02FE000BF8
FC03FD000FF8
FC03FD001FF4
F807FC001FF4
7C0BF8002FF0
040FF4003FE0
000FF0003FE0
001FF0007FD0
002FE000BFC0
002FD000FF80
003FD001FF40
003FD002FF00
003FD003FE00
007FD007FD00
003FF42FF800
002FFFFFE000
001FFFFF8000
0002FFE90000
00002D000000
000078000000
0000F8000000
0000F8000000
0000FD1C0000
0000BFF40000
00002F800000
ENDCHAR
STARTCHAR uogonek
ENCODING 371
SWIDTH 505 0
DWIDTH 16 0
BBX 19 23 -1 -7
BITMAP
03FE03FE00
03FD07FD00
07FD07FC00
0BFC0BFC00
0BF80FF800
0FF80FF800
1FF41FF400
1FF42FF000
2FF02FF000
3FE03FE000
3FE07FD024
7FD0BFD070
7FE2FFE1E0
3FFFBFFFC0
2FFE2FFF00
0BE40BF800
00000B4000
00001E0000
00003E0000
00003E0000
00003F4700
00002FFD00
00000BE400
ENDCHAR
STARTCHAR Wcircumflex
ENCODING 372
SWIDTH 962 0
DWIDTH 31 0
BBX 33 32 0 0
BITMAP
000000000001400000
000000000007C00000
00000000001FD00000
0000000000BFE00000
0000000002F5E00000
000000000B40700000
000000001400140000
000000000000000000
0001AF8001FE0007C0
001FFF8002FE000B40
01BDFF8003FE000F00
07E0FF8007FE001E00
1F80FF800BFF002D00
3F00FF800FFF003C00
7E00FF802FFF007800
BD00FF803FFF00B400
BD00FF807FFF00F000
BD00FFC0B6FF01E000
3D00FFC0F2FF02C000
0500FFC1E2FF038000
0000BFC2D2FF074000
0000BFC3C2FF0B0000
0000BFC782FF0E0000
0000BFCB42FF1D0000
0000BFCF02FF3C0000
0000BFDD02FF780000
0000BFEC02FFB00000
0000BFF802FFE00000
0000BFF402FFD00000
0000BFF002FFC00000
0000BFE002FF800000
0000BFD001FF400000
ENDCHAR
STARTCHAR wcircumflex
ENCODING 373
SWIDTH 661 0
DWIDTH 21 0
BBX 22 24 -1 0
BITMAP
000000090000
0000002E0000
000000FF0000
000003FF4000
00000F978000
00003D02C000
000050008000
000000000000
03FE03FE0B80
03FD07FD1FD0
07FD07FC0FE0
0BFC0BFC01E0
0BF80FF801E0
0FF80FF802D0
1FF41FF402D0
1FF42FF003C0
2FF02FF00B80
3FE03FE00F40
3FE07FD02F00
7FD0BFD07D00
7FE1FFD1F800
3FFFBFFFF000
2FFE2FFF8000
0BE40BF90000
ENDCHAR
STARTCHAR Ycircumflex
ENCODING 374
SWIDTH 620 0
DWIDTH 20 0
BBX 22 32 0 0
BITMAP
000000001400
000000007800
00000001FC00
0000000BFD00
0000002F5E00
000000B40700
000001400100
000000000000
0001AF8000F0
001FFFC001E0
01BDFFD002D0
07E0BFE00780
1F807FE00B40
3F007FF00F00
7E003FF41D00
BD002FF83C00
BD001FF87800
BD001FFCB000
3D000FFDE000
05000BFFD000
000007FF8000
000003FF4000
000003FF0000
000007FE0000
000007FE0000
00000BFD0000
00000FFD0000
00000FFC0000
00001FF80000
00002FF80000
00002FF40000
00003FF00000
ENDCHAR
STARTCHAR ycircumflex
ENCODING 375
SWIDTH 505 0
DWIDTH 16 0
BBX 18 32 -1 -8
BITMAP
0000024000
00000F8000
00007FC000
0001FED000
0007D0E000
001D007000
0000000000
0000000000
03FE03FE00
03FD07FD00
07FD07FC00
0BFC0BFC00
0BF80FF800
0FF80FF400
1FF41FF400
1FF42FF000
2FF02FF000
3FE03FE000
3FE07FD0A0
7FD0BFD0D0
7FE2FFC2C0
3FFFFF8740
2FFEFFAD00
0BE5FFE400
000BFF4000
00BFFF0000
02E3FE0000
0783FD0000
0B4BFC0000
0BAFF80000
07FFE00000
01BE400000
ENDCHAR
STARTCHAR Ydieresis
ENCODING 376
SWIDTH 620 0
DWIDTH 20 0
BBX 22 30 0 0
BITMAP
0000007D0780
000000BF0FE0
000000BF0FE0
0000007D07D0
000000000000
000000000000
0001AF8000F0
001FFFC001E0
01BDFFD002D0
07E0BFE00780
1F807FE00B40
3F007FF00F00
7E003FF41D00
BD002FF83C00
BD001FF87800
BD001FFCB000
3D000FFDE000
05000BFFD000
000007FF8000
000003FF4000
000003FF0000
000007FE0000
000007FE0000
00000BFD0000
00000FFD0000
00000FFC0000
00001FF80000
00002FF80000
00002FF40000
00003FF00000
ENDCHAR
STARTCHAR Zacute
ENCODING 377
SWIDTH 542 0
DWIDTH 17 0
BBX 18 32 0 0
BITMAP
0000000690
0000000FD0
0000001F80
0000003F00
0000007D00
000000F800
000000A000
0000000000
007FFFFFD0
02FFFFFFC0
03F002FF40
07F407FF00
03F00BFD00
00401FFC00
00002FF400
00007FF000
0000BFD000
0001FFC000
0002FF4000
0007FF0000
000BFD0000
001FFC0000
002FF40000
007FF00000
00FFD00000
01FFC00000
03FF401400
07FF007E00
0FFD007F00
1FFC007E00
3FFFFFFC00
7FFFFFE000
ENDCHAR
STARTCHAR zacute
ENCODING 378
SWIDTH 428 0
DWIDTH 14 0
BBX 14 24 0 0
BITMAP
00000FD0
00001F80
00002F00
00007D00
0000B800
0001F400
00000000
00000000
01FFFFD0
07FFFFC0
0F81FF40
1FC2FE00
0A47FD00
000FF800
001FF000
003FD000
00BFC000
01FF4000
02FE0000
07FD0A00
0FF82F40
2FF41F40
3FFFFE00
BFFFF400
ENDCHAR
STARTCHAR Zdotaccent
ENCODING 379
SWIDTH 530 0
DWIDTH 17 0
BBX 18 30 0 0
BITMAP
00000B8000
00001FD000
00001FD000
00000B8000
0000000000
0000000000
007FFFFFD0
02FFFFFFC0
03F002FF40
07F407FF00
03F00BFD00
00401FFC00
00002FF400
00007FF000
0000BFD000
0001FFC000
0002FF4000
0007FF0000
000BFD0000
001FFC0000
002FF40000
007FF00000
00FFD00000
01FFC00000
03FF401400
07FF007E00
0FFD007F00
1FFC007E00
3FFFFFFC00
7FFFFFE000
ENDCHAR
STARTCHAR zdotaccent
ENCODING 380
SWIDTH 428 0
DWIDTH 14 0
BBX 14 22 0 0
BITMAP
0001F400
0003F800
0003F800
0001F400
00000000
00000000
01FFFFD0
07FFFFC0
0F81FF40
1FC2FE00
0A47FD00
000FF800
001FF000
003FD000
00BFC000
01FF4000
02FE0000
07FD0A00
0FF82F40
2FF41F40
3FFFFE00
BFFFF400
ENDCHAR
STARTCHAR Zcaron
ENCODING 381
SWIDTH 542 0
DWIDTH 17 0
BBX 19 32 0 0
BITMAP
0000040014
00000D01F0
00000B5F80
000007FE00
000003F800
000002D000
0000014000
0000000000
007FFFFFD0
02FFFFFFC0
03F002FF40
07F407FF00
03F00BFD00
00401FFC00
00002FF400
00007FF000
0000BFD000
0001FFC000
0002FF4000
0007FF0000
000BFD0000
001FFC0000
002FF40000
007FF00000
00FFD00000
01FFC00000
03FF401400
07FF007E00
0FFD007F00
1FFC007E00
3FFFFFFC00
7FFFFFE000
ENDCHAR
STARTCHAR zcaron
ENCODING 382
SWIDTH 428 0
DWIDTH 14 0
BBX 15 24 0 0
BITMAP
000D0068
000B06E0
0007EF80
0003FD00
0002F400
0001D000
00000000
00000000
01FFFFD0
07FFFFC0
0F81FF40
1FC2FE00
0A47FD00
000FF800
001FF000
003FD000
00BFC000
01FF4000
02FE0000
07FD0A00
0FF82F40
2FF41F40
3FFFFE00
BFFFF400
ENDCHAR
STARTCHAR longs
ENCODING 383
SWIDTH 267 0
DWIDTH 9 0
BBX 20 32 -7 -8
BITMAP
0000002F90
000001FFF8
000007FFFC
00000BFD1D
00000FF819
00001FF400
00002FF000
00002FF000
0002FFE000
00007FD000
00007FD000
0000BFC000
0000BFC000
0000FF8000
0001FF4000
0001FF4000
0002FF0000
0003FE0000
0003FE0000
0007FD0000
0007FC0000
000BFC0000
000FF80000
001FF40000
01FFF40000
1E6FF00000
382FF00000
B43FE00000
B4BFD00000
7FFF800000
3FFF000000
0BE4000000
ENDCHAR
STARTCHAR uni018F
ENCODING 399
SWIDTH 544 0
DWIDTH 17 0
BBX 18 24 0 0
BITMAP
0006FE8000
007FFFF400
01FFFFFD00
02FFFFFF00
03E40BFF80
028001FFC0
000000FFC0
000000FFD0
000000FFD0
000000FFD0
00006BFFC0
000BFFFFC0
007FD2FF80
01FE02FF40
07F803FF00
1FF007FE00
2FD00BFD00
3FC00FF800
7F802FF000
7F803FD000
7F80BF8000
2FC2FE0000
1FFFF40000
02FE400000
ENDCHAR
STARTCHAR florin
ENCODING 402
SWIDTH 267 0
DWIDTH 9 0
BBX 22 32 -8 -8
BITMAP
00000000BF80
00000007FFE0
0000001FE3F0
0000003FC3F0
000000BF87E0
000000FF4240
000002FF0000
000003FE0000
0000BFFFFC00
00000BFD0000
00000BF80000
00000FF80000
00001FF40000
00002FF00000
00003FE00000
00007FD00000
00007FC00000
0000BFC00000
0000FF800000
0001FF400000
0002FF000000
0003FE000000
0003FD000000
0007FC000000
000BF8000000
000FF4000000
181FF0000000
BD2FD0000000
FC3FC0000000
FCBF40000000
BEFD00000000
2FE000000000
ENDCHAR
STARTCHAR Ohorn
ENCODING 416
SWIDTH 665 0
DWIDTH 21 0
BBX 23 28 0 0
BITMAP
0000000000B8
0000000000FC
0000000000FC
0000000000F8
00006BFE41F4
0007FFFFF6E0
007F9006FF80
02FD0A90FF00
0BE07F80BF40
1FC1FE007F80
3F43FD007F80
7E0BF8007FC0
7E1FF4007FC0
7D2FF0007FC0
3D3FE000BFC0
05BFD000BF80
00BFC000FF80
00FF8001FF40
01FF8002FF00
01FF4003FE00
01FF4007FD00
02FF400BF800
02FF401FF400
01FF403FE000
00FF80BF8000
00BFEBFE0000
003FFFF40000
0006FE400000
ENDCHAR
STARTCHAR ohorn
ENCODING 417
SWIDTH 439 0
DWIDTH 14 0
BBX 17 21 -1 0
BITMAP
0000000500
0000001F80
0000000F80
0000000F40
0000001F00
0006FD2D00
007FFFF800
01FF4BE000
03FE07D000
0BFC03D000
1FF407D000
2FF007D000
3FE00BD000
7FE00BC000
7FD00FC000
7FD02F4000
7FD07F0000
7FE1FD0000
3FFFF80000
1FFFE00000
06FE400000
ENDCHAR
STARTCHAR Uhorn
ENCODING 431
SWIDTH 716 0
DWIDTH 23 0
BBX 28 30 0 0
BITMAP
00000000000015
0000000000007E
0000000000003E
0000000000007E
0000000000007D
000000000001F8
0001AFD001FFE0
002FFFC002FF80
01F9BFC003FE00
0BD0FF8003FE00
2F40FF4007FD00
7E01FF000BFC00
BD02FE000BFC00
FC03FD000FF800
FC07FD001FF400
F807FC001FF400
7C0BF8002FF000
040FF4003FE000
001FF0003FE000
001FF0007FD000
002FE000BFC000
002FD000FF8000
003FD001FF4000
003FD002FF0000
007FD003FE0000
003FD007FD0000
003FF42FF80000
002FFFFFE00000
000FFFFF800000
0001BFE8000000
ENDCHAR
STARTCHAR uhorn
ENCODING 432
SWIDTH 505 0
DWIDTH 16 0
BBX 19 21 -1 0
BITMAP
00000001B4
00000001F4
00000001F4
00000001F0
00000003D0
03FE03FF80
03FD07FE00
07FD07FD00
0BFC0BFC00
0BF80FF800
0FF80FF800
1FF41FF400
1FF42FF000
2FF02FF000
3FE03FE000
3FE07FD024
7FD0BFD070
7FE2FFE1D0
3FFFBFFF80
2FFE2FFE00
0BE40BE400
ENDCHAR
STARTCHAR uni01B7
ENCODING 439
SWIDTH 555 0
DWIDTH 18 0
BBX 18 25 0 -1
BITMAP
006FFFFFF0
01FFFFFFD0
02F400FF80
02F802FE00
02F40BFC00
00501FF400
00003FE000
0000BFC000
0002FF4000
0007FD0000
000BFF9000
000BFFF400
00002FFD00
00000BFE00
000007FF00
000003FF00
000003FF00
064007FF00
2F8007FE00
7F000BFD00
7F001FF800
7F003FF000
2FE6FF8000
0BFFF90000
0055400000
ENDCHAR
STARTCHAR uni01CD
ENCODING 461
SWIDTH 668 0
DWIDTH 21 0
BBX 27 36 0 -4
BITMAP
00000000040014
000000000A01B4
00000000079BD0
0000000003FF00
0000000002F800
0000000001E000
00000000004000
00000000000000
000000002FE000
00000001FFF000
0000000BFFE000
0000002F7FE000
000000BD7FD000
000001F47FC000
000007E0BFC000
00000BC0FF8000
00002F40FF4000
00003F01FF4000
01BFFE41FF0000
1FFFFFFAFE0000
7F83F45BFE0000
BF07F003FD0000
BF0FE007FC0000
192FC00BFC0000
003F800BF80000
007F400FF80000
00FF001FF40000
01FE001FF00000
02FD002FF00000
03FC003FE00000
03FC003FD00000
07F8007FD00000
07F80000000000
03F80000000000
01F80000000000
00140000000000
ENDCHAR
STARTCHAR uni01CE
ENCODING 462
SWIDTH 526 0
DWIDTH 17 0
BBX 19 24 -1 0
BITMAP
00007001D0
0000381F40
00002EFD00
00001FF000
00000FC000
00000A0000
0000000000
0000000000
000BF9FF40
007FFFFF00
01FF47FE00
03FD03FE00
0BFC07FD00
1FF407FD00
2FF00BFC00
3FE00BF800
3FE00FF800
7FD01FF400
7FD01FF018
7FD03FF028
7FE0BFF070
3FFFEFFFD0
1FFF4FFF80
06F906F900
ENDCHAR
STARTCHAR uni01CF
ENCODING 463
SWIDTH 375 0
DWIDTH 12 0
BBX 18 32 0 0
BITMAP
0000500050
0000740780
00003C7E00
00002FF400
00001FD000
00000F4000
0000050000
0000000000
0001AF8000
001FFF4000
01BEFF4000
07E2FF0000
1F82FE0000
3F03FE0000
7E07FD0000
BD07FC0000
BD0BFC0000
BD0FF80000
3D0FF40000
051FF40000
002FF00000
002FF00000
003FE00000
007FD00000
007FD00000
00BFC00000
00BF800000
00FF800000
01FF400000
01FF000000
02FF000000
03FE000000
ENDCHAR
STARTCHAR uni01D0
ENCODING 464
SWIDTH 267 0
DWIDTH 9 0
BBX 13 24 -1 0
BITMAP
01800B40
00E0BD00
00BBF000
007F8000
003E0000
00280000
00000000
00000000
03FE0000
03FD0000
07FD0000
0BFC0000
0BF80000
0FF80000
1FF40000
1FF40000
2FF00000
3FE00000
3FE02800
7FD03400
7FE1E000
3FFFD000
2FFF4000
0BE40000
ENDCHAR
STARTCHAR uni01D1
ENCODING 465
SWIDTH 665 0
DWIDTH 21 0
BBX 22 32 0 0
BITMAP
000000100050
0000002806D0
0000001E6F40
0000000FFC00
0000000BE000
000000078000
000000010000
000000000000
00006BFE8000
0007FFFFF400
007F9006FD00
02FD0A90FF00
0BE07F80BF40
1FC1FE007F80
3F43FD007FC0
7E0BF8007FC0
7E1FF4007FC0
7D2FF0007FC0
3D3FE000BF80
05BFD000BF80
00BFC000FF40
00FF8001FF40
01FF8002FF00
01FF4003FE00
01FF4007FD00
02FF400BF800
02FF401FF000
01FF403FD000
00FF80BF8000
00BFEBFE0000
003FFFF40000
0006FE400000
ENDCHAR
STARTCHAR uni01D2
ENCODING 466
SWIDTH 433 0
DWIDTH 14 0
BBX 19 24 -1 0
BITMAP
0003001E00
000281B400
0002EBD000
0001FF4000
0000FD0000
0000B40000
0000000000
0000000000
000AF90000
007FFF4000
01FF4BC000
07FD07C014
0FF80FD1B4
1FF41FFF80
2FF00BE400
3FE00BC000
7FD00F8000
7FD01F8000
BFC02F4000
BFD03E0000
7FD0BD0000
7FFFF80000
2FFFD00000
06FE400000
ENDCHAR
STARTCHAR uni01D3
ENCODING 467
SWIDTH 716 0
DWIDTH 23 0
BBX 24 32 0 0
BITMAP
000000010005
00000003407C
00000002D7E0
00000001FF80
00000000FE00
00000000B400
000000005000
000000000000
0001AFD001FF
002FFFC002FF
01F9BFC003FE
0BD0FF8003FD
2F40FF4007FD
7E01FF000BFC
BD02FE000BF8
FC03FD000FF8
FC07FD001FF4
F807FC001FF0
7C0BF8002FF0
040FF4003FE0
001FF0003FD0
001FF0007FD0
002FE000BFC0
002FD000FF80
003FD001FF40
003FD002FF00
007FD003FE00
003FD007FC00
003FF42FF800
002FFFFFE000
000FFFFF8000
0001BFE80000
ENDCHAR
STARTCHAR uni01D4
ENCODING 468
SWIDTH 505 0
DWIDTH 16 0
BBX 19 24 -1 0
BITMAP
0002800B40
0001D0BC00
0000FBE000
0000BF8000
00007E0000
0000380000
0000000000
0000000000
03FE03FE00
03FD07FD00
07FD07FC00
0BFC0BFC00
0BF80FF800
0FF80FF800
1FF41FF400
1FF42FF000
2FF02FF000
3FE03FE000
3FE07FD024
7FD0BFD070
7FE2FFE1D0
3FFFBFFF80
2FFE2FFE00
0BE40BE400
ENDCHAR
STARTCHAR uni01D5
ENCODING 469
SWIDTH 716 0
DWIDTH 23 0
BBX 24 32 0 0
BITMAP
0000003FFFFC
0000007FFFFC
000000000000
0000007D01E0
000000BF03F8
000000BF03F8
0000007D01E0
000000000000
0001AFD001FF
002FFFC002FF
01F9BFC003FE
0BD0FF8003FD
2F40FF4007FD
7E01FF000BFC
BD02FE000BF8
FC03FD000FF8
FC07FD001FF4
F807FC001FF0
7C0BF8002FF0
040FF4003FE0
001FF0003FD0
001FF0007FD0
002FE000BFC0
002FD000FF80
003FD001FF40
003FD002FF00
007FD003FE00
003FD007FC00
003FF42FF800
002FFFFFE000
000FFFFF8000
0001BFE80000
ENDCHAR
STARTCHAR uni01D6
ENCODING 470
SWIDTH 505 0
DWIDTH 16 0
BBX 19 27 -1 0
BITMAP
000BFFFF40
000FFFFF00
0000000000
0000000000
0000000000
000B41F400
002FC2FC00
002FC2FC00
000B81F400
0000000000
0000000000
03FE03FE00
03FD07FD00
07FD07FC00
0BFC0BFC00
0BF80FF800
0FF80FF800
1FF41FF400
1FF42FF000
2FF02FF000
3FE03FE000
3FE07FD024
7FD0BFD070
7FE2FFE1D0
3FFFBFFF80
2FFE2FFE00
0BE40BE400
ENDCHAR
STARTCHAR uni01D7
ENCODING 471
SWIDTH 716 0
DWIDTH 23 0
BBX 24 32 0 0
BITMAP
000000001A40
000000003F40
000002E07E2D
000007F4FCBF
000007F5F4BF
000002E3E02E
000000014000
000000000000
0001AFD001FF
002FFFC002FF
01F9BFC003FE
0BD0FF8003FD
2F40FF4007FD
7E01FF000BFC
BD02FE000BF8
FC03FD000FF8
FC07FD001FF4
F807FC001FF0
7C0BF8002FF0
040FF4003FE0
001FF0003FD0
001FF0007FD0
002FE000BFC0
002FD000FF80
003FD001FF40
003FD002FF00
007FD003FE00
003FD007FC00
003FF42FF800
002FFFFFE000
000FFFFF8000
0001BFE80000
ENDCHAR
STARTCHAR uni01D8
ENCODING 472
SWIDTH 505 0
DWIDTH 16 0
BBX 19 30 -1 0
BITMAP
0000006900
000001FC00
000002F400
000007E000
00000BC000
00001F4000
0000190000
0000000000
000B41F400
002FC2FC00
002FC2FC00
000B81F400
0000000000
0000000000
03FE03FE00
03FD07FD00
07FD07FC00
0BFC0BFC00
0BF80FF800
0FF80FF800
1FF41FF400
1FF42FF000
2FF02FF000
3FE03FE000
3FE07FD024
7FD0BFD070
7FE2FFE1D0
3FFFBFFF80
2FFE2FFE00
0BE40BE400
ENDCHAR
STARTCHAR uni01D9
ENCODING 473
SWIDTH 716 0
DWIDTH 23 0
BBX 24 32 0 0
BITMAP
000000050010
0000000706D0
000002E3AF6D
000007F6FDBF
000007F5E0BF
000002E0802E
000000000000
000000000000
0001AFD001FF
002FFFC002FF
01F9BFC003FE
0BD0FF8003FD
2F40FF4007FD
7E01FF000BFC
BD02FE000BF8
FC03FD000FF8
FC07FD001FF4
F807FC001FF0
7C0BF8002FF0
040FF4003FE0
001FF0003FD0
001FF0007FD0
002FE000BFC0
002FD000FF80
003FD001FF40
003FD002FF00
007FD003FE00
003FD007FC00
003FF42FF800
002FFFFFE000
000FFFFF8000
0001BFE80000
ENDCHAR
STARTCHAR uni01DA
ENCODING 474
SWIDTH 505 0
DWIDTH 16 0
BBX 19 29 -1 0
BITMAP
0000900680
0000746E00
00003EF800
00002FE000
00001F4000
00000D0000
0000000000
000B41F400
002FC2FC00
002FC2FC00
000B81F400
0000000000
0000000000
03FE03FE00
03FD07FD00
07FD07FC00
0BFC0BFC00
0BF80FF800
0FF80FF800
1FF41FF400
1FF42FF000
2FF02FF000
3FE03FE000
3FE07FD024
7FD0BFD070
7FE2FFE1D0
3FFFBFFF80
2FFE2FFE00
0BE40BE400
ENDCHAR
STARTCHAR uni01DB
ENCODING 475
SWIDTH 716 0
DWIDTH 23 0
BBX 24 32 0 0
BITMAP
00000003F400
00000002F800
000002E1F82D
000007F4FCBF
000007F4BCBF
000002E07D2E
000000000000
000000000000
0001AFD001FF
002FFFC002FF
01F9BFC003FE
0BD0FF8003FD
2F40FF4007FD
7E01FF000BFC
BD02FE000BF8
FC03FD000FF8
FC07FD001FF4
F807FC001FF0
7C0BF8002FF0
040FF4003FE0
001FF0003FD0
001FF0007FD0
002FE000BFC0
002FD000FF80
003FD001FF40
003FD002FF00
007FD003FE00
003FD007FC00
003FF42FF800
002FFFFFE000
000FFFFF8000
0001BFE80000
ENDCHAR
STARTCHAR uni01DC
ENCODING 476
SWIDTH 505 0
DWIDTH 16 0
BBX 19 30 -1 0
BITMAP
0002F80000
0001F80000
0000F80000
0000BC0000
0000BC0000
00007D0000
0000000000
0000000000
000B41F400
002FC2FC00
002FC2FC00
000B81F400
0000000000
0000000000
03FE03FE00
03FD07FD00
07FD07FC00
0BFC0BFC00
0BF80FF800
0FF80FF800
1FF41FF400
1FF42FF000
2FF02FF000
3FE03FE000
3FE07FD024
7FD0BFD070
7FE2FFE1D0
3FFFBFFF80
2FFE2FFE00
0BE40BE400
ENDCHAR
STARTCHAR uni01E4
ENCODING 484
SWIDTH 601 0
DWIDTH 19 0
BBX 19 31 0 -7
BITMAP
00006FF900
0007FFFF80
002FF90BE0
00BFD003F0
02FF8003F0
07FE0007F0
0FFD000FE0
1FF8000680
2FF4000000
3FF0000000
7FE0000000
7FE0001FD0
7FE0002FD0
7FE01FFFF8
7FE01ABFE4
3FE000FF40
2FF402FF40
1FFD1BFF00
0BFFFEFF00
02FFF6FE00
006A92FD00
001503FD00
00BF87FC00
03FFCBF800
07FADBF400
0BD00FF000
0BC01FE000
0BC02FC000
07E0BF4000
01FFFD0000
006FA00000
ENDCHAR
STARTCHAR uni01E5
ENCODING 485
SWIDTH 507 0
DWIDTH 16 0
BBX 19 24 -1 -8
BITMAP
000BF9FF40
007FFFFF00
01FF47FE00
03FD03FE00
0BFC07FD00
1FF407FD00
2FF00BFC00
3FE00FF800
3FE00FF800
7FD01FF400
7FD02FF024
7FD03FF070
7FE0BFE0E0
3FFFFFD2C0
1FFFBFEF00
06F9BFF800
0006FFC000
002EFF8000
0AFAFFA400
1FFFFFF400
03C3FE0000
03C7FD0000
02FFF40000
007F900000
ENDCHAR
STARTCHAR Gcaron
ENCODING 486
SWIDTH 578 0
DWIDTH 19 0
BBX 21 39 0 -7
BITMAP
000001400140
000001C02E00
000000E2F400
000000BFD000
0000007F4000
0000003C0000
000000100000
000000000000
00006FF90000
0007FFFF8000
002FF90BE000
00BFD003F000
02FF8003F000
07FE0007F000
0FFD000FE000
1FF800068000
2FF400000000
3FF000000000
7FE000000000
7FE0001FD000
7FE0002FC000
7FE0003FC000
7FE0007F8000
3FE000FF4000
2FF402FF4000
1FFD1BFF0000
0BFFFEFF0000
02FFF6FE0000
006A92FD0000
001503FD0000
00BF87FC0000
03FFCBF80000
07FADBF40000
0BD00FF00000
0BC01FE00000
0BC02FC00000
07E0BF400000
01FFFD000000
006FA0000000
ENDCHAR
STARTCHAR gcaron
ENCODING 487
SWIDTH 507 0
DWIDTH 16 0
BBX 19 32 -1 -8
BITMAP
00007001D0
0000381F40
00002EFD00
00001FF000
00000FC000
00000A0000
0000000000
0000000000
000BF9FF40
007FFFFF00
01FF47FE00
03FD03FE00
0BFC07FD00
1FF407FD00
2FF00BFC00
3FE00FF800
3FE00FF800
7FD01FF400
7FD02FF024
7FD03FF070
7FE0BFE0E0
3FFFFFD2C0
1FFFBFEF40
06F9BFF800
0006FFC000
002FFF8000
00F9FF4000
02D1FF0000
03C2FE0000
03C7FD0000
01FFF80000
006F900000
ENDCHAR
STARTCHAR uni01E8
ENCODING 488
SWIDTH 601 0
DWIDTH 19 0
BBX 23 33 0 -1
BITMAP
0000001800B4
0000000E0BD0
0000000BBF00
00000007F800
00000003E000
000000038000
000000000000
000000000000
0001AF801F80
001FFF407F00
00BEFF40FD00
07E2FF02F400
1FC2FE07E000
2F43FE0F8000
7E07FD2F0000
BD07FD7D0000
BD0BFCF40000
BD0FFAD00000
7D0FFF800000
191FFFFE4000
002FF5BFC000
002FF03FD000
003FE03FD000
007FD03FD000
007FD03FC000
00BFC07FC000
00BF80BF8000
00FF80FF4000
01FF41FF0000
01FF01FF0000
02FF02FF0000
03FE01FF4000
000000550000
ENDCHAR
STARTCHAR uni01E9
ENCODING 489
SWIDTH 518 0
DWIDTH 17 0
BBX 19 30 -1 0
BITMAP
00001800B4
00000D0BC0
00000FBE00
00000BF800
000007E000
0000038000
0000000000
0000400000
006FC00000
00BF800000
00FF800000
01FF400000
01FF000000
02FF000000
03FE00BD00
03FD02E000
07FD1F8000
0BFC7D0000
0BFEFA4000
0FFFFFD000
1FFFFFF000
1FF92FF400
2FF01FF400
2FE02FF000
3FE02FF018
7FD03FE034
7FC03FE0B0
BFC03FFFD0
FF801FFF40
FF4006F900
ENDCHAR
STARTCHAR uni01EA
ENCODING 490
SWIDTH 665 0
DWIDTH 21 0
BBX 21 39 0 -7
BITMAP
00002F800000
00001FC00000
00000FC00000
00000BD00000
000007D00000
000003E00000
000000000000
000000000000
00006BFE8000
0007FFFFF400
007F9006FD00
02FD0A90FF00
0BE07F80BF40
1FC1FE007F80
3F47FD007FC0
7E0BF8007FC0
7E1FF4007FC0
7D2FF0007FC0
3D7FE000BF80
05BFD000BF80
00BFC000FF40
00FF8001FF40
01FF8002FF00
01FF4003FE00
01FF4007FD00
02FF400BF800
02FF401FF000
01FF403FD000
00FF80BF8000
00BFEBFE0000
003FFFF40000
000BFE400000
0002C0000000
000B40000000
001F00000000
001F40000000
001F82800000
000FFE000000
0002E4000000
ENDCHAR
STARTCHAR uni01EB
ENCODING 491
SWIDTH 433 0
DWIDTH 14 0
BBX 19 23 -1 -7
BITMAP
000AF90000
007FFF4000
01FF4BC000
07FD07C014
0FF80FD1B4
1FF41FFF80
2FF00BE400
3FE00BC000
7FD00F8000
7FD01F8000
BFC02F4000
BFD03E0000
7FD0FD0000
3FFFF80000
2FFFD00000
06FE400000
0380000000
0F40000000
1F00000000
2F00000000
2F82400000
1FFE000000
06E4000000
ENDCHAR
STARTCHAR uni01EE
ENCODING 494
SWIDTH 525 0
DWIDTH 17 0
BBX 18 33 0 -1
BITMAP
00002801A0
00001D1B80
00000FBE00
00000BF800
000007D000
0000034000
0000000000
0000000000
006FFFFFF0
01FFFFFFD0
02F400FF80
02F802FE00
02F40BFC00
00501FF400
00003FE000
0000BFC000
0002FF4000
0007FD0000
000BFF9000
000BFFF400
00002FFD00
00000BFE00
000007FF00
000003FF00
000003FF00
064007FF00
2F8007FE00
7F000BFD00
7F001FF800
7F003FF000
2FE6FF8000
0BFFF90000
0055400000
ENDCHAR
STARTCHAR uni01EF
ENCODING 495
SWIDTH 600 0
DWIDTH 19 0
BBX 16 32 0 -8
BITMAP
000D0068
000B06E0
0007AF80
0003FD00
0002F400
0001D000
00000000
00000000
06FFFF80
1FFFFF00
3F03FE00
3F07FC00
2D0FF400
002FE000
007FD000
00FF8000
01FF0000
03FD0000
07FD0004
01FF401D
00BF8028
007FC074
003FD1E0
003FEF40
003FF800
06FFE000
2FBFD000
B87FD000
F0BFC000
F1FF4000
BFFD0000
1FE40000
ENDCHAR
STARTCHAR uni01F4
ENCODING 500
SWIDTH 578 0
DWIDTH 19 0
BBX 18 38 0 -7
BITMAP
00000007F0
0000000FD0
0000001F40
0000003E00
000000BC00
0000005400
0000000000
00006FF900
0007FFFF80
002FF90BE0
00BFD003F0
02FF8003F0
07FE0007F0
0FFD000BE0
1FF8000B80
2FF4000000
3FF0000000
7FE0000000
7FE0001A90
7FE0002FD0
7FE0003FC0
7FE0007F80
3FE000FF80
2FF402FF40
1FFD1BFF00
0BFFFEFF00
02FFF6FE00
006A92FD00
001503FD00
00BF87FC00
03FFCBF800
07FADBF400
0BD00FF000
0BC01FE000
0BC02FC000
07E0BF4000
01FFFD0000
006FA00000
ENDCHAR
STARTCHAR uni01F5
ENCODING 501
SWIDTH 507 0
DWIDTH 16 0
BBX 19 32 -1 -8
BITMAP
000001F800
000003F400
000007E000
00000FC000
00001F4000
00003E0000
0000140000
0000000000
000BF9FF40
007FFFFF00
01FF47FE00
03FD03FE00
0BFC07FD00
1FF407FD00
2FF00BFC00
3FE00FF800
3FE00FF800
7FD01FF400
7FD02FF024
7FD03FF070
7FE0BFE0E0
3FFFFFD2C0
1FFFBFEF40
06F9BFF800
0006FFC000
002FFF8000
00F9FF4000
02D1FF0000
03C2FE0000
03C7FD0000
01FFF80000
006F900000
ENDCHAR
STARTCHAR Aringacute
ENCODING 506
SWIDTH 668 0
DWIDTH 21 0
BBX 25 36 0 -4
BITMAP
00000000000A40
00000000001F80
00000000003E00
00000000007C00
0000000002F400
000000000FF400
000000001E3800
000000001E7800
000000000BF000
000000006FF000
00000002FFF000
0000000B7FE000
0000003D7FD000
000000F47FD000
000002E0BFC000
00000BC0FF8000
00001F40FF8000
00003F01FF4000
01BFFE41FF0000
1FFFFFFAFF0000
7F83F45BFE0000
BF07F003FD0000
BF0FE007FD0000
192FC00BFC0000
003F800BF80000
007F400FF80000
00FF001FF40000
01FE001FF00000
02FD002FF00000
03FC003FE00000
03FC003FD00000
07F8007FD00000
07F80000000000
03F80000000000
01F80000000000
00140000000000
ENDCHAR
STARTCHAR aringacute
ENCODING 507
SWIDTH 526 0
DWIDTH 17 0
BBX 19 26 -1 0
BITMAP
0000006400
000001F800
000002F000
00000BD000
00003AD000
0000709000
000070D000
00002F8000
0000000000
0000000000
000BF9FF40
007FFFFF00
01FF47FE00
03FD03FE00
0BFC07FD00
1FF407FD00
2FF00BFC00
3FE00BF800
3FE00FF800
7FD01FF400
7FD01FF018
7FD03FF028
7FE0BFF070
3FFFEFFFD0
1FFF4FFF80
06F906F900
ENDCHAR
STARTCHAR AEacute
ENCODING 508
SWIDTH 764 0
DWIDTH 24 0
BBX 29 36 0 -4
BITMAP
000000000001A400
000000000007E000
00000000000BC000
00000000001F4000
00000000002E0000
0000000000780000
0000000000600000
0000000000000000
000000002FE50180
00000001FFFFFF80
0000000BFFFFFF40
0000002F7FE1A900
000000BC7FD00000
000001F47FC00000
000007D0BFC00000
00000F80FF800000
00002F40FF400000
00007E01FF400000
02BFFE52FF554000
2FFFFFFFFFFF8000
7F43F41BFFFF4000
BF07F007FD000000
7F0FE007FC000000
042FC00BFC000000
003F800FF8000000
007F400FF8000000
00FF001FF4000000
01FE002FF0000000
02FD002FF0000000
03FC003FFFFFC000
03FC003FFFFF8000
07F8007FFFFF4000
07F8000000000000
03F8000000000000
02F8000000000000
0054000000000000
ENDCHAR
STARTCHAR aeacute
ENCODING 509
SWIDTH 650 0
DWIDTH 21 0
BBX 23 24 -1 0
BITMAP
00000000FD00
00000001F800
00000003F000
00000007D000
0000000B8000
0000001F4000
000000040000
000000000000
000BFE02FE40
007FFFEFFF80
01E41FFF87C0
00400FFF07D0
00000FFD07C0
00000FFC0F80
00001FF82F40
01AFFFF5BD00
0BFFFFFFF400
2FF83FFE4000
3FE03FF00014
7FD07FF00074
7FE1FFF406D0
3FFFEFFFFF40
2FFF4BFFFD00
06F901BF9000
ENDCHAR
STARTCHAR Oslashacute
ENCODING 510
SWIDTH 658 0
DWIDTH 21 0
BBX 21 34 0 -2
BITMAP
000000002900
00000000BE00
00000000FC00
00000002F400
00000003E000
0000000BC000
000000064000
000000000000
0000000E0000
0000001D0000
00006BFE4000
001BFFFFE000
00BFAFBAF800
07F4BF79FD00
1FD2FD74FE00
3F4BF8B0FF00
7E1FF4B0FF00
7D2FE0E0FF40
7D3FD1E0FF40
2D7FC1D1FF00
00BF82C1FF00
00FF82C2FE00
01FF4383FD00
01FF0747FC00
02FF074BF800
02FF0B0FF400
02FF0E2FE000
02FF0E7FC000
01FF5EFF4000
00FFAFFD0000
007FFFE40000
000BFE400000
000074000000
000074000000
ENDCHAR
STARTCHAR oslashacute
ENCODING 511
SWIDTH 428 0
DWIDTH 14 0
BBX 17 26 -2 -2
BITMAP
000000BE00
000000FC00
000002F400
000003E000
00000BC000
00000F4000
0000050000
0000000000
0001BE4380
001FFFDA00
007FD2FC00
00FF81F400
02FF01F400
07FD07F400
0BFC1FF400
0FF87AF400
1FF8F2F000
1FFBC3E000
1FFF4BD000
1FFD1FC000
1FF87F4000
0FFFFE0000
0BFFF40000
1EBF800000
7800000000
5000000000
ENDCHAR
STARTCHAR uni0200
ENCODING 512
SWIDTH 668 0
DWIDTH 21 0
BBX 23 35 0 -4
BITMAP
000001F87F00
000000BD1F40
0000003E0BC0
0000001F43D0
0000000781F0
00000002D074
000000000000
000000002FE0
00000001FFF0
0000000BFFE0
0000002F7FE0
000000BD7FD0
000001F47FC0
000007E0BFC0
00000BC0FF80
00002F40FF40
00003F01FF40
01BFFE41FF00
1FFFFFFAFE00
7F83F45BFE00
BF07F003FD00
BF0FE007FC00
192FC00BFC00
003F800BF800
007F400FF800
00FF001FF400
01FE001FF000
02FD002FF000
03FC003FE000
03FC003FD000
07F8007FD000
07F800000000
03F800000000
01F800000000
001400000000
ENDCHAR
STARTCHAR uni0201
ENCODING 513
SWIDTH 526 0
DWIDTH 17 0
BBX 19 24 -1 0
BITMAP
01FC7F0000
00BD1F8000
002F0BC000
000F43E000
0007C1F000
0002D07800
0000000000
0000000000
000BF9FF40
007FFFFF00
01FF47FE00
03FD03FE00
0BFC07FD00
1FF407FD00
2FF00BFC00
3FE00BF800
3FE00FF800
7FD01FF400
7FD01FF018
7FD03FF028
7FE0BFF070
3FFFEFFFD0
1FFF4FFF80
06F906F900
ENDCHAR
STARTCHAR uni0202
ENCODING 514
SWIDTH 668 0
DWIDTH 21 0
BBX 26 34 0 -4
BITMAP
000000001BFE00
00000000BFFFC0
00000003F40BE0
0000000BD003F0
00000000000000
00000000000000
000000002FE000
00000001FFF000
0000000BFFE000
0000002F7FE000
000000BD7FD000
000001F47FC000
000007E0BFC000
00000BC0FF8000
00002F40FF4000
00003F01FF4000
01BFFE41FF0000
1FFFFFFAFE0000
7F83F45BFE0000
BF07F003FD0000
BF0FE007FC0000
192FC00BFC0000
003F800BF80000
007F400FF80000
00FF001FF40000
01FE001FF00000
02FD002FF00000
03FC003FE00000
03FC003FD00000
07F8007FD00000
07F80000000000
03F80000000000
01F80000000000
00140000000000
ENDCHAR
STARTCHAR uni0203
ENCODING 515
SWIDTH 526 0
DWIDTH 17 0
BBX 19 22 -1 0
BITMAP
00006FE400
0007FFFE00
001FD07F40
003F001F40
0015000500
0000000000
000BF9FF40
007FFFFF00
01FF47FE00
03FD03FE00
0BFC07FD00
1FF407FD00
2FF00BFC00
3FE00BF800
3FE00FF800
7FD01FF400
7FD01FF018
7FD03FF028
7FE0BFF070
3FFFEFFFD0
1FFF4FFF80
06F906F900
ENDCHAR
STARTCHAR uni0204
ENCODING 516
SWIDTH 459 0
DWIDTH 15 0
BBX 16 33 0 -1
BITMAP
01FC3F40
007D1F80
002F0BD0
000F42E0
0007C0F0
0001D078
00000000
00000000
00006FE0
0002FFFC
000FF47D
002FC02E
007F802E
00BF407D
00BF40BC
00BF4010
00BF8000
003FD000
001FF800
007FE400
02FF8000
0BFE0000
1FFC0000
3FF40000
7FF00000
BFF00000
BFF00005
BFF0001C
BFF800B4
7FFEABD0
2FFFFF40
0BFFF800
00554000
ENDCHAR
STARTCHAR uni0205
ENCODING 517
SWIDTH 384 0
DWIDTH 12 0
BBX 14 24 -1 0
BITMAP
1FC7F000
0BD1F800
02F0BC00
00F43E00
00781F00
002D0780
00000000
00000000
000AF900
007FFF40
01FF4F80
03FD0B80
0BFC0F80
1FF41F40
2FF07E00
3FE2F800
3FFFE000
7FFA4000
7FD00010
7FD000A0
7FE007C0
3FFABE00
1FFFF800
06FE8000
ENDCHAR
STARTCHAR uni0206
ENCODING 518
SWIDTH 459 0
DWIDTH 15 0
BBX 18 31 0 -1
BITMAP
00001BFE00
0000BFFFD0
0002F80BE0
0007D003F0
0000000000
0000000000
00006FE000
0002FFFC00
000FF47D00
002FC02E00
007F802E00
00BF407D00
00BF40BC00
00BF401000
00BF800000
003FD00000
001FF80000
007FE40000
02FF800000
0BFE000000
1FFC000000
3FF4000000
7FF0000000
BFF0000000
BFF0000500
BFF0001C00
BFF800B400
7FFEABD000
2FFFFF4000
0BFFF80000
0055400000
ENDCHAR
STARTCHAR uni0207
ENCODING 519
SWIDTH 384 0
DWIDTH 12 0
BBX 14 22 -1 0
BITMAP
000AFE40
00BFFFD0
02F80BF0
07E003F0
01400150
00000000
000AF900
007FFF40
01FF4F80
03FD0B80
0BFC0F80
1FF41F40
2FF07E00
3FE2F800
3FFFE000
7FFA4000
7FD00010
7FD000A0
7FE00780
3FFFFE00
1FFFF800
06FE8000
ENDCHAR
STARTCHAR uni0208
ENCODING 520
SWIDTH 375 0
DWIDTH 12 0
BBX 14 31 0 0
BITMAP
0BE1F800
02F0BD00
00F83E00
007C1F40
002E0780
000B02D0
00000000
0001AF80
001FFF40
00BFFF40
03FAFF00
0FD2FE00
2F43FE00
7F03FD00
BD07FC00
BD0BFC00
BD0BF800
7D0FF400
1D1FF400
001FF000
002FF000
003FE000
003FD000
007FD000
00BFC000
00BF8000
00FF8000
01FF4000
01FF0000
02FF0000
03FE0000
ENDCHAR
STARTCHAR uni0209
ENCODING 521
SWIDTH 267 0
DWIDTH 9 0
BBX 13 24 -3 0
BITMAP
BD2F8000
3F0BC000
1F43E000
0BC1F000
02D0B800
00F02C00
00000000
00000000
003FE000
003FD000
007FD000
00BFC000
00BF8000
00FF8000
01FF4000
01FF4000
02FF0000
03FE0000
03FE0280
07FD0340
07FE1E00
03FFFD00
02FFF400
00BE4000
ENDCHAR
STARTCHAR uni020A
ENCODING 522
SWIDTH 375 0
DWIDTH 12 0
BBX 16 30 0 0
BITMAP
0001BFE0
000BFFFC
003F40BE
00BD003F
00000000
00000000
0001AF80
001FFF40
01BEFF40
07E2FF00
1F82FE00
3F03FE00
7E07FD00
BD07FC00
BD0BFC00
BD0FF800
3D0FF400
051FF400
002FF000
002FF000
003FE000
007FD000
007FD000
00BFC000
00BF8000
00FF8000
01FF4000
01FF0000
02FF0000
03FE0000
ENDCHAR
STARTCHAR uni020B
ENCODING 523
SWIDTH 267 0
DWIDTH 9 0
BBX 11 22 -1 0
BITMAP
01BF80
0BFFF0
2F41F4
3D00F8
140010
000000
03FE00
03FD00
07FD00
0BFC00
0BF800
0FF800
1FF400
1FF400
2FF000
3FE000
3FE028
7FD034
7FE1E0
3FFFD0
2FFF40
0BE400
ENDCHAR
STARTCHAR uni020C
ENCODING 524
SWIDTH 665 0
DWIDTH 21 0
BBX 21 32 0 0
BITMAP
000BE1F80000
0002F0BD0000
0000F83E0000
00007C1F4000
00002E078000
00000B02D000
000000000000
000000000000
00006BFE8000
0007FFFFF400
007F9006FD00
02FD0A90FF00
0BE07F80BF40
1FC1FE007F80
3F43FD007FC0
7E0BF8007FC0
7E1FF4007FC0
7D2FF0007FC0
3D3FE000BF80
05BFD000BF80
00BFC000FF40
00FF8001FF40
01FF8002FF00
01FF4003FE00
01FF4007FD00
02FF400BF800
02FF401FF000
01FF403FD000
00FF80BF8000
00BFEBFE0000
003FFFF40000
0006FE400000
ENDCHAR
STARTCHAR uni020D
ENCODING 525
SWIDTH 433 0
DWIDTH 14 0
BBX 19 24 -1 0
BITMAP
2F87F00000
0BD2F40000
03E0BC0000
01F43D0000
00781F0000
002D0B4000
0000000000
0000000000
000AF90000
007FFF4000
01FF4BC000
07FD07C014
0FF80FD1B4
1FF41FFF80
2FF00BE400
3FE00BC000
7FD00F8000
7FD01F8000
BFC02F4000
BFD03E0000
7FD0BD0000
7FFFF80000
2FFFD00000
06FE400000
ENDCHAR
STARTCHAR uni020E
ENCODING 526
SWIDTH 665 0
DWIDTH 21 0
BBX 21 31 0 0
BITMAP
0000002BE400
000002FFFE00
00000BE46F40
00001F801F80
00001A000A80
000000000000
000000000000
00006BFE8000
0007FFFFF400
007F9006FD00
02FD0A90FF00
0BE07F80BF40
1FC1FE007F80
3F43FD007FC0
7E0BF8007FC0
7E1FF4007FC0
7D2FF0007FC0
3D3FE000BF80
05BFD000BF80
00BFC000FF40
00FF8001FF40
01FF8002FF00
01FF4003FE00
01FF4007FD00
02FF400BF800
02FF401FF000
01FF403FD000
00FF80BF8000
00BFEBFE0000
003FFFF40000
0006FE400000
ENDCHAR
STARTCHAR uni020F
ENCODING 527
SWIDTH 433 0
DWIDTH 14 0
BBX 19 22 -1 0
BITMAP
0006FF8000
002FFFF000
00BE02F800
01F400FC00
0150005400
0000000000
000AF90000
007FFF4000
01FF4BC000
07FD07C014
0FF80FD1B4
1FF41FFF80
2FF00BE400
3FE00BC000
7FD00F8000
7FD01F8000
BFC02F4000
BFD03E0000
7FD0FD0000
7FFFF80000
2FFFD00000
06FE400000
ENDCHAR
STARTCHAR uni0210
ENCODING 528
SWIDTH 601 0
DWIDTH 19 0
BBX 19 33 0 -1
BITMAP
00FD2F4000
007E0FC000
001F47D000
000B81F000
0003D0B400
0001E03C00
0000000000
0000000000
0001AFE900
001FFFFF80
01BE401BE0
07F41603F4
1FC2FE02F8
3F43FE02F8
7E07FD03F4
BD07FC07F0
BD0BFC1FD0
BD0FF87F40
3D0FFFFE00
051FFFFFC0
001FF07FD0
002FF03FD0
003FE03FD0
003FD03FD0
007FD07FC0
00BFC07F80
00BF80BF80
00FF80FF40
01FF41FF00
01FF01FF00
02FF02FF00
03FE01FF80
0000005500
ENDCHAR
STARTCHAR uni0211
ENCODING 529
SWIDTH 376 0
DWIDTH 12 0
BBX 14 24 -1 0
BITMAP
BD2F8000
3F0BC000
1F43E000
07C1F000
02D0B800
00F02C00
00000000
00000000
03FE2F80
03FEBFD0
07FFFFD0
0BFE1FD0
0BFC0B80
0FF80000
1FF40000
1FF40000
2FF00000
3FE00000
3FE00000
7FD00000
7FC00000
BFC00000
FF800000
FF400000
ENDCHAR
STARTCHAR uni0212
ENCODING 530
SWIDTH 601 0
DWIDTH 19 0
BBX 19 31 0 -1
BITMAP
00001AFE40
0000BFFFD0
0002F80BE0
0007E003F0
0000000000
0000000000
0001AFE900
001FFFFF80
01BE401BE0
07F41603F4
1FC2FE02F8
3F43FE02F8
7E07FD03F4
BD07FC07F0
BD0BFC1FD0
BD0FF87F40
3D0FFFFE00
051FFFFFC0
001FF07FD0
002FF03FD0
003FE03FD0
003FD03FD0
007FD07FC0
00BFC07F80
00BF80BF80
00FF80FF40
01FF41FF00
01FF01FF00
02FF02FF00
03FE01FF80
0000005500
ENDCHAR
STARTCHAR uni0213
ENCODING 531
SWIDTH 376 0
DWIDTH 12 0
BBX 15 22 -1 0
BITMAP
000AFE40
007FFFD0
02F907F0
03E002F4
01400050
00000000
03FE2F80
03FEBFD0
07FFFFD0
0BFE1FD0
0BFC0B80
0FF80000
1FF40000
1FF40000
2FF00000
3FE00000
3FE00000
7FD00000
7FC00000
BFC00000
FF800000
FF400000
ENDCHAR
STARTCHAR uni0214
ENCODING 532
SWIDTH 716 0
DWIDTH 23 0
BBX 24 32 0 0
BITMAP
00003F4BE000
00001F83F000
000007D1F400
000002E07C00
000000F42D00
000000780F00
000000000000
000000000000
0001AFD001FF
002FFFC002FF
01F9BFC003FE
0BD0FF8003FD
2F40FF4007FD
7E01FF000BFC
BD02FE000BF8
FC03FD000FF8
FC07FD001FF4
F807FC001FF0
7C0BF8002FF0
040FF4003FE0
001FF0003FD0
001FF0007FD0
002FE000BFC0
002FD000FF80
003FD001FF40
003FD002FF00
007FD003FE00
003FD007FC00
003FF42FF800
002FFFFFE000
000FFFFF8000
0001BFE80000
ENDCHAR
STARTCHAR uni0215
ENCODING 533
SWIDTH 505 0
DWIDTH 16 0
BBX 19 24 -1 0
BITMAP
0FD2F40000
07E0FC0000
02F47D0000
00B82E0000
003C0B4000
001E038000
0000000000
0000000000
03FE03FE00
03FD07FD00
07FD07FC00
0BFC0BFC00
0BF80FF800
0FF80FF800
1FF41FF400
1FF42FF000
2FF02FF000
3FE03FE000
3FE07FD024
7FD0BFD070
7FE2FFE1D0
3FFFBFFF80
2FFE2FFE00
0BE40BE400
ENDCHAR
STARTCHAR uni0216
ENCODING 534
SWIDTH 716 0
DWIDTH 23 0
BBX 24 31 0 0
BITMAP
00000006BE40
0000002FFFE0
000000BE07F4
000001F401F8
000002A000A8
000000000000
000000000000
0001AFD001FF
002FFFC002FF
01F9BFC003FE
0BD0FF8003FD
2F40FF4007FD
7E01FF000BFC
BD02FE000BF8
FC03FD000FF8
FC07FD001FF4
F807FC001FF0
7C0BF8002FF0
040FF4003FE0
001FF0003FD0
001FF0007FD0
002FE000BFC0
002FD000FF80
003FD001FF40
003FD002FF00
007FD003FE00
003FD007FC00
003FF42FF800
002FFFFFE000
000FFFFF8000
0001BFE80000
ENDCHAR
STARTCHAR uni0217
ENCODING 535
SWIDTH 505 0
DWIDTH 16 0
BBX 19 22 -1 0
BITMAP
0001BF9000
001FFFF800
007E41FC00
00FC00BD00
0050001400
0000000000
03FE03FE00
03FD07FD00
07FD07FC00
0BFC0BFC00
0BF80FF800
0FF80FF800
1FF41FF400
1FF42FF000
2FF02FF000
3FE03FE000
3FE07FD024
7FD0BFD070
7FE2FFE1D0
3FFFBFFF80
2FFE2FFE00
0BE40BE400
ENDCHAR
STARTCHAR Scommaaccent
ENCODING 536
SWIDTH 570 0
DWIDTH 18 0
BBX 17 32 1 -8
BITMAP
0001BFE400
000BFFFD00
003FE07F40
00BF801F80
00FF801F80
00FF802F80
00FF807F40
00FFD02900
007FF00000
003FFC0000
001FFE0000
0007FF8000
0002FFE000
0000BFF400
06E43FF800
2FFC1FFC00
7FE40BFD00
BF4007FD00
FF0007FD00
FE000BFC00
BF000FF800
7F802FE000
2FFAFF8000
07FFF90000
0055400000
0000000000
007D000000
00BE000000
007E000000
002C000000
0074000000
0050000000
ENDCHAR
STARTCHAR scommaaccent
ENCODING 537
SWIDTH 382 0
DWIDTH 12 0
BBX 14 25 -1 -8
BITMAP
001AB400
002FF400
003FF400
007FF800
00AFF800
01DFF800
02CFF800
034FF800
0B0FFC00
0D0BFC00
3E0BFC00
BE0BFC70
E40BFEC0
F00FFE00
B42FF400
3FFFD000
0BF90000
00000000
00000000
02E00000
07F00000
03F00000
01D00000
02800000
02000000
ENDCHAR
STARTCHAR uni021A
ENCODING 538
SWIDTH 481 0
DWIDTH 15 0
BBX 23 32 0 -8
BITMAP
0006BFE40004
00BFFFFF906C
07FFFFFFFFF8
0FE42FFFFFF4
2F802FF6BF90
7F003FE00000
BE007FE00000
BD007FD00000
BD00BFC00000
BD00FFC00000
7D00FF800000
1901FF400000
0002FF400000
0002FF000000
0003FE000000
0003FE000000
0007FD000000
000BFC000000
000BFC000000
000FF8000000
001FF4000000
001FF4000000
002FF0000000
003FE0000000
000000000000
000000000000
001F40000000
002F80000000
001F80000000
000B00000000
001D00000000
001400000000
ENDCHAR
STARTCHAR uni021B
ENCODING 539
SWIDTH 267 0
DWIDTH 9 0
BBX 11 29 -1 -8
BITMAP
006A80
00FF80
01FF40
01FF00
02FF00
0FFFE0
07FE00
07FD00
0BFC00
0BF800
0FF800
1FF400
1FF400
2FF000
3FE000
3FE028
7FD034
7FE1E0
3FFFD0
2FFF40
0BE400
000000
000000
1E0000
3F4000
1F4000
0F0000
1D0000
240000
ENDCHAR
STARTCHAR uni021E
ENCODING 542
SWIDTH 665 0
DWIDTH 21 0
BBX 23 32 0 0
BITMAP
0000001800B4
0000000E0BD0
0000000BBF00
00000007F800
00000003E000
000000038000
000000000000
000000000000
0001AF802FF0
001BFF802FF0
00BFFF403FE0
02F5FF403FD0
0FD2FF007FD0
2F42FE00BFC0
7F03FE00BF80
7E07FD00FF80
BD07FC00FF40
7D0BFC01FF40
3D0FFFFFFF00
190FFFFFFE00
001FF957FE00
002FF007FD00
002FF007FC00
003FE00BFC00
007FD00FF800
007FD00FF800
00BFC01FF400
00BF801FF000
00FF802FF000
01FF403FE000
01FF003FD000
02FF007FD000
ENDCHAR
STARTCHAR uni021F
ENCODING 543
SWIDTH 600 0
DWIDTH 19 0
BBX 19 30 -1 0
BITMAP
00000D0068
00000B46E0
000007EF80
000003FD00
000002F400
000001D000
0000000000
0000000000
006BC00000
00BF800000
00FF800000
01FF400000
01FF000000
02FF000000
03FE6F9000
03FEFFF400
07FFFFF800
0BFE0FF800
0BFC0BF800
0FF80FF800
1FF40FF400
1FF41FF000
2FF02FF000
2FE02FE000
3FE03FD024
7FD03FD070
7FC07FD1E0
BFC03FFFC0
FF802FFF40
FF400BF800
ENDCHAR
STARTCHAR uni0237
ENCODING 567
SWIDTH 240 0
DWIDTH 8 0
BBX 16 24 -7 -8
BITMAP
00003FE0
00003FE0
00007FD0
0000BFC0
0000BFC0
0000FF80
0001FF40
0001FF40
0002FF00
0002FF00
0003FE05
0007FD0A
0007FD0D
000BFC28
000FF8A0
000FFF40
006FF800
07FFF000
1FAFF000
3D3FE000
743FD000
74BF8000
3FFF0000
0BF80000
ENDCHAR
STARTCHAR uni0259
ENCODING 601
SWIDTH 404 0
DWIDTH 13 0
BBX 13 16 0 0
BITMAP
01BF9000
0BFFFC00
1FFFFE00
1D03FF00
0002FF40
0001FF40
006BFF40
02FFFF00
0FD3FF00
3F47FE00
BD07FC00
FC0FF800
F81FF000
F87FC000
BFFE0000
2FE40000
ENDCHAR
STARTCHAR uni0292
ENCODING 658
SWIDTH 442 0
DWIDTH 14 0
BBX 16 24 0 -8
BITMAP
06FFFF80
1FFFFF00
3F03FE00
3F07FC00
2D0FF400
002FE000
007FD000
00FF8000
01FF0000
03FD0000
07FD0004
01FF401D
00BF8028
007FC074
003FD1E0
003FEF40
003FF800
06FFE000
2FBFD000
B87FD000
F0BFC000
F1FF4000
BFFD0000
1FE40000
ENDCHAR
STARTCHAR uni02BB
ENCODING 699
SWIDTH 241 0
DWIDTH 8 0
BBX 5 8 4 16
BITMAP
0100
0A00
1C00
7C00
BE00
FF40
FF40
7D00
ENDCHAR
STARTCHAR uni02BC
ENCODING 700
SWIDTH 228 0
DWIDTH 7 0
BBX 5 7 4 17
BITMAP
2E00
7F80
3F80
1F40
0E00
2C00
2000
ENDCHAR
STARTCHAR circumflex
ENCODING 710
SWIDTH 293 0
DWIDTH 9 0
BBX 10 6 0 18
BITMAP
000A00
002F00
00FF40
07FB80
1F42C0
7400D0
ENDCHAR
STARTCHAR caron
ENCODING 711
SWIDTH 294 0
DWIDTH 9 0
BBX 9 6 3 18
BITMAP
A002C0
742E00
3EF800
2FE000
1F4000
0D0000
ENDCHAR
STARTCHAR uni02C9
ENCODING 713
SWIDTH 421 0
DWIDTH 13 0
BBX 11 2 4 19
BITMAP
BFFFF4
FFFFF4
ENDCHAR
STARTCHAR uni02CA
ENCODING 714
SWIDTH 256 0
DWIDTH 8 0
BBX 6 6 4 18
BITMAP
0BE0
0F80
2F00
3D00
B800
E000
ENDCHAR
STARTCHAR uni02CB
ENCODING 715
SWIDTH 274 0
DWIDTH 9 0
BBX 5 6 5 18
BITMAP
BD00
7E00
3E00
2F00
0F00
0B40
ENDCHAR
STARTCHAR breve
ENCODING 728
SWIDTH 431 0
DWIDTH 14 0
BBX 12 5 2 18
BITMAP
680019
BD007D
7E01F8
2FFFE0
0BFE40
ENDCHAR
STARTCHAR dotaccent
ENCODING 729
SWIDTH 250 0
DWIDTH 8 0
BBX 5 5 2 19
BITMAP
6E00
FF80
FF80
FF80
6E00
ENDCHAR
STARTCHAR ring
ENCODING 730
SWIDTH 156 0
DWIDTH 5 0
BBX 5 5 0 17
BITMAP
2F40
BFC0
E2C0
FF80
7E00
ENDCHAR
STARTCHAR ogonek
ENCODING 731
SWIDTH 291 0
DWIDTH 9 0
BBX 8 7 1 -7
BITMAP
0740
1E00
3D00
7C00
BE09
7FFC
1BE0
ENDCHAR
STARTCHAR tilde
ENCODING 732
SWIDTH 403 0
DWIDTH 13 0
BBX 13 4 1 18
BITMAP
00550000
0BFFEA80
3FFFFE00
506FE400
ENDCHAR
STARTCHAR hungarumlaut
ENCODING 733
SWIDTH 436 0
DWIDTH 14 0
BBX 11 6 3 18
BITMAP
0BE1FC
0FC2F4
1F47D0
3D0B80
781F00
F02D00
ENDCHAR
STARTCHAR gravecomb
ENCODING 768
SWIDTH 0 0
DWIDTH 0 0
BBX 5 6 -6 18
BITMAP
7E00
3F00
2F00
1F40
0B40
0780
ENDCHAR
STARTCHAR acutecomb
ENCODING 769
SWIDTH 0 0
DWIDTH 0 0
BBX 6 6 -6 18
BITMAP
0BE0
0F80
2F00
3D00
B800
E000
ENDCHAR
STARTCHAR uni0302
ENCODING 770
SWIDTH 0 0
DWIDTH 0 0
BBX 10 6 -9 18
BITMAP
000A00
002F00
00BF40
03FB80
1F82C0
7800D0
ENDCHAR
STARTCHAR tildecomb
ENCODING 771
SWIDTH 0 0
DWIDTH 0 0
BBX 13 4 -12 18
BITMAP
00550000
0BFFEA80
3FFFFE00
506FE400
ENDCHAR
STARTCHAR uni0304
ENCODING 772
SWIDTH 0 0
DWIDTH 0 0
BBX 11 2 -10 19
BITMAP
7FFFFC
7FFFF8
ENDCHAR
STARTCHAR uni0306
ENCODING 774
SWIDTH 0 0
DWIDTH 0 0
BBX 12 5 -10 18
BITMAP
A40069
FC00BC
BE02F8
7FFFD0
0BFA00
ENDCHAR
STARTCHAR uni0307
ENCODING 775
SWIDTH 0 0
DWIDTH 0 0
BBX 6 5 -4 19
BITMAP
2E40
BFC0
BFD0
BFC0
2E40
ENDCHAR
STARTCHAR uni0308
ENCODING 776
SWIDTH 0 0
DWIDTH 0 0
BBX 10 4 -9 18
BITMAP
2D07D0
BF0FF0
BF0FF0
2D07D0
ENDCHAR
STARTCHAR hookabovecomb
ENCODING 777
SWIDTH 0 0
DWIDTH 0 0
BBX 6 7 -7 18
BITMAP
6E80
FFE0
41F0
01F0
3FD0
3E00
3800
ENDCHAR
STARTCHAR uni030A
ENCODING 778
SWIDTH 0 0
DWIDTH 0 0
BBX 5 5 -4 17
BITMAP
2E40
BF80
E2C0
FF80
7E00
ENDCHAR
STARTCHAR uni030B
ENCODING 779
SWIDTH 0 0
DWIDTH 0 0
BBX 12 6 -10 18
BITMAP
03F4BD
07E1F8
0F82F0
1F07D0
3D0B40
781E00
ENDCHAR
STARTCHAR uni030C
ENCODING 780
SWIDTH 0 0
DWIDTH 0 0
BBX 10 6 -8 18
BITMAP
6002D0
382F40
2EFC00
1FE000
0F8000
0A0000
ENDCHAR
STARTCHAR uni030F
ENCODING 783
SWIDTH 0 0
DWIDTH 0 0
BBX 12 6 -11 18
BITMAP
BE1FC0
2F4BD0
0F82F0
07C0F4
02E078
00B02D
ENDCHAR
STARTCHAR uni0311
ENCODING 785
SWIDTH 0 0
DWIDTH 0 0
BBX 12 5 -11 17
BITMAP
01AF90
1BFFF8
3F41FC
BC007D
540015
ENDCHAR
STARTCHAR uni031B
ENCODING 795
SWIDTH 0 0
DWIDTH 0 0
BBX 5 7 -4 14
BITMAP
0B80
0F80
0F80
0F40
2E00
BC00
6000
ENDCHAR
STARTCHAR dotbelowcomb
ENCODING 803
SWIDTH 0 0
DWIDTH 0 0
BBX 5 5 -6 -7
BITMAP
2E40
BFC0
FFC0
BFC0
2E40
ENDCHAR
STARTCHAR uni0324
ENCODING 804
SWIDTH 0 0
DWIDTH 0 0
BBX 10 4 -14 -6
BITMAP
7D0780
FE0FE0
FE0FE0
7D0B80
ENDCHAR
STARTCHAR uni0326
ENCODING 806
SWIDTH 0 0
DWIDTH 0 0
BBX 4 6 -8 -8
BITMAP
7D
BE
7E
2D
38
50
ENDCHAR
STARTCHAR uni0327
ENCODING 807
SWIDTH 0 0
DWIDTH 0 0
BBX 8 8 -12 -7
BITMAP
0280
0340
0754
0FFD
047E
507E
7FFC
1BE0
ENDCHAR
STARTCHAR uni0328
ENCODING 808
SWIDTH 0 0
DWIDTH 0 0
BBX 8 7 -12 -7
BITMAP
0780
1E00
3D00
7D00
7E06
3FFD
1BE0
ENDCHAR
STARTCHAR uni032E
ENCODING 814
SWIDTH 0 0
DWIDTH 0 0
BBX 10 5 -14 -7
BITMAP
100050
7C02F0
7FAFD0
1FFE40
015000
ENDCHAR
STARTCHAR uni0331
ENCODING 817
SWIDTH 0 0
DWIDTH 0 0
BBX 11 2 -15 -5
BITMAP
7FFFFC
BFFFF8
ENDCHAR
STARTCHAR uni0335
ENCODING 821
SWIDTH 0 0
DWIDTH 0 0
BBX 12 2 -13 8
BITMAP
3FFFFE
7FFFFD
ENDCHAR
STARTCHAR uni0394
ENCODING 916
SWIDTH 619 0
DWIDTH 20 0
BBX 20 24 0 0
BITMAP
0000007F40
000000FF40
000002FF80
000007FF80
00000BDFC0
00001F9FC0
00003F0FD0
0000BD0FD0
0000F80BE0
0002F40BE0
0007E007F0
000FC007F0
001F4007F0
003F0003F4
00BD0003F4
01F80002F8
02F00002F8
07E00001FC
0FC00001FC
2F400001FD
3E000000FD
BFFFFFFFFD
BFFFFFFFFD
BFFFFFFFFD
ENDCHAR
STARTCHAR uni03A9
ENCODING 937
SWIDTH 745 0
DWIDTH 24 0
BBX 22 25 1 0
BITMAP
000001AA9000
00002FFFF800
0001FFFFFE00
0007F901BF40
001FD0002F80
007F00000FC0
00FD00000BD0
01F400000BD0
03F0000007D0
07E0000007D0
0BD000000BD0
0FC000000BC0
0F8000000BC0
0F8000000F80
0F8000001F40
0F8000002E00
0BC000007D00
0BC00000B800
07D00001E000
02F00007C000
00F4001F0000
007D00780000
BFFF01FFFE00
BFFE02FFFE00
FFFE03FFFD00
ENDCHAR
STARTCHAR uni03BC
ENCODING 956
SWIDTH 505 0
DWIDTH 16 0
BBX 21 21 -3 -5
BITMAP
003FE03FE000
003FD07FD000
007FD07FC000
00BFC0BFC000
00BFC0FF8000
00FF80FF8000
01FF41FF4000
01FF42FF0000
02FF02FF0000
03FE03FE0000
03FE07FD0140
07FD0BFD0700
07FE1FFD1E00
0BFFFBFFFC00
0FFFE2FFF000
0FFE40BE4000
1FF400000000
2FF000000000
2FF000000000
3FE000000000
7E4000000000
ENDCHAR
STARTCHAR pi
ENCODING 960
SWIDTH 530 0
DWIDTH 17 0
BBX 18 16 -1 0
BITMAP
3FFFFFFFF0
7FFFFFFFE0
7FFFFFFFD0
01F001F000
02F002F000
03E003E000
03D003D000
07D007D000
0BC00BC000
0B800B8000
0F800F8000
1F401F4000
1F401F0000
2F002F0000
3E001FE000
3E000B8000
ENDCHAR
STARTCHAR uni0400
ENCODING 1024
SWIDTH 459 0
DWIDTH 15 0
BBX 16 33 0 -1
BITMAP
00007F00
00003F00
00002F00
00000F40
00000B40
00000780
00000000
00000000
00006FE0
0002FFFC
000FF47D
002FC02E
007F802E
00BF407D
00BF40BC
00BF4010
00BF8000
003FD000
001FF800
007FE400
02FF8000
0BFE0000
1FFC0000
3FF40000
7FF00000
BFF00000
BFF00005
BFF0001C
BFF800B4
7FFEABD0
2FFFFF40
0BFFF800
00554000
ENDCHAR
STARTCHAR uni0401
ENCODING 1025
SWIDTH 459 0
DWIDTH 15 0
BBX 17 31 0 -1
BITMAP
0000B80B40
0001FD2FC0
0001FD2FC0
0000B81F40
0000000000
0000000000
00006FE000
0002FFFC00
000FF47D00
002FC02E00
007F802E00
00BF407D00
00BF40BC00
00BF401000
00BF800000
003FD00000
001FF80000
007FE40000
02FF800000
0BFE000000
1FFC000000
3FF4000000
7FF0000000
BFF0000000
BFF0000500
BFF0001C00
BFF800B400
7FFEABD000
2FFFFF4000
0BFFF80000
0055400000
ENDCHAR
STARTCHAR uni0402
ENCODING 1026
SWIDTH 725 0
DWIDTH 23 0
BBX 23 30 0 -6
BITMAP
0006BFFA5018
00BFFFFFFFFC
03FFFFFFFFF8
0FF41FFABF90
2F802FF00000
3F002FE00000
7E003FE00000
BE007FD00000
BD007FD00000
7D00BFC00000
3D00FF9BF900
0500FFFFFF40
0001FF80FF80
0002FF00BFC0
0002FF00BFC0
0003FE00BFC0
0007FD00BF80
0007FD00FF80
000BFC01FF40
000BF801FF00
000FF802FE00
001FF403FE00
001FF007FC00
002FF00BF800
0000001FF400
0000002FE000
000011BFC000
00007FFF4000
00007FFD0000
00001FE40000
ENDCHAR
STARTCHAR uni0403
ENCODING 1027
SWIDTH 400 0
DWIDTH 13 0
BBX 21 32 0 0
BITMAP
00000000BD00
00000001F800
00000002F000
00000007D000
0000000B4000
0000001E0000
000000000000
000000000000
0006BFFFFF40
00BFFFFFFE00
07E5FFABF800
1F81FF000000
2F42FF000000
7F03FE000000
BE03FD000000
BE07FD000000
BE0BFC000000
7E0BFC000000
1A0FF8000000
000FF4000000
001FF4000000
002FF0000000
002FE0000000
003FE0000000
007FD0000000
007FD0000000
00BFC0000000
00BF80000000
00FF80000000
01FF40000000
01FF00000000
02FF00000000
ENDCHAR
STARTCHAR uni0404
ENCODING 1028
SWIDTH 497 0
DWIDTH 16 0
BBX 17 25 0 -1
BITMAP
00006FE400
0007FFFF00
001FF90F80
007FF00BC0
00FFD00BC0
02FF800FC0
03FF002F80
0BFE001A00
0FFD000000
1FFC000000
2FFFFFC000
2FFFFF8000
3FF4000000
3FF0000000
7FF0000000
7FF0000000
7FF0000000
7FF0000000
7FF0000140
3FF4000740
3FFC002E00
1FFFAAF800
0BFFFFE000
02FFFE4000
0015500000
ENDCHAR
STARTCHAR uni0405
ENCODING 1029
SWIDTH 570 0
DWIDTH 18 0
BBX 17 25 1 -1
BITMAP
0001BFE400
000BFFFD00
003FE07F40
00BF801F80
00FF801F80
00FF802F80
00FF807F40
00FFD02900
007FF00000
003FFC0000
001FFE0000
0007FF8000
0002FFE000
0000BFF400
06E43FF800
2FFC1FFC00
7FE40BFD00
BF4007FD00
FF0007FD00
FE000BFC00
BF000FF800
7F802FE000
2FFAFF8000
07FFF90000
0055400000
ENDCHAR
STARTCHAR uni0406
ENCODING 1030
SWIDTH 374 0
DWIDTH 12 0
BBX 13 24 0 0
BITMAP
0001AF80
001FFF80
00BEFF40
03E1FF00
0FC2FF00
2F43FE00
7E03FE00
BE07FD00
BD07FC00
7D0BFC00
2D0FF800
050FF400
001FF400
002FF000
002FE000
003FE000
007FD000
007FD000
00BFC000
00FF8000
00FF8000
01FF4000
01FF0000
02FF0000
ENDCHAR
STARTCHAR uni0407
ENCODING 1031
SWIDTH 375 0
DWIDTH 12 0
BBX 16 30 0 0
BITMAP
0007D078
000BF0FE
000BF0FE
0007D078
00000000
00000000
0001AF80
001FFF40
01BEFF40
07E2FF00
1F82FE00
3F03FE00
7E07FD00
BD07FC00
BD0BFC00
BD0FF800
3D0FF400
051FF400
002FF000
002FF000
003FE000
007FD000
007FD000
00BFC000
00BF8000
00FF8000
01FF4000
01FF0000
02FF0000
03FE0000
ENDCHAR
STARTCHAR uni0408
ENCODING 1032
SWIDTH 536 0
DWIDTH 17 0
BBX 19 31 0 -7
BITMAP
0000001BF4
000002FFF4
00001FEFF0
00007E2FE0
0001F83FE0
0007E07FD0
000BD07FC0
000FC0BFC0
000FC0FF80
000BC0FF80
0007C1FF40
000042FF00
000002FF00
000003FE00
000007FD00
000007FD00
00000BFC00
00000FFC00
00000FF800
00001FF400
00002FF400
01502FF000
0BFD3FE000
2FFE7FE000
7FAA7FD000
7E00BFC000
7D00FF8000
7D01FF0000
3F47FD0000
1FFFF40000
06FE400000
ENDCHAR
STARTCHAR uni0409
ENCODING 1033
SWIDTH 817 0
DWIDTH 26 0
BBX 26 28 -1 -4
BITMAP
00000006F90000
0000007FFD0000
000002FBFC0000
00000BCBFC0000
00002F0FF80000
00007D1FF40000
0001F81FF40000
0003F02FF00000
000BD03FE00000
001FC03FE00000
002F407FEAE900
007F007FFFFF40
00FD00BFD1BFD0
01FC00FF803FE0
03F800FF802FF0
07F401FF401FF0
0FF002FF001FF0
1FE002FF002FF0
2FD003FE002FE0
3FC007FD003FD0
7F8007FD40BFC0
BF400BFCEAFF40
BF400BF8FFFE00
FF000FF87FF400
FF000000154000
BF000000000000
7F000000000000
05000000000000
ENDCHAR
STARTCHAR uni040A
ENCODING 1034
SWIDTH 931 0
DWIDTH 30 0
BBX 29 25 0 -1
BITMAP
0001AF802FF00000
001FFF802FF00000
00BEFF403FE00000
03F5FF403FD00000
0FC2FF007FD00000
2F42FE00BFC00000
7F03FE00BFC00000
BE07FD00FF800000
BD07FC00FF400000
7D0BFC01FF400000
2D0FFFFFFF6FA000
050FFFFFFFFFFD00
001FF403FE07FE00
002FF007FD01FF40
002FF007FC00FF80
003FE00BFC00BF80
007FD00FF800FF80
007FD00FF800FF80
00BFC01FF400FF40
00BF802FF001FF00
00FF802FF003FE00
01FF403FE7AFFC00
01FF003FD7FFF400
02FF007FD2FFD000
0000000000550000
ENDCHAR
STARTCHAR uni040B
ENCODING 1035
SWIDTH 745 0
DWIDTH 24 0
BBX 23 25 0 -1
BITMAP
0006BFFA5018
00BFFFFFFFFC
03FFFFFFFFF8
0FF41FFABF90
2F802FF00000
3F002FE00000
7E003FE00000
BE007FD00000
BD007FD00000
7D00BFC00000
3D00FF9BF900
0500FFFFFF40
0001FF80FF80
0002FF00BFC0
0002FF00BFC0
0003FE00BFC0
0007FD00FF80
0007FD00FF80
000BFC01FF40
000BF801FF00
000FF802FF00
001FF403FE00
001FF003FE00
002FF002FF40
000000005500
ENDCHAR
STARTCHAR uni040C
ENCODING 1036
SWIDTH 635 0
DWIDTH 20 0
BBX 22 33 0 -1
BITMAP
00000000BD00
00000001F800
00000002F000
00000007D000
0000000B4000
0000001E0000
000000000000
000000000000
0001AF802F80
001BFF80FFE0
00BEFF43FFE0
02E1FF4BDB90
0FC2FF1F0000
2F43FE3D0000
3F03FEB80000
7E07FDF00000
BD0BFED00000
7D0BFFC00000
7D0FFF800000
1A0FFFFF4000
001FF9BFD000
002FF02FE000
002FF02FE000
003FE02FD000
007FD03FD000
007FD07FC000
00BFC0BF8000
00FF80BF8000
00FF80FF4000
01FF41FF0000
01FF01FF0000
02FF00FF8000
000000154000
ENDCHAR
STARTCHAR uni040D
ENCODING 1037
SWIDTH 705 0
DWIDTH 23 0
BBX 24 32 0 0
BITMAP
0000003F0000
0000002F4000
0000001F4000
0000000F8000
000000078000
00000003C000
000000000000
000000000000
0001AF8007FD
001FFF800FFC
00BEFF402FFC
03E1FF003FF8
0FC2FF00BFF8
2F43FE01FFF4
7E03FE02FFF0
BE07FD07FFF0
BD07FC0FBFE0
7D0BFC1F7FD0
2D0FF83E7FD0
050FF4BCBFC0
001FF4F4BFC0
002FF2F0FF80
002FE7D1FF40
003FEB81FF40
007FEF02FF00
007FFE02FE00
00BFFC03FE00
00FFF407FD00
00FFE007FC00
01FFD00BFC00
01FF800FF800
02FF000FF800
ENDCHAR
STARTCHAR uni040E
ENCODING 1038
SWIDTH 644 0
DWIDTH 21 0
BBX 23 31 0 0
BITMAP
000000000014
000000BD0070
000001FE01E0
000001FD0BC0
000000FFFF40
0000002FE400
000000000000
0001AFC00078
001FFFD000F4
00BDBFD001E0
07E07FE002D0
1F807FF007C0
3F003FF40B80
7E002FF40F00
BE001FF81E00
BD000FFC3D00
7D000BFC7800
1E000BFDB400
000007FEF000
000003FFE000
000002FFC000
000001FF8000
000000FF4000
000000FF0000
000000BD0000
0000007C0000
0002E0B80000
0007F9F00000
0007FFD00000
0007FF800000
0001FD000000
ENDCHAR
STARTCHAR uni040F
ENCODING 1039
SWIDTH 665 0
DWIDTH 21 0
BBX 22 35 0 -11
BITMAP
0001AF802FF0
001FFF802FF0
00BEFF403FE0
03E1FF003FD0
0FC2FF007FD0
2F43FE00BFC0
7E03FE00BF80
BE07FD00FF80
BD07FC01FF40
7D0BFC01FF40
2D0FF802FF00
050FF403FE00
001FF403FE00
002FF007FD00
002FE007FC00
003FE00BFC00
007FD00FF800
007FD00FF800
00BFC01FF400
00FF802FF000
00FF802FF000
01FF957FE000
01FFFFFFD000
02FFFFFFD000
000010000000
0001F0000000
0003F0000000
0007F8000000
0003FE000000
0002FF000000
0000FF400000
00007F000000
00003E000000
000038000000
000010000000
ENDCHAR
STARTCHAR uni0410
ENCODING 1040
SWIDTH 668 0
DWIDTH 21 0
BBX 22 28 0 -4
BITMAP
000000002FE0
00000001FFF0
0000000BFFE0
0000002F7FE0
000000BD7FD0
000001F47FC0
000007E0BFC0
00000BC0FF80
00002F40FF40
00003F01FF40
01BFFE41FF00
1FFFFFFAFE00
7F83F45BFE00
BF07F003FD00
BF0FE007FC00
192FC00BFC00
003F800BF800
007F400FF800
00FF001FF400
01FE001FF000
02FD002FF000
03FC003FE000
03FC003FD000
07F8007FD000
07F800000000
03F800000000
01F800000000
001400000000
ENDCHAR
STARTCHAR uni0411
ENCODING 1041
SWIDTH 638 0
DWIDTH 20 0
BBX 20 25 0 -1
BITMAP
0006BFFFFF
00BFFFFFFE
07D2FFABF8
1F43FE0000
3E07FD0000
7E07FD0000
BD0BFC0000
BD0FF80000
BD0FF80000
BD1FF40000
3D1FFABA00
052FFFFFD0
003FF06FF0
003FE00FF4
007FD00BF8
00BFC00BFC
00BFC00BF8
00FF800BF8
00FF800FF4
01FF401FF4
02FF102FE0
02FF7AFFD0
03FE3FFF40
07FD2FFD00
0000055000
ENDCHAR
STARTCHAR uni0412
ENCODING 1042
SWIDTH 641 0
DWIDTH 21 0
BBX 20 25 0 -1
BITMAP
0001AFF900
001BFFFF80
00BF401BF0
07F41503F4
0FD2FF02F8
2F82FE01F8
7F03FE02F8
7E07FD03F4
BD07FC0BE0
7D0BFC7F80
3D0FFFFF80
090FFFFFF0
001FF41FF8
002FF00BFC
002FF007FD
003FE003FD
003FD003FD
007FD007FC
00BFC007FC
00BF800BF8
00FF901FF0
01FF6EBFE0
01FF2FFF80
02FF1FFE00
0000015000
ENDCHAR
STARTCHAR uni0413
ENCODING 1043
SWIDTH 400 0
DWIDTH 13 0
BBX 21 24 0 0
BITMAP
0006BFFFFF40
00BFFFFFFE00
07E5FFABF800
1F81FF000000
2F42FF000000
7F03FE000000
BE03FD000000
BE07FD000000
BE0BFC000000
7E0BFC000000
1A0FF8000000
000FF4000000
001FF4000000
002FF0000000
002FE0000000
003FE0000000
007FD0000000
007FD0000000
00BFC0000000
00BF80000000
00FF80000000
01FF40000000
01FF00000000
02FF00000000
ENDCHAR
STARTCHAR uni0414
ENCODING 1044
SWIDTH 669 0
DWIDTH 21 0
BBX 22 25 -1 -1
BITMAP
00006BFE8000
0007FFFFF800
002F9406FE00
01FD0540BF40
03F4BFC03FC0
0BD0BF803FD0
1FC0FF802FE0
2F81FF402FE0
2F41FF402FE0
1F42FF002FE0
0B43FE002FE0
0143FE003FE0
0007FD003FE0
000BFC007FD0
000FFC007FC0
000FF800BFC0
001FF400FF80
0BFFF401FF40
3D3FF003FE00
743FE007FD00
B07FE01FF800
B9FFF9BFF000
7FFF7FFFC000
2FFD0BFE0000
055001540000
ENDCHAR
STARTCHAR uni0415
ENCODING 1045
SWIDTH 459 0
DWIDTH 15 0
BBX 16 25 0 -1
BITMAP
00006FE0
0002FFFC
000FF47D
002FC02E
007F802E
00BF407D
00BF40BC
00BF4010
00BF8000
003FD000
001FF800
007FE400
02FF8000
0BFE0000
1FFC0000
3FF40000
7FF00000
BFF00000
BFF00005
BFF0001C
BFF800B4
7FFEABD0
2FFFFF40
0BFFF800
00554000
ENDCHAR
STARTCHAR uni0416
ENCODING 1046
SWIDTH 777 0
DWIDTH 25 0
BBX 28 25 -1 -1
BITMAP
002F80016406F8
00FFE01FF41FFD
00FFF41FF07FFD
007DB82FF0F8B8
00007C3FE2E000
00003C3FD3D000
00002C7FDB8000
00002DBFCF4000
00002DBFDE0000
00002CFFAD0000
00002DFF6C0000
000BFFFFFFE000
007FFFFFFFF800
00FF82FF07FD00
02FE03FE03FD00
03FD07FD03FD00
07FC07FD07FC00
07F80BFC07F800
0BF80FF80BF800
0FF40FF80FF400
0FF41FF41FF000
1FF02FF02FE000
3FE02FF02FF000
BFD03FE01FF400
55000000055000
ENDCHAR
STARTCHAR uni0417
ENCODING 1047
SWIDTH 525 0
DWIDTH 17 0
BBX 17 25 -1 -1
BITMAP
0000AFE400
0007FFFE00
002E02FF40
007400FF80
009000FF80
008000FF80
000001FF80
000002FF40
000007FE00
00002FF800
000BFF9000
000FFFE000
00002FF800
00000BFE00
000007FF00
000003FF00
000003FF00
064007FF00
2F8007FE00
7F000BFD00
7F001FFC00
3F403FF000
2FE6FF8000
0BFFFD0000
0055400000
ENDCHAR
STARTCHAR uni0418
ENCODING 1048
SWIDTH 705 0
DWIDTH 23 0
BBX 24 24 0 0
BITMAP
0001AF8007FD
001FFF800FFC
00BEFF402FFC
03E1FF003FF8
0FC2FF00BFF8
2F43FE01FFF4
7E03FE02FFF0
BE07FD07FFF0
BD07FC0FBFE0
7D0BFC1F7FD0
2D0FF83E7FD0
050FF4BCBFC0
001FF4F4BFC0
002FF2F0FF80
002FE7D1FF40
003FEB81FF40
007FEF02FF00
007FFE02FE00
00BFFC03FE00
00FFF407FD00
00FFE007FC00
01FFD00BFC00
01FF800FF800
02FF000FF800
ENDCHAR
STARTCHAR uni0419
ENCODING 1049
SWIDTH 705 0
DWIDTH 23 0
BBX 24 31 0 0
BITMAP
000000000050
000000B800A0
000002FD02D0
000002FC1B80
000001FFFE00
0000006FE400
000000000000
0001AF8007FD
001FFF800FFC
00BEFF402FFC
03E1FF003FF8
0FC2FF00BFF8
2F43FE01FFF4
7E03FE02FFF0
BE07FD07FFF0
BD07FC0FBFE0
7D0BFC1F7FD0
2D0FF83E7FD0
050FF4BCBFC0
001FF4F4BFC0
002FF2F0FF80
002FE7D1FF40
003FEB81FF40
007FEF02FF00
007FFE02FE00
00BFFC03FE00
00FFF407FD00
00FFE007FC00
01FFD00BFC00
01FF800FF800
02FF000FF800
ENDCHAR
STARTCHAR uni041A
ENCODING 1050
SWIDTH 635 0
DWIDTH 20 0
BBX 22 25 0 -1
BITMAP
0001AF802F80
001BFF80FFE0
00BEFF43FFE0
02E1FF4BDB90
0FC2FF1F0000
2F43FE3D0000
3F03FEB80000
7E07FDF00000
BD0BFED00000
7D0BFFC00000
7D0FFF800000
1A0FFFFF4000
001FF9BFD000
002FF02FE000
002FF02FE000
003FE02FD000
007FD03FD000
007FD07FC000
00BFC0BF8000
00FF80BF8000
00FF80FF4000
01FF41FF0000
01FF01FF0000
02FF00FF8000
000000154000
ENDCHAR
STARTCHAR uni041B
ENCODING 1051
SWIDTH 549 0
DWIDTH 18 0
BBX 20 28 -1 -4
BITMAP
00000006F9
0000007FFD
000002FBFC
00000BCBFC
00002F0FF8
00007D1FF4
0001F81FF4
0003F02FF0
000BD03FE0
001FC03FE0
002F407FD0
007F007FC0
00FD00BFC0
01FC00FF80
03F800FF80
07F401FF40
0FF002FF00
1FE002FF00
2FD003FE00
3FC007FD00
7F8007FD00
BF400BFC00
BF400BF800
FF000FF800
FF00000000
BF00000000
7F00000000
0500000000
ENDCHAR
STARTCHAR uni041C
ENCODING 1052
SWIDTH 787 0
DWIDTH 25 0
BBX 24 24 2 0
BITMAP
0002BF8003FE
002FFF8007FE
01F9FF800FFD
07D1FF801FFD
1F82FF802FFC
3F03FF803FFC
7E07FF80BFF8
BD0BFF40FFF8
BD1FFF41FFF8
BD2FFF42FFF4
2D3EFF47EFF4
007DFF4BEFF0
00BCFF4FAFF0
00F8FF5F2FF0
01F1FF6E3FE0
02E1FF7D3FE0
03D1FFBC7FD0
07C1FFF47FD0
0F81FFF07FC0
1F41FFE0BFC0
2F01FFD0BFC0
3E01FF80FF80
7D02FF40FF80
BC02FF00FF40
ENDCHAR
STARTCHAR uni041D
ENCODING 1053
SWIDTH 665 0
DWIDTH 21 0
BBX 22 24 0 0
BITMAP
0001AF802FF0
001BFF802FF0
00BFFF403FE0
02F5FF403FD0
0FD2FF007FD0
2F42FE00BFC0
7F03FE00BF80
7E07FD00FF80
BD07FC00FF40
7D0BFC01FF40
3D0FFFFFFF00
190FFFFFFE00
001FF957FE00
002FF007FD00
002FF007FC00
003FE00BFC00
007FD00FF800
007FD00FF800
00BFC01FF400
00BF801FF000
00FF802FF000
01FF403FE000
01FF003FD000
02FF007FD000
ENDCHAR
STARTCHAR uni041E
ENCODING 1054
SWIDTH 665 0
DWIDTH 21 0
BBX 21 24 0 0
BITMAP
00006BFE8000
0007FFFFF400
007F9006FD00
02FD0A90FF00
0BE07F80BF40
1FC1FE007F80
3F43FD007FC0
7E0BF8007FC0
7E1FF4007FC0
7D2FF0007FC0
3D3FE000BF80
05BFD000BF80
00BFC000FF40
00FF8001FF40
01FF8002FF00
01FF4003FE00
01FF4007FD00
02FF400BF800
02FF401FF000
01FF403FD000
00FF80BF8000
00BFEBFE0000
003FFFF40000
0006FE400000
ENDCHAR
STARTCHAR uni041F
ENCODING 1055
SWIDTH 688 0
DWIDTH 22 0
BBX 25 24 0 0
BITMAP
0006BFFA540180
00BFFFFFFFFFC0
07FFFFFFFFFF80
0FE5FF45BFFD00
2F82FF007FD000
3F03FE00BFC000
7E03FE00BFC000
BD07FD00FF8000
BD07FC01FF4000
7D0BFC01FF4000
2D0FF802FF0000
010FF402FE0000
001FF403FE0000
002FF007FD0000
002FE007FC0000
003FE00BFC0000
007FD00FF80000
007FD00FF80000
00BFC01FF40000
00FF802FF00000
00FF802FF00000
01FF403FE00000
01FF003FD00000
02FF007FD00000
ENDCHAR
STARTCHAR uni0420
ENCODING 1056
SWIDTH 573 0
DWIDTH 18 0
BBX 19 24 0 0
BITMAP
0001AFE800
001FFFFF80
01BE401FE0
07E00507F4
1F82FF03F8
3F43FE02FC
7E03FD02FC
BD07FD02FC
BD0BFC03F8
BD0BF807F4
7D0FF80BE0
051FF41FC0
001FF07F40
002FF6F800
003FFF9000
003FD00000
007FD00000
00BFC00000
00BF800000
00FF800000
01FF400000
01FF000000
02FF000000
03FE000000
ENDCHAR
STARTCHAR uni0421
ENCODING 1057
SWIDTH 497 0
DWIDTH 16 0
BBX 17 25 0 -1
BITMAP
00006FE800
0007FFFF00
001FF90F80
007FF00BC0
00FFD00BC0
02FF800FC0
03FF002F80
0BFE000500
0FFD000000
1FFC000000
2FF8000000
2FF8000000
3FF4000000
3FF0000000
7FF0000000
7FF0000000
7FF0000000
7FF0000000
7FF0000140
3FF4000740
3FFC001E00
1FFFAAF800
0BFFFFE000
02FFFE4000
0015500000
ENDCHAR
STARTCHAR uni0422
ENCODING 1058
SWIDTH 481 0
DWIDTH 15 0
BBX 23 24 0 0
BITMAP
0006BFE40004
00BFFFFF906C
07FFFFFFFFF8
0FE42FFFFFF4
2F802FF6BF90
7F003FE00000
BE007FE00000
BD007FD00000
BD00BFC00000
BD00FFC00000
7D00FF800000
1901FF400000
0002FF400000
0002FF000000
0003FE000000
0003FE000000
0007FD000000
000BFC000000
000BFC000000
000FF8000000
001FF4000000
001FF4000000
002FF0000000
003FE0000000
ENDCHAR
STARTCHAR uni0423
ENCODING 1059
SWIDTH 644 0
DWIDTH 21 0
BBX 23 24 0 0
BITMAP
0001AFC00078
001FFFD000F4
00BDBFD001E0
07E07FE002D0
1F807FF007C0
3F003FF40B80
7E002FF40F00
BE001FF81E00
BD000FFC3D00
7D000BFC7800
1E000BFDB400
000007FEF000
000003FFE000
000002FFC000
000001FF8000
000000FF4000
000000FF0000
000000BD0000
0000007C0000
0002E0B80000
0007F9F00000
0007FFD00000
0007FF800000
0001FD000000
ENDCHAR
STARTCHAR uni0424
ENCODING 1060
SWIDTH 786 0
DWIDTH 25 0
BBX 24 26 0 0
BITMAP
0001ABFA5000
001FFFFFD000
00BF907FD000
00FD007FC000
00FC00BFC000
00BC00FF8000
000401FF8000
0001BFFFFE40
002F82FF6FE0
01FD03FE07F8
07F403FE02FD
0FF007FD01FF
2FE00BFC00FF
3FD00BFC00FF
7FC00FF801FF
7FC01FF401FF
7FC01FF402FE
7FD02FF007FD
3FE03FE00FF8
2FF03FE02FE0
0FFD7FD1FF80
02FFFFFFFD00
006BFFFE9000
0000FF800000
0000FF800000
0001FF400000
ENDCHAR
STARTCHAR uni0425
ENCODING 1061
SWIDTH 620 0
DWIDTH 20 0
BBX 20 24 0 0
BITMAP
0001AF801E
001FFFC03D
01BDFFD0B8
07E0BFD0F0
1F80BFE2D0
3F007FE7C0
7E003FFB40
BD003FFE00
BD002FFD00
BD002FF800
3D001FFC00
05000FFC00
00000FFD00
00000BFD00
00001FFE00
00003FFF00
00007BFF00
0000F2FF40
0002D2FF80
000781FF80
000B41FFC0
001E00FFC0
003C00BFD0
007800BFE0
ENDCHAR
STARTCHAR uni0426
ENCODING 1062
SWIDTH 692 0
DWIDTH 22 0
BBX 23 29 0 -5
BITMAP
0001AF802FF0
001BFF802FF0
00BEFF403FE0
07E1FF003FD0
1FC2FF007FD0
3F43FE00BFC0
7E03FE00BF80
BE07FD00FF80
BD07FC01FF40
7D0BFC01FF00
2D0FF802FF00
050FF403FE00
001FF403FE00
002FF007FD00
002FE007FC00
003FE00BFC00
007FD00FF800
007FD00FF400
00BFC01FF400
00BF802FF000
00FF802FE000
01FF903FE000
01FFFEBFD000
02FFFFFFC000
00006FFFD404
000001FFFFF8
0000002FFFF4
00000007FFF0
00000000BF80
ENDCHAR
STARTCHAR uni0427
ENCODING 1063
SWIDTH 695 0
DWIDTH 22 0
BBX 23 24 0 0
BITMAP
0001AF800BFC
001FFF800BFC
00BEFF400FF8
07E1FF001FF4
0FC2FF001FF4
2F43FE002FF0
7E03FD002FE0
BE07FD003FE0
BD07FC007FD0
7D07FC007FC0
2D07FC00BFC0
0107FE42FF80
0002FFFFFF80
00006FE5FF40
00000002FF00
00000002FF00
00000003FE00
00000007FD00
00000007FD00
0000000BFC00
0000000BF800
0000000FF800
0000001FF400
0000001FF400
ENDCHAR
STARTCHAR uni0428
ENCODING 1064
SWIDTH 906 0
DWIDTH 29 0
BBX 30 24 0 0
BITMAP
0001AF807FC02FE0
001FFF80BFC03FE0
00BEFF40FF807FD0
03E1FF00FF807FD0
0FC2FF01FF40BFC0
2F43FE02FF00FF80
7E03FE02FF00FF80
BE07FD03FE01FF40
BD07FC07FD01FF00
7D0BFC07FD02FF00
2D0FF80BFC03FE00
050FF40BF803FD00
001FF40FF807FD00
002FF01FF40BFC00
002FE01FF00BFC00
003FE02FF00FF800
007FD03FE01FF400
007FD03FE01FF400
00BFC07FD02FF000
00FF80BFC03FE000
00FF80BFC03FE000
01FF95FF957FD000
01FFFFFFFFFFC000
02FFFFFFFFFFC000
ENDCHAR
STARTCHAR uni0429
ENCODING 1065
SWIDTH 934 0
DWIDTH 30 0
BBX 31 29 0 -5
BITMAP
0001AF807FC02FE0
001FFF80BFC03FE0
00BEFF40FF807FD0
03E1FF00FF807FD0
0FC2FF01FF40BFC0
2F43FE02FF00FF80
7E03FE02FF00FF80
BE07FD03FE01FF40
BD07FC07FD01FF00
7D0BFC07FD02FF00
2D0FF80BFC03FE00
050FF40BF803FD00
001FF40FF807FD00
002FF01FF40BFC00
002FE01FF40BF800
003FE02FF00FF800
007FD03FE01FF400
007FD03FE01FF400
00BFC07FD02FF000
00FF80BFC02FE000
00FF80BFC03FE000
01FF94FF807FD000
01FFFFFF407FC000
02FFFFFFE9BFC000
00005AFFFFFF9000
0000001BFFFFFFF4
000000006FFFFFF0
0000000001BFFFE0
000000000006BF80
ENDCHAR
STARTCHAR uni042A
ENCODING 1066
SWIDTH 714 0
DWIDTH 23 0
BBX 22 25 0 -1
BITMAP
0005BFF80000
006FFFFC0000
02FFFFF80000
0BD00FF80000
1F401FF40000
3E001FF00000
7E002FF00000
BD003FE00000
BD003FD00000
7E007FD00000
3F00BFEBE800
0640BFFFFF40
0000FF81FFC0
0001FF407FD0
0001FF403FE0
0002FF002FE0
0003FE002FE0
0003FE003FE0
0007FD003FD0
000BFC007FC0
000BFC40FF80
000FF9EBFF00
000FF5FFFD00
001FF4BFF400
000000154000
ENDCHAR
STARTCHAR uni042B
ENCODING 1067
SWIDTH 909 0
DWIDTH 29 0
BBX 30 25 0 -1
BITMAP
0001AF8000002FF0
001FFF8000003FE0
00BEFF4000003FD0
03F1FF4000007FD0
0FC2FF000000BFC0
2F43FE000000BFC0
7E03FE000000FF80
BE07FD000001FF40
BD07FC000001FF40
7D0BFC000002FF00
2D0FF9AA4002FE00
050FFFFFE003FE00
001FF41FF407FD00
002FF00BFC07FC00
002FF007FD0BFC00
003FE003FD0FF800
007FD003FD0FF800
007FD007FD1FF400
00BFC007FC2FF000
00FF800BF82FF000
00FF901FF43FE000
01FF6EBFE03FD000
01FF2FFF807FD000
02FF0FFE00BFC000
0000015000000000
ENDCHAR
STARTCHAR uni042C
ENCODING 1068
SWIDTH 640 0
DWIDTH 20 0
BBX 20 25 0 -1
BITMAP
0001AF8000
001FFF8000
00BEFF4000
03F1FF4000
0FC2FF0000
2F43FE0000
7E03FE0000
BE07FD0000
BD07FC0000
7D0BFC0000
2D0FF9AA40
050FFFFFE0
001FF41FF4
002FF00BFC
002FF007FD
003FE003FD
007FD003FD
007FD007FD
00BFC007FC
00FF800BF8
00FF901FF4
01FF6EBFE0
01FF2FFF80
02FF0FFE00
0000015000
ENDCHAR
STARTCHAR uni042D
ENCODING 1069
SWIDTH 544 0
DWIDTH 17 0
BBX 18 25 -1 -1
BITMAP
0000AFE400
0007FFFF00
002FFFFFC0
00B802FFD0
01D000FFE0
024000BFF0
0100007FF0
0000007FF0
0000007FF0
0000007FF0
000FFFFFF0
001FFFFFE0
000000BFE0
000000FFD0
000000FFC0
000001FF80
000002FF40
1A0007FF00
3F400BFD00
7F000FF800
7E002FF000
7E00BFD000
2F42FF4000
0BFFF80000
0055400000
ENDCHAR
STARTCHAR uni042E
ENCODING 1070
SWIDTH 946 0
DWIDTH 30 0
BBX 30 24 0 0
BITMAP
0001AF8002BFA000
001BFF801FFFFD00
00BEFF403901FF40
02F5FF4051A47FC0
0FD2FF001FE02FD0
2F42FE007F801FE0
7F03FE00FF401FF0
7E07FD02FE001FF0
BD07FC07FD001FF0
7D0BFC0BFC001FF0
3D0FFFFFF8002FE0
190FFFFFF4002FE0
001FF97FF0003FD0
002FF03FE0003FD0
002FF07FE0007FC0
003FE07FD000BF80
007FD07FD001FF40
007FD0BFD002FE00
00BFC0BFD007FC00
00BF807FD00FF400
00FF807FE02FE000
01FF402FF9FF8000
01FF000FFFFD0000
02FF0002BF900000
ENDCHAR
STARTCHAR uni042F
ENCODING 1071
SWIDTH 630 0
DWIDTH 20 0
BBX 23 25 -1 -1
BITMAP
000006BFE900
00007FFFFF80
0002FE401BF0
000FF40562F8
002FC03FE0FC
003F403FE0FC
007F007FD0BC
007F00BFC0F4
007F00BFC040
007F40FF8000
002F81FF4000
000FE5FF4000
001BFFFF0000
007FFFFE0000
01FF93FE0000
02FE03FD0000
03FD07FD0000
07FC0BFC0000
0BF80BF80000
0BF40FF80000
0FF41FF40000
1FF02FF00000
2FE02FF00000
BFD03FE00000
550000000000
ENDCHAR
STARTCHAR uni0430
ENCODING 1072
SWIDTH 526 0
DWIDTH 17 0
BBX 19 16 -1 0
BITMAP
000BF9FF40
007FFFFF00
01FF47FE00
03FD03FE00
0BFC07FD00
1FF407FD00
2FF00BFC00
3FE00BF800
3FE00FF800
7FD01FF400
7FD01FF018
7FD03FF028
7FE0BFF070
3FFFEFFFD0
1FFF4FFF80
06F906F900
ENDCHAR
STARTCHAR uni0431
ENCODING 1073
SWIDTH 430 0
DWIDTH 14 0
BBX 19 24 -1 0
BITMAP
0000000028
0002FFFFF4
000FFFFFF0
000FFFFFE0
000BFFFE40
0007F40000
0001F80000
0000BD0000
00002F0000
000AFF8000
007FFFC000
02FF4BD000
07FD07D000
0FF807D000
2FF407D000
3FF00BD000
7FE00BC000
7FD00F8000
7FD01F4000
7FD03F0000
7FE0BD0000
3FFFF80000
1FFFE00000
06FE400000
ENDCHAR
STARTCHAR uni0432
ENCODING 1074
SWIDTH 449 0
DWIDTH 14 0
BBX 19 24 -1 0
BITMAP
00007F4000
0002FFD000
000BE1E000
001FC0F000
003F80F000
00BF41F000
01FF01E000
02FE02D000
03FC03C000
07FC078000
0BF80B4000
0FF40E0014
1FF0BE05F4
2FF1FFFF80
3FE1FFE400
3FE00BD000
7FD007D000
7FD00BD000
7FD00BC000
7FD01F8000
3FF07F4000
2FFFFD0000
0FFFF40000
02FF800000
ENDCHAR
STARTCHAR uni0433
ENCODING 1075
SWIDTH 375 0
DWIDTH 12 0
BBX 14 16 -1 0
BITMAP
006FE400
02FFFD00
07FFFE00
1E47FF00
2C03FE00
3407FD00
001FF800
00BFE000
07FF4000
1FF80000
3FE00060
BFD001C0
BFE01B40
BFFFFD00
3FFFF400
0BFE4000
ENDCHAR
STARTCHAR uni0434
ENCODING 1076
SWIDTH 507 0
DWIDTH 16 0
BBX 19 24 -1 -8
BITMAP
000BF9FF40
007FFFFF00
01FF47FE00
03FD03FE00
0BFC07FD00
1FF407FD00
2FF00BFC00
3FE00FF800
3FE00FF800
7FD01FF400
7FD02FF024
7FD03FF070
7FE0BFE0E0
3FFFFFD2C0
1FFFBFEF40
06F9BFF800
0006FFC000
002FFF8000
00F9FF4000
02D1FF0000
03C2FE0000
03C7FD0000
01FFF80000
006F900000
ENDCHAR
STARTCHAR uni0435
ENCODING 1077
SWIDTH 384 0
DWIDTH 12 0
BBX 14 16 -1 0
BITMAP
000AF900
007FFF40
01FF4F80
03FD0B80
0BFC0F80
1FF41F40
2FF07E00
3FE2F800
3FFFE000
7FFA4000
7FD00010
7FD000A0
7FE00780
3FFFFE00
1FFFF800
06FE8000
ENDCHAR
STARTCHAR uni0436
ENCODING 1078
SWIDTH 882 0
DWIDTH 28 0
BBX 31 16 -1 0
BITMAP
01BF800FF406FE00
07FFF01FF01FFF40
1E0BF81FF07F8B80
2C03FC2FE0FF0B80
1003FC3FD1FD0A00
0003FC3FD3FC0000
0003FFFFFFF80000
0003FFFFFFF80000
0007F4BF8BF40000
0007F4FF4BF40000
780BF0FF0BF00024
F80FD1FF0BF40060
F42FC2FE0BF401C0
F87F42FE07FD0B40
BEFD03FD02FFF800
2FE403FC006F9000
ENDCHAR
STARTCHAR uni0437
ENCODING 1079
SWIDTH 498 0
DWIDTH 16 0
BBX 17 24 0 -8
BITMAP
001BF90000
00BFFF4000
02FFFFC000
0B90BFD000
0F007FE000
2D007FE000
38007FD000
74007FC000
7000BF8000
A001FF0000
5007FD0080
00FFE001C0
01FFD00380
001FF40B00
000BFC2D00
0007FEF400
0007FE4000
007FFD0000
02EBFD0000
0B4BFC0000
0E0FF80000
0E1FF00000
0BFFD00000
02FE000000
ENDCHAR
STARTCHAR uni0438
ENCODING 1080
SWIDTH 505 0
DWIDTH 16 0
BBX 19 16 -1 0
BITMAP
03FE03FE00
03FD07FD00
07FD07FC00
0BFC0BFC00
0BF80FF800
0FF80FF800
1FF41FF400
1FF42FF000
2FF02FF000
3FE03FE000
3FE07FD024
7FD0BFD070
7FE2FFE1D0
3FFFBFFF80
2FFE2FFE00
0BE40BE400
ENDCHAR
STARTCHAR uni0439
ENCODING 1081
SWIDTH 505 0
DWIDTH 16 0
BBX 19 23 -1 0
BITMAP
0000000500
001F800D00
003FC02C00
003F81B400
002FFFD000
0006FE4000
0000000000
03FE03FE00
03FD07FD00
07FD07FC00
0BFC0BFC00
0BF80FF800
0FF80FF800
1FF41FF400
1FF42FF000
2FF02FF000
3FE03FE000
3FE07FD024
7FD0BFD070
7FE2FFE1D0
3FFFBFFF80
2FFE2FFE00
0BE40BE400
ENDCHAR
STARTCHAR uni043A
ENCODING 1082
SWIDTH 501 0
DWIDTH 16 0
BBX 18 16 -1 0
BITMAP
03FE007E00
03FD02FF40
07FD0FBF40
0BFC3D2E00
0BFCB40000
0FFAE00000
1FFFFF8000
1FFFFFD000
2FF87FD000
2FE03FD000
3FE03FD020
7FD07FC0B0
7FC07FD1D0
BFC03FFF80
FF802FFF00
FF400BF800
ENDCHAR
STARTCHAR uni043B
ENCODING 1083
SWIDTH 558 0
DWIDTH 18 0
BBX 21 16 -2 0
BITMAP
000002FFF400
00000FFFF000
00002E1FE000
0000382FE000
0000743FD000
0000B03FD000
0000E07FC000
0001D0BF8000
0001D0BF8000
0002C0FF4000
1E0381FF01C0
3F4381FF0280
7F4B42FF4B00
3D0F01FFFE00
2FBD00FFF800
07F4002F9000
ENDCHAR
STARTCHAR uni043C
ENCODING 1084
SWIDTH 827 0
DWIDTH 26 0
BBX 30 16 -2 0
BITMAP
000002FC001FFC00
00000BFD003FF800
00002FFD007FF400
00003AFD00FFF400
0000B6FD01FFF000
0000B2FD03EFE000
0000E2FD07AFE000
0001D1FD0F7FD000
0001D1FE1E7FC000
0002C1FE3C7FC000
1E0381FE78BF80A0
3F4381FEF0BF81D0
7F4740FFE0FF8780
3D0F00FFC0BFFF00
2FBD00FF807FFD00
07F400FF001BE400
ENDCHAR
STARTCHAR uni043D
ENCODING 1085
SWIDTH 507 0
DWIDTH 16 0
BBX 19 16 -1 0
BITMAP
03FE02FE00
03FD03FD00
07FD03FD00
0BFC07FC00
0BFC07F800
0FF80BF800
1FF80FF400
1FFFFFF000
2FFFFFF000
3FF02FE000
3FE02FD014
7FD03FD074
7FD03FD0E0
BFC03FFFC0
FF802FFF40
FF800BF800
ENDCHAR
STARTCHAR uni043E
ENCODING 1086
SWIDTH 439 0
DWIDTH 14 0
BBX 19 16 -1 0
BITMAP
0006FD0000
007FFF8000
01FF4BC000
03FD07D008
0BFC0FD1B4
1FF40FFF90
2FF00BE400
3FE007C000
3FE00BC000
7FD00F8000
7FD01F4000
7FD03F0000
7FE0BD0000
3FFFF80000
1FFFE00000
06FE400000
ENDCHAR
STARTCHAR uni043F
ENCODING 1087
SWIDTH 505 0
DWIDTH 16 0
BBX 19 16 -1 0
BITMAP
03FE6F9000
03FEFFF400
07FFFFF800
0BFE0FF800
0BFC0BF800
0FF80FF800
1FF40FF400
1FF41FF000
2FF02FF000
3FE02FE000
3FE03FD024
7FD03FD070
7FC07FD1E0
BFC03FFFC0
FF802FFF40
FF400BF800
ENDCHAR
STARTCHAR uni0440
ENCODING 1088
SWIDTH 468 0
DWIDTH 15 0
BBX 17 25 -3 -8
BITMAP
002FF00000
003FE6F900
003FFFFF40
007FE0BF80
00BFC07FC0
00BF807FC0
00FF807FC0
01FF407FC0
01FF00BFC0
02FF00BF80
03FE00FF80
03FE01FF40
07FD03FE00
07FD0BFD00
0BFFBFF800
0FFFFFE000
0FFAFE4000
1FF4000000
2FF0000000
2FE0000000
3FE0000000
7FD0000000
7FC0000000
BF80000000
5000000000
ENDCHAR
STARTCHAR uni0441
ENCODING 1089
SWIDTH 384 0
DWIDTH 12 0
BBX 14 16 -1 0
BITMAP
000AFD00
007FFF40
01FF4F80
03FD0B80
0BFC0F40
1FF40000
2FF00000
3FE00000
3FE00000
7FD00000
7FD00060
7FD001D0
7FE00B80
3FFFFE00
1FFFF400
06FE4000
ENDCHAR
STARTCHAR uni0442
ENCODING 1090
SWIDTH 752 0
DWIDTH 24 0
BBX 27 16 -1 0
BITMAP
03FE6F906F9000
03FEFFF5FFF000
07FFFFFBFFF400
0BFE0FFE0FF800
0BFC0FFC0FF800
0FF80FF80FF400
1FF41FF41FF400
1FF41FF01FF000
2FF02FF02FE000
3FE03FE03FD000
3FE03FD03FD024
7FD07FD07FC070
7FC0BFC07FD1D0
BFC0BF803FFFC0
FF80FF802FFF00
FF41FF400BF800
ENDCHAR
STARTCHAR uni0443
ENCODING 1091
SWIDTH 486 0
DWIDTH 16 0
BBX 18 24 -1 -8
BITMAP
03FE03FE00
03FD07FD00
07FD07FC00
0BFC0BFC00
0BF80FF800
0FF80FF400
1FF41FF400
1FF42FF000
2FF02FF000
3FE03FE000
3FE07FD0A0
7FD0BFD0D0
7FE2FFC2C0
3FFFFF8740
2FFEFFAD00
0BE5FFE400
000BFF4000
00BFFF0000
02E3FE0000
0783FD0000
0B4BFC0000
0BAFF80000
07FFE00000
01BE400000
ENDCHAR
STARTCHAR uni0444
ENCODING 1092
SWIDTH 738 0
DWIDTH 24 0
BBX 24 30 -1 -8
BITMAP
0000002BD000
0000007FC000
0000007F8000
000000BF8000
000000FF4000
000000FF0000
000BF9FF6FD0
007FFFFFFFF8
01FF47FF0BFC
07FD03FD03FD
0BF807FC03FD
1FF407F803FD
2FF00BF807FD
3FE00FF407FC
7FD00FF00BFC
7FD01FF00FF8
7FD02FE01FF4
7FD03FD03FF0
7FE1BFD0BFE0
3FFFFFFFFF80
1FFFBFFFFE00
06F9BFAFE400
0000BF400000
0000FF400000
0001FF000000
0001FE000000
0002FE000000
0003FD000000
0007F8000000
000540000000
ENDCHAR
STARTCHAR uni0445
ENCODING 1093
SWIDTH 522 0
DWIDTH 17 0
BBX 18 17 0 0
BITMAP
0000007D00
002FD0FE00
00FFF4BF00
02FFF80F00
074BFC1E00
0E07FC7C00
1C03FDF400
3803FFD000
7403FF4000
B002FE0000
A007FE0000
400FFF0060
003DFF00A0
00F4FF82C0
02D0BFFF40
0B403FFD00
2E001BE000
ENDCHAR
STARTCHAR uni0446
ENCODING 1094
SWIDTH 535 0
DWIDTH 17 0
BBX 16 24 -1 -8
BITMAP
03FE03FE
03FD07FD
07FD07FC
0BFC0BFC
0BF80FF8
0FF80FF8
1FF41FF4
1FF42FF0
2FF02FF0
3FE03FE0
3FE07FD0
7FD0BFD0
7FE2FFE0
3FFFBFFF
2FFE2FFF
0BE40BEB
0000000E
0000002D
000BFFFC
002FFFF4
007FFFE0
00BFFE40
00D00000
01400000
ENDCHAR
STARTCHAR uni0447
ENCODING 1095
SWIDTH 505 0
DWIDTH 16 0
BBX 17 16 1 0
BITMAP
3FE03FE000
3FD07FD000
7FD07FC000
BFC0BFC000
BF80FF8000
FF80FF8000
FF42FF4000
FF87FF0000
FFFFFF0000
BFFBFE0000
2F97FD0340
0007FD0700
0007FE1D00
0003FFF800
0002FFE000
0000BE4000
ENDCHAR
STARTCHAR uni0448
ENCODING 1096
SWIDTH 752 0
DWIDTH 24 0
BBX 27 16 -1 0
BITMAP
03FE03FE03FD00
03FD07FD07FD00
07FD07FC0BFC00
0BFC0BFC0BFC00
0BF80FF80FF800
0FF80FF81FF400
1FF41FF41FF400
1FF42FF02FF000
2FF02FF03FE000
3FE03FE03FE000
3FE07FD07FD034
7FD0BFD0BFD0B0
7FE2FFE2FFD1D0
3FFFBFFFBFFF80
2FFE2FFE2FFE00
0BE40BE40BE400
ENDCHAR
STARTCHAR uni0449
ENCODING 1097
SWIDTH 782 0
DWIDTH 25 0
BBX 24 24 -1 -8
BITMAP
03FE03FE03FD
03FD07FD07FD
07FD07FC0BFC
0BFC0BFC0BFC
0BF80FF80FF8
0FF80FF81FF4
1FF41FF41FF4
1FF42FF02FF0
2FF02FF03FE0
3FE03FE03FE0
3FE07FD07FD0
7FD0BFD0BFD0
7FE2FFE2FFD0
3FFFBFFFBFFF
2FFE2FFE2FFF
0BE40BE40BEA
00000000000E
00000000002D
0000001BFFFC
0000007FFFF4
000000FFFFE0
000001FFFE40
000002D00000
000002800000
ENDCHAR
STARTCHAR uni044A
ENCODING 1098
SWIDTH 448 0
DWIDTH 14 0
BBX 13 16 0 0
BITMAP
1BFFC000
7FFF4000
BC2E0000
FDBC0000
B9F80000
07FAF900
0FFFFF40
2FE0BFC0
7FC07FC0
BF807FC0
FF40BFC0
FF40FF40
FF82FF00
FFFFFC00
7FFFE000
1BFA4000
ENDCHAR
STARTCHAR uni044B
ENCODING 1099
SWIDTH 655 0
DWIDTH 21 0
BBX 22 16 0 0
BITMAP
0FF400007D00
1FF40007FC00
1FF0006FFC00
2FE006FFF800
2FE6AF8FF400
3FDBFC0FF400
7FD7FD1FF000
7FC03D2FF000
BF803E2FE000
FF807D3FD000
FF40BD3FC070
FF00FC7FC0A0
FF42F47FD1D0
FFEFE07FFF80
7FFF802FFE00
1BF9000BF400
ENDCHAR
STARTCHAR uni044C
ENCODING 1100
SWIDTH 448 0
DWIDTH 14 0
BBX 13 16 0 0
BITMAP
0FF80000
0FF40000
1FF40000
2FF00000
2FF15400
3FFFFE00
7FFFFF80
7FD0BFC0
BFC07FC0
BF807FC0
FF807F80
FF40FF40
FF42FE00
FFEFFC00
7FFFE000
1BFE4000
ENDCHAR
STARTCHAR uni044D
ENCODING 1101
SWIDTH 413 0
DWIDTH 13 0
BBX 14 16 -2 0
BITMAP
001BF900
00BFFF80
02FFFFD0
07807FE0
05003FF0
00002FF0
002FFFE0
003FFFE0
00007FD0
0000BFC0
3D00FF80
BC01FF00
BC03FD00
BD0BF400
3FBFD000
0BFA0000
ENDCHAR
STARTCHAR uni044E
ENCODING 1102
SWIDTH 675 0
DWIDTH 22 0
BBX 27 16 -1 0
BITMAP
03FE001BF80000
03FD007FFF0000
07FD02FE0F8000
0BFC07FC0B8014
0BFC0FF41FC0B4
0FF81FF02FEB80
1FF83FE01FE400
1FFFFFD00F8000
2FFFFFC00F8000
3FF0BFC01F4000
3FE0FFC02F0000
7FD0FFC07E0000
7FD0BFD1FC0000
BFC07FFFF40000
FF802FFFD00000
FF8006FE000000
ENDCHAR
STARTCHAR uni044F
ENCODING 1103
SWIDTH 527 0
DWIDTH 17 0
BBX 20 16 -2 0
BITMAP
0001AFFFD0
000BFFFFC0
002FE07F80
007F80BF80
00BF40FF40
00FF00FF40
00BF41FF00
00BF92FE00
003FFFFE00
0007FBFD00
0903C3FC01
3F4787FC0A
7F4B47FD1D
3D1F07FFF8
2FFD03FFE0
0BF400BE40
ENDCHAR
STARTCHAR uni0450
ENCODING 1104
SWIDTH 384 0
DWIDTH 12 0
BBX 14 24 -1 0
BITMAP
000FD000
0007D000
0003E000
0002E000
0001F000
0000B000
00000000
00000000
000AF900
007FFF40
01FF4F80
03FD0B80
0BFC0F80
1FF41F40
2FF07E00
3FE2F800
3FFFE000
7FFA4000
7FD00010
7FD000A0
7FE00780
3FFFFE00
1FFFF800
06FE8000
ENDCHAR
STARTCHAR uni0451
ENCODING 1105
SWIDTH 384 0
DWIDTH 12 0
BBX 15 22 -1 0
BITMAP
001E42E0
003F87F4
003F87F4
001F42E0
00000000
00000000
000AF900
007FFF40
01FF4F80
03FD0B80
0BFC0F80
1FF41F40
2FF07E00
3FE2F800
3FFFE000
7FFA4000
7FD00010
7FD000A0
7FE00780
3FFFFE00
1FFFF800
06FE8000
ENDCHAR
STARTCHAR uni0452
ENCODING 1106
SWIDTH 491 0
DWIDTH 16 0
BBX 18 30 -1 -8
BITMAP
0005800000
00BFC00000
00FF800000
00FF400000
01FF400000
1FFFFF0000
1FFFFE0000
03FE000000
07FD6A4000
07FEFFE000
0BFFFFF000
0FFD2FF400
0FF81FF400
1FF41FF000
2FF02FF000
2FE02FE000
3FE03FD060
7FD07FD0A0
7FC07FC1C0
BFC0BF8740
FF80FFAE00
FF40FFE400
0007FF0000
007FFE0000
02F6FE0000
03C3FD0000
0747FC0000
078BF80000
03FFE00000
00BE400000
ENDCHAR
STARTCHAR uni0453
ENCODING 1107
SWIDTH 375 0
DWIDTH 12 0
BBX 14 24 -1 0
BITMAP
00000BE0
00000FC0
00002F40
00003D00
0000B800
0000F000
00000000
00000000
006FE400
02FFFD00
07FFFE00
1E47FF00
2C03FE00
3407FD00
001FF800
00BFE000
07FF4000
1FF80000
3FE00060
BFD001C0
BFE01B40
BFFFFD00
3FFFF400
0BFE4000
ENDCHAR
STARTCHAR uni0454
ENCODING 1108
SWIDTH 384 0
DWIDTH 12 0
BBX 14 16 -1 0
BITMAP
000AFD00
007FFF40
01FF4F80
03FD0B80
0BF80A00
1FF40000
2FFFE000
3FFFE000
3FE00000
7FD00000
7FD00070
7FD001D0
7FE00B80
3FFFFE00
1FFFF400
06FE4000
ENDCHAR
STARTCHAR uni0455
ENCODING 1109
SWIDTH 382 0
DWIDTH 12 0
BBX 14 17 -1 0
BITMAP
001AB400
002FF400
003FF400
007FF800
00AFF800
01DFF800
02CFF800
034FF800
0B0FFC00
0D0BFC00
3E0BFC00
BE0BFC70
E40BFEC0
F00FFE00
B42FF400
3FFFD000
0BF90000
ENDCHAR
STARTCHAR uni0456
ENCODING 1110
SWIDTH 267 0
DWIDTH 9 0
BBX 11 22 -1 0
BITMAP
006E00
00FF80
00FFC0
00FF80
006E00
000000
03FE00
03FD00
07FD00
0BFC00
0BF800
0FF800
1FF400
1FF400
2FF000
3FE000
3FE028
7FD034
7FE1E0
3FFFD0
2FFF40
0BE400
ENDCHAR
STARTCHAR uni0457
ENCODING 1111
SWIDTH 267 0
DWIDTH 9 0
BBX 11 22 -1 0
BITMAP
0B80B4
1FD2FC
1FD2FC
0B80B4
000000
000000
03FE00
03FD00
07FD00
0BFC00
0BF800
0FF800
1FF400
1FF400
2FF000
3FE000
3FE028
7FD034
7FE1E0
3FFFD0
2FFF40
0BE400
ENDCHAR
STARTCHAR uni0458
ENCODING 1112
SWIDTH 240 0
DWIDTH 8 0
BBX 16 30 -7 -8
BITMAP
000007E0
00001FF4
00001FF8
00001FF4
000007E0
00000000
00003FE0
00003FE0
00007FD0
0000BFC0
0000BFC0
0000FF80
0001FF40
0001FF40
0002FF00
0002FF00
0003FE05
0007FD0A
0007FD0D
000BFC28
000FF8A0
000FFF40
006FF800
07FFF000
1FAFF000
3D3FE000
743FD000
74BF8000
3FFF0000
0BF80000
ENDCHAR
STARTCHAR uni0459
ENCODING 1113
SWIDTH 745 0
DWIDTH 24 0
BBX 25 16 -2 0
BITMAP
000002FFF40000
00000FFFF00000
00002E2FE00000
00007C2FE00000
0000B83FD6A400
0000F47FFFFD00
0001F07FFBFF00
0001E0BF80FF40
0002D0FF40BF80
0403D0FF40BF40
2F03C1FF00FF40
3F4781FF02FE00
7E0B41FF07FD00
3D1F00FFFFF400
2FFD00BFFFD000
0BE4001BF90000
ENDCHAR
STARTCHAR uni045A
ENCODING 1114
SWIDTH 694 0
DWIDTH 22 0
BBX 22 16 -1 0
BITMAP
03FE02FE0000
03FD03FD0000
07FD03FD0000
0BFC07FC0000
0BFC07F80000
0FF80BFAFE40
1FF80FFFFFD0
1FFFFFFEBFE0
2FFFFFF02FF0
3FF02FE01FF0
3FE02FE01FE0
7FD03FD02FD0
7FD03FD07F80
BFC03FD1FF00
FF801FFFF800
FF8006FF9000
ENDCHAR
STARTCHAR uni045B
ENCODING 1115
SWIDTH 505 0
DWIDTH 16 0
BBX 19 23 -1 0
BITMAP
0001400000
00BFC00000
00FF800000
00FF800000
01FF400000
1FFFFF0000
1FFFFF0000
03FE000000
03FD000000
07FD6A4000
0BFEFFE000
0BFFFFF000
0FFD2FF400
1FF81FF400
1FF41FF000
2FF02FF000
3FE02FE000
3FE03FD024
7FD03FD070
7FC07FD1E0
BFC03FFFC0
FF802FFF40
FF400BF800
ENDCHAR
STARTCHAR uni045C
ENCODING 1116
SWIDTH 501 0
DWIDTH 16 0
BBX 18 24 -1 0
BITMAP
000001FC00
000002F400
000007E000
00000B8000
00000F0000
00002D0000
0000000000
0000000000
03FE007E00
03FD02FF40
07FD0FBF40
0BFC3D2E00
0BFCB40000
0FFAE00000
1FFFFF8000
1FFFFFD000
2FF87FD000
2FE03FD000
3FE03FD020
7FD07FC0B0
7FC07FD1D0
BFC03FFF80
FF802FFF00
FF400BF800
ENDCHAR
STARTCHAR uni045D
ENCODING 1117
SWIDTH 505 0
DWIDTH 16 0
BBX 19 24 -1 0
BITMAP
0007F00000
0002F00000
0001F40000
0000F40000
0000B80000
0000380000
0000000000
0000000000
03FE03FE00
03FD07FD00
07FD07FC00
0BFC0BFC00
0BF80FF800
0FF80FF800
1FF41FF400
1FF42FF000
2FF02FF000
3FE03FE000
3FE07FD024
7FD0BFD070
7FE2FFE1D0
3FFFBFFF80
2FFE2FFE00
0BE40BE400
ENDCHAR
STARTCHAR uni045E
ENCODING 1118
SWIDTH 486 0
DWIDTH 16 0
BBX 18 31 -1 -8
BITMAP
0000000500
001F800D00
003FC02C00
003F81F400
002FFFD000
0006FE0000
0000000000
03FE03FE00
03FD07FD00
07FD07FC00
0BFC0BFC00
0BF80FF800
0FF80FF400
1FF41FF400
1FF42FF000
2FF02FF000
3FE03FE000
3FE07FD0A0
7FD0BFD0D0
7FE2FFC2C0
3FFFFF8740
2FFEFFAD00
0BE5FFE400
000BFF4000
00BFFF0000
02E3FE0000
0783FD0000
0B4BFC0000
0BAFF80000
07FFE00000
01BE400000
ENDCHAR
STARTCHAR uni045F
ENCODING 1119
SWIDTH 505 0
DWIDTH 16 0
BBX 19 24 -1 -8
BITMAP
03FE03FE00
03FD07FD00
07FD07FC00
0BFC0BFC00
0BF80FF800
0FF80FF800
1FF41FF400
1FF42FF000
2FF02FF000
3FE03FE000
3FE07FD024
7FD0BFD070
7FE2FFE1D0
3FFFBFFF80
2FFE2FFE00
0BE40BE400
0001800000
0007C00000
000FE00000
000FF00000
000FF40000
0007F00000
0002C00000
0001000000
ENDCHAR
STARTCHAR uni0462
ENCODING 1122
SWIDTH 659 0
DWIDTH 21 0
BBX 20 25 0 -1
BITMAP
0000FF4000
0001FF4000
0002FF0000
0002FE0000
01ABFF9006
0BFFFFFFFE
3FFFFFFFFD
7F4BFEBFE4
BD0BF80000
BD0FF80000
BD1FFABA00
3D1FFFFFD0
042FF06FF0
003FE00FF8
003FD00BF8
007FD00BFC
00BFC00BFC
00BF800BF8
00FF800FF8
01FF401FF4
01FF502FE0
02FF3ABFD0
03FE3FFF40
03FE1FFD00
0000055000
ENDCHAR
STARTCHAR uni0463
ENCODING 1123
SWIDTH 692 0
DWIDTH 22 0
BBX 22 16 -1 0
BITMAP
03FE6F900000
03FEFFF00000
07FFFFF80000
0BFE0FF80000
0BFC0BF80000
0FF80FFAFE00
1FF40FFFFFC0
1FF41FF42FE0
2FF02FE01FE0
3FE02FE01FE0
3FE03FD02FE0
7FD03FD07FD0
7FC03FD0FF80
BFC03FFFFE00
FF801FFFF800
FF4006FE9000
ENDCHAR
STARTCHAR uni046A
ENCODING 1130
SWIDTH 834 0
DWIDTH 27 0
BBX 25 25 1 -1
BITMAP
00006FFFFFFF40
000BFFFFFFFE00
007FBFF0003C00
02F87FF400B400
0BE03FF801E000
1F802FFC03C000
3F401FFD0B4000
3F000FFE1E0000
7E000BFF3C0000
3E0007FFB40000
2E0003FFF00000
0606FFFFFFE400
002FFAFFABFD00
00BF81FF42FE00
00FF42FF01FE00
01FE02FF02FE00
02FD03FE02FE00
03FD07FD03FD00
07FC07FD07FC00
07FC0BFC0BF800
0BF80FF80FF400
0FF80FF80FF400
1FF41FF40FF400
7FE01FF00FF800
15400000015400
ENDCHAR
STARTCHAR uni046B
ENCODING 1131
SWIDTH 750 0
DWIDTH 24 0
BBX 20 17 1 -1
BITMAP
001BFFFFFC
01FBFF40B4
0BD1FF41E0
1F81FF83C0
2F40FFCB40
2F40BFEE00
0B407FFC00
006FFFFFE4
01FFAFFBFE
03FD2FD1FF
07F83FD1FE
0BF47FC2FE
0BF47F82FD
0FF0BF83FC
1FF0FF47FC
7FD0FF07FD
1500000154
ENDCHAR
STARTCHAR uni0472
ENCODING 1138
SWIDTH 665 0
DWIDTH 21 0
BBX 21 24 0 0
BITMAP
00006BFE8000
0007FFFFF400
007F9006FD00
02FD0A90FF00
0BE07F80BF40
1FC1FF007F80
3F43FD007FC0
7F0BF8007FC0
7E1FF4007FC0
7D2FF0007FC0
3D3FE0007F80
19BFDB91FF80
00BFEBFFFF40
00FF80B9FF40
01FF8002FF00
01FF4003FE00
01FF4007FD00
02FF400FF800
02FF401FF000
01FF407FD000
00FFC1FF8000
00BFFFFE0000
003FFFF40000
0006FE400000
ENDCHAR
STARTCHAR uni0473
ENCODING 1139
SWIDTH 439 0
DWIDTH 14 0
BBX 19 16 -1 0
BITMAP
0006FD0000
007FFF8000
01FF4BC000
03FD07D008
0BFC0FD1B4
1FF80FFF90
2FF00BE400
3FF78BC000
3FFFFFC000
7FE1EF8000
7FD01F4000
7FD03F0000
7FE0BD0000
3FFFF80000
1FFFE00000
06FE400000
ENDCHAR
STARTCHAR uni0474
ENCODING 1140
SWIDTH 668 0
DWIDTH 21 0
BBX 24 24 0 0
BITMAP
0001AF8001BD
001FFF8007F8
01BDFF801FE0
07E0FF802FC0
1F80FF807F40
3F00FF80BF00
7E00FF80FD00
BD00FF81FC00
BD00FF82F800
BD00FFC2F000
3D00FFC3E000
0500FFC7D000
0000BFC7C000
0000BFCB8000
0000BFCF4000
0000BFCE0000
0000BFDD0000
0000BFEC0000
0000BFE80000
0000BFF40000
0000BFF00000
0000BFE00000
0000BFE00000
0000BFD00000
ENDCHAR
STARTCHAR uni0475
ENCODING 1141
SWIDTH 414 0
DWIDTH 13 0
BBX 14 16 -1 0
BITMAP
03FE0B80
03FD1FE0
07FD0FE0
0BFC00E0
0BF801E0
0FF801D0
1FF402D0
1FF403C0
2FF00780
3FE00F40
3FE01F00
7FD03D00
7FE1F800
3FFFF000
2FFF8000
07F90000
ENDCHAR
STARTCHAR uni0490
ENCODING 1168
SWIDTH 431 0
DWIDTH 14 0
BBX 21 28 0 0
BITMAP
000000000100
000000000340
000000000780
000000001F80
0006BFFFFF40
00BFFFFFFE00
07D2FF6FF800
1F42FE000000
2F03FE000000
7E07FD000000
7D07FC000000
BD0BFC000000
BD0FF8000000
7D0FF4000000
191FF4000000
001FF0000000
002FF0000000
003FE0000000
003FD0000000
007FD0000000
00BFC0000000
00BFC0000000
00FF80000000
00FF40000000
01FF40000000
02FF00000000
02FE00000000
03FE00000000
ENDCHAR
STARTCHAR uni0491
ENCODING 1169
SWIDTH 342 0
DWIDTH 11 0
BBX 13 19 -1 0
BITMAP
00000540
00000FC0
00000BC0
03FFFF80
03FFF900
07FD0000
0BFC0000
0BF80000
0FF80000
1FF40000
1FF00000
2FF00000
3FE00000
3FE00000
7FD00000
7FC00000
BFC00000
FF800000
FF400000
ENDCHAR
STARTCHAR uni0492
ENCODING 1170
SWIDTH 400 0
DWIDTH 13 0
BBX 21 24 0 0
BITMAP
0006BFFFFF40
007FFFFFFE00
03E5FFABF800
0F81FF000000
2F42FF000000
3F03FE000000
7F03FE000000
BE07FD000000
BE07FC000000
7E0BFC000000
2E0FF8000000
010FF8000000
001FF4000000
03FFFFD00000
06BFFA800000
003FE0000000
003FD0000000
007FD0000000
00BFC0000000
00BF80000000
00FF80000000
01FF40000000
01FF40000000
02FF00000000
ENDCHAR
STARTCHAR uni0493
ENCODING 1171
SWIDTH 375 0
DWIDTH 12 0
BBX 14 16 -1 0
BITMAP
006FE400
02FFFD00
0BFFFE00
1E03FF00
2C03FE00
3407FD00
001FF800
7FFFFF40
BFFFFF40
1FF90000
3FE00060
BFD001D0
BFE01B40
BFFFFD00
3FFFF400
0BFE4000
ENDCHAR
STARTCHAR uni0494
ENCODING 1172
SWIDTH 665 0
DWIDTH 21 0
BBX 21 25 0 -1
BITMAP
0006BFFFFF40
007FFFFFFE00
02E5FFABF800
0FC1FF000000
2F42FF000000
3F03FE000000
7F03FE000000
BE07FD000000
BE0BFD000000
BE0BFC000000
7E0FFEFF8000
1A0FFFFFF400
001FF80BFC00
002FF403FD00
002FF002FE00
003FE002FE00
007FE002FE00
007FD002FE00
00BFC003FD00
00BFC007FC00
00FF800BF800
01FF542FF000
01FF7FFFD000
02FF2FFF4000
00000BF80000
ENDCHAR
STARTCHAR uni0495
ENCODING 1173
SWIDTH 486 0
DWIDTH 16 0
BBX 18 24 -1 -8
BITMAP
02FFFFFC00
03FFFFF800
07FDAFE000
0BFC000000
0BF8000000
0FF8000000
1FF5BE4000
1FFBFFC000
2FFEFFD000
2FF07FE000
3FE03FD050
7FD03FD0E0
7FD07FC1C0
BFC0BF8780
FF80FFAE00
FF80FFF400
0006FF4000
006FFE0000
01F6FD0000
0383FD0000
0747FC0000
0B4BF40000
07FFE00000
01BE400000
ENDCHAR
STARTCHAR uni0496
ENCODING 1174
SWIDTH 777 0
DWIDTH 25 0
BBX 28 34 -1 -10
BITMAP
002F80016406F8
00FFE01FF41FFD
00FFF41FF07FFD
007DB82FF0F8B8
00007C3FE2E000
00003C3FD3D000
00002C7FDB8000
00002DBFCF4000
00002DBFDE0000
00002CFFAD0000
00002DFF6C0000
000BFFFFFFE000
007FFFFFFFF800
00FF82FF07FD00
02FE03FE03FD00
03FD07FD03FD00
07FC07FD07FC00
07F80BFC07F800
0BF80FF80BF800
0FF40FF80FF400
0FF41FF41FF000
1FF02FF02FE000
3FE02FF02FF000
BFD03FE01FF400
550000000B9000
000000002F0000
000000003F4000
000000003FD000
000000002FF000
000000001FF400
000000000BF400
0000000003F000
0000000002D000
00000000024000
ENDCHAR
STARTCHAR uni0497
ENCODING 1175
SWIDTH 882 0
DWIDTH 28 0
BBX 31 24 -1 -8
BITMAP
01BF800FF406FE00
07FFF01FF01FFF40
1E0BF81FF07F8B80
2C03FC2FE0FF0B80
1003FC3FD1FD0A00
0003FC3FD3FC0000
0003FFFFFFF80000
0003FFFFFFF40000
0007F4BF8BF40000
0007F4FF4BF40000
780BF0FF0BF00034
F80FD1FF0BF400A0
F42FC2FE0BF80280
F83F42FE07FE6F00
BEFD03FD02FFF800
2FE403FC007F9000
00000000000E0000
00000000002F0000
00000000007F8000
00000000007FC000
00000000002FC000
00000000001F4000
00000000000E0000
0000000000040000
ENDCHAR
STARTCHAR uni0498
ENCODING 1176
SWIDTH 525 0
DWIDTH 17 0
BBX 17 34 -1 -10
BITMAP
0000AFE400
0007FFFE00
002D02FF40
007400FF80
009000FF80
008000FF80
000001FF80
000002FF40
000007FE00
00002FF800
000BFF9000
000FFFD000
00006FF800
00000BFE00
000007FF00
000003FF00
000003FF00
064007FF00
2F8007FE00
3F000BFD00
7F001FF800
3F403FF400
2FD6FFC000
0BFFFD0000
005F800000
002F400000
002F800000
002FE00000
002FF40000
000FF80000
0007F40000
0002F00000
0002D00000
0002400000
ENDCHAR
STARTCHAR uni0499
ENCODING 1177
SWIDTH 498 0
DWIDTH 16 0
BBX 17 32 0 -16
BITMAP
001BF90000
00BFFF4000
02FFFFC000
0B90BFD000
0F007FE000
2D007FE000
38007FD000
74007FC000
7000BF8000
A001FF0000
5007FD0080
00FFE001C0
01FFD00340
001FF40B00
000BFC6D00
0007FFE000
000BFE0000
00BFFD0000
07D7FD0000
0B0BFC0000
0E0FF80000
0F6FF00000
0BFFD00000
02FE400000
00A0000000
02E0000000
03F8000000
07FC000000
03FC000000
01F8000000
00E0000000
0040000000
ENDCHAR
STARTCHAR uni049A
ENCODING 1178
SWIDTH 635 0
DWIDTH 20 0
BBX 22 34 0 -10
BITMAP
0001AF802F80
001BFF80FFE0
00BEFF43FFE0
02E1FF4BDB90
0FC2FF1F0000
2F43FE3D0000
3F03FEB80000
7E07FDF00000
BD0BFED00000
7D0BFFC00000
7D0FFF800000
1A0FFFFF4000
001FF9BFD000
002FF02FE000
002FF02FE000
003FE02FD000
007FD03FD000
007FD07FC000
00BFC0BF8000
00FF80BF8000
00FF80FF4000
01FF41FF0000
01FF01FF0000
02FF00FF8000
0000007D4000
000000FC0000
000001FE0000
000000FF4000
000000BFC000
0000003FC000
0000002FC000
0000000F8000
0000000E0000
000000140000
ENDCHAR
STARTCHAR uni049B
ENCODING 1179
SWIDTH 501 0
DWIDTH 16 0
BBX 19 24 -1 -8
BITMAP
03FE007E00
03FD02FF40
07FD0FBF40
0BFC3D2E00
0BFCB40000
0FFAE00000
1FFFFF8000
1FFFFFD000
2FF87FD000
2FE03FD000
3FE03FD024
7FD07FC0B0
7FC07FD1D0
BFC07FFF80
FF802FFF00
FF400BF800
0000028000
00000BD000
00000FF000
00000FF400
00000BF400
000003E000
0000028000
0000010000
ENDCHAR
STARTCHAR uni049C
ENCODING 1180
SWIDTH 721 0
DWIDTH 23 0
BBX 25 25 0 -1
BITMAP
0001AF8000BE00
001FFF8007FF40
00BEFF401FFF40
03E1FF403E2E00
0F82FF00B80000
2F43FE01E00000
7E03FE53D00000
BE07FDAB800000
BD0BFCDF000000
7D0BFDEE000000
2D0FFFFE500000
050FFFFFF40000
001FF68BFC0000
002FF347FC0000
002FF307FC0000
003FE007FC0000
007FD00BF80000
007FD00BF40000
00BFC00FF40000
00FF801FF00000
00FF802FE00000
01FF402FE00000
01FF003FE00000
02FF002FF40000
00000005500000
ENDCHAR
STARTCHAR uni049D
ENCODING 1181
SWIDTH 551 0
DWIDTH 18 0
BBX 20 17 -1 -1
BITMAP
03FE000BE0
03FD007FF0
07FD01EBF0
0BFDD742E0
0BFEDD0000
0FFAE40000
1FF7FFF400
1FF7FFF800
2FFB4BFC00
2FFF07FC00
3FEE07FC06
7FDD0BF80E
7FC00BF81C
BFC00BFEB8
FF8007FFE0
FF4002FF80
0000005500
ENDCHAR
STARTCHAR uni04A0
ENCODING 1184
SWIDTH 691 0
DWIDTH 22 0
BBX 24 25 0 -1
BITMAP
0006BFF402F8
00BFFFF41FFD
07FFFFF47FFD
1FE42FF1FDB8
2F802FE3E000
7F003FEBC000
BE007FDF4000
BD007FEE0000
BD00BFFC0000
BD00FFF40000
3D00FFFFE000
0501FFFFF800
0002FF07FD00
0002FF03FD00
0003FE03FD00
0007FD03FD00
0007FD07FC00
000BFC07F800
000BF80BF400
000FF80FF400
001FF41FF000
001FF01FF000
002FF02FF000
003FE01FF400
000000055000
ENDCHAR
STARTCHAR uni04A1
ENCODING 1185
SWIDTH 676 0
DWIDTH 22 0
BBX 24 16 -1 0
BITMAP
006BFE900BD0
06FFFFD07FF0
1FE4BFC1FFF0
2F80FF87C7D0
3F40FF5F0000
7F01FF7D0000
3F02FFFFF400
1F42FFFFFC00
0003FF4BFC00
0007FD07FC00
0007FC07FC06
000BFC0BF80D
000FF80BFC2C
000FF80BFFF4
001FF403FFE0
002FF001BE40
ENDCHAR
STARTCHAR uni04A2
ENCODING 1186
SWIDTH 665 0
DWIDTH 21 0
BBX 23 29 0 -5
BITMAP
0001AF802FF0
001FFF802FF0
00BEFF403FE0
03E1FF403FD0
0FC2FF007FD0
2F43FE00BFC0
7E03FE00BF80
BE07FD00FF80
BD07FC01FF40
7D0BFD56FF40
2D0FFFFFFF00
050FFFFFFE00
001FF403FE00
002FF007FD00
002FF007FC00
003FE00BFC00
007FD00FF800
007FD00FF400
00BFC01FF400
00FF802FF000
00FF802FF000
01FF403FE000
01FF003FD000
02FF007FE400
00000002FE04
00000000FFF8
00000000BFF4
000000003FF0
000000001F80
ENDCHAR
STARTCHAR uni04A3
ENCODING 1187
SWIDTH 507 0
DWIDTH 16 0
BBX 19 24 -1 -8
BITMAP
03FE02FE00
03FD03FD00
07FD03FD00
0BFC07FC00
0BF80BF800
0FF80FF800
1FFFFFF400
1FFFFFF000
2FF02FF000
3FE02FE000
3FE03FD034
7FD03FD070
7FC03FD1E0
BFC03FFFC0
FF802FFF40
FF400BF800
0000028000
000007D000
00000FF000
00000FF400
00000BF400
000003E000
000002C000
0000010000
ENDCHAR
STARTCHAR uni04A4
ENCODING 1188
SWIDTH 689 0
DWIDTH 22 0
BBX 30 24 0 0
BITMAP
0001AF801BFFFFE0
001BFF802FFFFFD0
00B9FF403FE6BF40
02D2FF403FD00000
0F82FF007FC00000
2F03FE00BFC00000
7E07FE00BF800000
7E07FD00FF400000
BD0BFC00FF400000
7D0BFC01FF000000
3D0FFFFFFF000000
191FFFFFFE000000
001FF957FD000000
002FF007FD000000
002FF007FC000000
003FE00BFC000000
007FD00FF8000000
007FD00FF4000000
00BFC01FF4000000
00FF801FF0000000
00FF802FF0000000
01FF403FE0000000
01FF003FD0000000
02FF007FD0000000
ENDCHAR
STARTCHAR uni04A5
ENCODING 1189
SWIDTH 681 0
DWIDTH 22 0
BBX 24 16 -1 0
BITMAP
03FE02FFFFFD
03FD03FFFFFC
07FD03FDAFE4
0BFC07FC0000
0BF80BF80000
0FF80FF40000
1FFFFFF40000
1FFFFFF00000
2FF02FF00000
3FE02FE00000
3FE03FD03400
7FD03FD07000
7FC03FE1D000
BFC03FFFC000
FF802FFF0000
FF4006F80000
ENDCHAR
STARTCHAR uni04AA
ENCODING 1194
SWIDTH 497 0
DWIDTH 16 0
BBX 17 34 0 -10
BITMAP
00006FE800
0007FFFF00
001FF90F80
007FF00BC0
00FFD00BC0
02FF800FC0
03FF002F80
0BFE000500
0FFD000000
1FFC000000
2FF8000000
2FF8000000
3FF4000000
3FF0000000
7FF0000000
7FF0000000
7FF0000000
7FF0000000
7FF0000140
3FF4000740
3FFD002E00
1FFFAAF800
0BFFFFE000
02FFFE4000
001F900000
001F800000
002FD00000
001FF40000
000FF80000
0007FC0000
0002F80000
0001F40000
0001D00000
0001000000
ENDCHAR
STARTCHAR uni04AB
ENCODING 1195
SWIDTH 384 0
DWIDTH 12 0
BBX 14 24 -1 -8
BITMAP
000AFD00
007FFF40
01FF4F80
03FD0B80
0BFC0F40
1FF40500
2FF00000
3FE00000
3FE00000
7FD00000
7FD00020
7FD000A0
7FE00780
3FFABE00
1FFFF800
06FF9000
00740000
00F80000
01FD0000
01FF0000
00FF0000
007D0000
00340000
00100000
ENDCHAR
STARTCHAR uni04AE
ENCODING 1198
SWIDTH 620 0
DWIDTH 20 0
BBX 22 24 0 0
BITMAP
0001AF8000F0
001FFFC001E0
01BDFFD002D0
07E0BFE00780
1F807FE00B40
3F007FF00F00
7E003FF41D00
BD002FF83C00
BD001FF87800
BD001FFCB000
3D000FFDE000
05000BFFD000
000007FF8000
000003FF4000
000003FF0000
000007FE0000
000007FE0000
00000BFD0000
00000FFD0000
00000FFC0000
00001FF80000
00002FF80000
00002FF40000
00003FF00000
ENDCHAR
STARTCHAR uni04AF
ENCODING 1199
SWIDTH 480 0
DWIDTH 15 0
BBX 14 24 1 -8
BITMAP
7FD00B80
3FD02FD0
3FE01FE0
3FE001D0
3FE001D0
2FE002C0
2FF00380
2FF00740
1FF00E00
1FF01D00
1FF43800
1FF4B000
0FF5D000
0FFB8000
0FFF0000
0BFD0000
0FF80000
0FF80000
1FF40000
2FF00000
2FF00000
3FE00000
7FD00000
64000000
ENDCHAR
STARTCHAR uni04B0
ENCODING 1200
SWIDTH 620 0
DWIDTH 20 0
BBX 22 24 0 0
BITMAP
0001AF8000F0
001FFFC001E0
01BDFFD002D0
07E0BFE00780
1F807FE00B40
3F007FF00F00
7E003FF41D00
BD002FF83C00
BD001FF87800
BD001FFCB000
3D000FFDE000
05000BFFD000
000007FF8000
0000BFFFF800
0000FFFFF400
000007FE0000
000007FE0000
00000BFD0000
00000FFD0000
00000FFC0000
00001FF80000
00002FF80000
00002FF40000
00003FF00000
ENDCHAR
STARTCHAR uni04B1
ENCODING 1201
SWIDTH 480 0
DWIDTH 15 0
BBX 15 24 0 -8
BITMAP
1FF402E0
0FF40BF4
0FF807F8
0FF80074
0FF80074
0BF800B0
0BFC00E0
0BFC01D0
07FC0380
07FC0740
07FD0E00
07FD2C00
03FD7400
03FEE000
03FFC000
BFFFFC00
BFFFF800
03FE0000
07FD0000
0BFC0000
0BFC0000
0FF80000
1FF40000
19000000
ENDCHAR
STARTCHAR uni04B6
ENCODING 1206
SWIDTH 695 0
DWIDTH 22 0
BBX 24 29 0 -5
BITMAP
0001AF800BFC
001FFF800BFC
00BEFF400FF8
07E1FF001FF4
0FC2FF001FF4
2F43FE002FF0
7E03FD002FE0
BE07FD003FE0
BD07FC007FD0
7D07FC007FC0
2D07FC00BFC0
0107FE42FF80
0002FFFFFF80
00006FE5FF40
00000002FF00
00000002FF00
00000003FE00
00000007FD00
00000007FD00
0000000BFC00
0000000FF800
0000000FF800
0000001FF400
0000001FF900
00000000FF81
000000007FFE
000000002FFD
000000001FF8
0000000007E0
ENDCHAR
STARTCHAR uni04B7
ENCODING 1207
SWIDTH 505 0
DWIDTH 16 0
BBX 17 24 1 -8
BITMAP
3FE03FE000
3FD07FD000
7FD07FC000
BFC0BFC000
BF80FF8000
FF80FF8000
FF42FF4000
FF87FF0000
FFFFFF0000
BFFBFE0000
2F97FD0340
0007FD0700
0007FE1D00
0007FFF800
0002FFE000
0000BE4000
0000280000
0000BD0000
0000FF0000
0000FF4000
0000BF4000
00003E0000
0000280000
0000100000
ENDCHAR
STARTCHAR uni04B8
ENCODING 1208
SWIDTH 715 0
DWIDTH 23 0
BBX 24 24 0 0
BITMAP
0001AF8003FE
001FFF8003FD
00BEFF4007FD
07E1FF000BFC
1F82FF000BFC
3F03FE000FF8
7E03FD001FF4
BD07FD001FF4
BD07FC002FF0
7D07FC283FE0
1E07FD287FE0
0003FFBAFFD0
0001FFFFFFC0
00006FF9BFC0
000000A0FF80
00000090FF80
000000D1FF40
00000002FF00
00000002FF00
00000003FE00
00000007FD00
00000007FD00
0000000BFC00
0000000BF800
ENDCHAR
STARTCHAR uni04B9
ENCODING 1209
SWIDTH 545 0
DWIDTH 17 0
BBX 19 16 0 0
BITMAP
0FF802FF00
0FF403FE00
1FF407FD00
2FF007FD00
2FE28BFC00
3FE38FF800
3FD35FF800
7FE7BFF400
3FFFFFF000
2FFFBFF000
06FE3FE028
001D3FE074
001D3FE5E0
00183FFFC0
00001FFF40
000007F800
ENDCHAR
STARTCHAR uni04BA
ENCODING 1210
SWIDTH 679 0
DWIDTH 22 0
BBX 20 24 0 0
BITMAP
0001AF8000
001BFF8000
00BEFF4000
03F5FF4000
0FC2FF0000
2F43FE0000
7F03FE0000
BE07FD0000
BD07FC0000
7D0BFC0000
3D0FF9BFE0
050FFFFFFC
001FF90BFE
002FF002FE
002FE002FF
003FE002FE
007FD003FE
007FD003FE
00BFC007FD
00FF800BFC
00FF800BFC
01FF400FF8
01FF001FF4
02FF001FF0
ENDCHAR
STARTCHAR uni04BB
ENCODING 1211
SWIDTH 505 0
DWIDTH 16 0
BBX 19 22 -1 0
BITMAP
006BC00000
00BF800000
00FF800000
01FF400000
01FF000000
02FF000000
03FE6F9000
03FEFFF400
07FFFFF800
0BFE0FF800
0BFC0BF800
0FF80FF800
1FF40FF400
1FF41FF000
2FF02FF000
2FE02FE000
3FE03FD024
7FD03FD070
7FC07FD1E0
BFC03FFFC0
FF802FFF40
FF400BF800
ENDCHAR
STARTCHAR uni04C0
ENCODING 1216
SWIDTH 375 0
DWIDTH 12 0
BBX 13 24 0 0
BITMAP
0001AF80
001FFF40
01BEFF40
07E2FF00
1F82FE00
3F03FE00
7E07FD00
BD07FC00
BD0BFC00
BD0FF800
3D0FF400
051FF400
002FF000
002FF000
003FE000
007FD000
007FD000
00BFC000
00BF8000
00FF8000
01FF4000
01FF0000
02FF0000
03FE0000
ENDCHAR
ENDFONT
